<svg width="97" height="89" viewBox="0 0 97 89" fill="none" xmlns="http://www.w3.org/2000/svg">
<path d="M94.6431 24.705L76.6076 0.544128L19.6066 1.49019L0.924805 30.9635L2.72244 64.9943L15.8247 83.8791L64.0606 88.9869L86.1601 80.3223L96.0221 61.3556L94.6431 24.705Z" fill="#0B3806"/>
<path d="M85.1541 28.9804L70.5682 9.64539L26.005 10.8552L11.3145 33.9154L12.7389 60.7279L23.0332 75.8967L60.9019 79.8265L78.6143 72.8084L86.2464 57.8625L85.1541 28.9804Z" fill="#9CCF19"/>
<path d="M75.2233 30.5431C74.1811 29.0967 72.561 28.2689 70.777 28.2689H38.5788L37.8643 25.126C37.0952 21.8512 34.2053 19.5634 30.8376 19.5634H25.5721C23.2465 19.5634 21.2805 21.2508 20.9938 23.4931C20.83 24.7849 21.2259 26.0857 22.0815 27.0591C22.9371 28.0324 24.1704 28.5873 25.4674 28.5873H29.4268L31.593 36.888L35.7754 53.4986L35.7981 53.5805C36.3488 55.2316 37.6276 56.4823 39.2068 57.0281C37.9462 58.3744 37.2135 60.1711 37.2135 62.0632C37.2135 66.1294 40.5221 69.4361 44.5906 69.4361C48.6592 69.4361 51.9678 66.1294 51.9678 62.0632C51.9678 60.3075 51.3397 58.6383 50.2384 57.3283H56.9784C55.8816 58.6383 55.249 60.3075 55.249 62.0632C55.249 66.1294 58.5576 69.4361 62.6262 69.4361C66.6948 69.4361 70.0033 66.1294 70.0033 62.0632C70.0033 60.1711 69.2706 58.379 68.01 57.0281C69.5892 56.4823 70.868 55.2316 71.4187 53.5805L75.997 35.4189C76.534 33.7497 76.2518 31.9758 75.2233 30.5476V30.5431ZM44.5997 62.5862C44.3085 62.5862 44.0673 62.3497 44.0673 62.0541C44.0673 61.7584 44.3039 61.5219 44.5997 61.5219C44.8955 61.5219 45.1322 61.7584 45.1322 62.0541C45.1322 62.3497 44.8955 62.5862 44.5997 62.5862ZM62.6353 62.5862C62.344 62.5862 62.1028 62.3497 62.1028 62.0541C62.1028 61.7584 62.3395 61.5219 62.6353 61.5219C62.9311 61.5219 63.1677 61.7584 63.1677 62.0541C63.1677 62.3497 62.9311 62.5862 62.6353 62.5862Z" fill="#B6E234"/>
<path d="M70.7815 29.7335H37.3136L36.3214 25.3625C35.7207 22.8109 33.4725 21.028 30.8466 21.028H25.5811C24.0975 21.028 22.7732 22.0923 22.5866 23.5659C22.359 25.3489 23.7425 26.868 25.481 26.868H30.6737L33.154 36.3695L37.3272 52.9483C37.8551 54.5357 39.3433 55.6045 41.0135 55.6045H66.2259C67.9007 55.6045 69.3843 54.5357 69.9122 52.9483L74.4678 34.8504C75.3051 32.3352 73.4347 29.738 70.7815 29.738V29.7335ZM43.3345 50.9743C42.7065 50.9743 42.1467 50.5695 41.951 49.9737L38.8927 36.2786C38.5787 35.3325 39.2841 34.3592 40.2762 34.3592H43.7941L46.1425 50.9698H43.3345V50.9743ZM56.5505 50.9743H51.4626L49.1142 34.3637H57.5654L56.5505 50.9743ZM68.3421 36.2786L65.2839 49.9737C65.0882 50.5695 64.5284 50.9743 63.9004 50.9743H61.8297L62.8445 34.3637H66.9586C67.9553 34.3637 68.6562 35.3371 68.3421 36.2831V36.2786Z" fill="#0B3806"/>
<path d="M44.5997 56.1458C41.4049 56.1458 38.8154 58.7338 38.8154 61.9267C38.8154 65.1197 41.4049 67.7077 44.5997 67.7077C47.7945 67.7077 50.384 65.1197 50.384 61.9267C50.384 58.7338 47.7945 56.1458 44.5997 56.1458ZM44.5997 64.0508C43.4256 64.0508 42.4744 63.1002 42.4744 61.9267C42.4744 60.7532 43.4256 59.8026 44.5997 59.8026C45.7739 59.8026 46.725 60.7532 46.725 61.9267C46.725 63.1002 45.7739 64.0508 44.5997 64.0508Z" fill="#0B3806"/>
<path d="M62.6354 56.1458C59.4406 56.1458 56.8511 58.7338 56.8511 61.9267C56.8511 65.1197 59.4406 67.7077 62.6354 67.7077C65.8302 67.7077 68.4197 65.1197 68.4197 61.9267C68.4197 58.7338 65.8302 56.1458 62.6354 56.1458ZM62.6354 64.0508C61.4612 64.0508 60.5101 63.1002 60.5101 61.9267C60.5101 60.7532 61.4612 59.8026 62.6354 59.8026C63.8095 59.8026 64.7607 60.7532 64.7607 61.9267C64.7607 63.1002 63.8095 64.0508 62.6354 64.0508Z" fill="#0B3806"/>
<path d="M44.5997 56.1458C41.4049 56.1458 38.8154 58.7338 38.8154 61.9267C38.8154 62.2906 38.8518 62.6454 38.9156 62.9865C39.4162 60.303 41.7645 58.2699 44.5952 58.2699C47.4259 58.2699 49.7787 60.303 50.2748 62.9865C50.3385 62.6408 50.3749 62.286 50.3749 61.9267C50.3749 58.7338 47.7854 56.1458 44.5906 56.1458H44.5997Z" fill="#072602"/>
<path d="M62.6354 56.1458C59.4406 56.1458 56.8511 58.7338 56.8511 61.9267C56.8511 62.2906 56.8875 62.6454 56.9512 62.9865C57.4518 60.303 59.8001 58.2699 62.6308 58.2699C65.4615 58.2699 67.8144 60.303 68.3104 62.9865C68.3742 62.6408 68.4106 62.286 68.4106 61.9267C68.4106 58.7338 65.8211 56.1458 62.6263 56.1458H62.6354Z" fill="#072602"/>
<path d="M25.5811 23.7524H30.8466C33.4725 23.7524 35.7252 25.5399 36.3214 28.087L37.3135 32.4579H70.7814C72.5017 32.4579 73.8898 33.5541 74.4268 35.0096L74.4677 34.8413C75.3051 32.326 73.4347 29.7289 70.7814 29.7289H37.3135L36.3214 25.358C35.7207 22.8063 33.4725 21.0234 30.8466 21.0234H25.5811C24.0975 21.0234 22.7731 22.0877 22.5866 23.5614C22.5046 24.1981 22.6321 24.7985 22.9051 25.3125C23.4194 24.371 24.4525 23.7524 25.5811 23.7524Z" fill="#072602"/>
<path d="M26.0053 10.8552L20.7944 3.84624L75.3516 2.90472L70.5685 9.64539L26.0053 10.8552Z" fill="#D2F456"/>
<path d="M70.5139 7.5031L26.4877 8.15351L20.7944 3.84624L26.0053 10.8552L70.5685 9.64539L75.3516 2.90472L70.5139 7.5031Z" fill="white"/>
<path d="M26.0051 10.8553L11.3145 33.9154L3.35938 31.6549L20.7942 3.84625L26.0051 10.8553Z" fill="#B6E234"/>
<path d="M20.7941 3.84625L23.6749 11.0509L11.3145 33.9154L26.005 10.8553L20.7941 3.84625Z" fill="white"/>
<path d="M70.5684 9.64539L85.1542 28.9804L92.6543 25.933L75.3514 2.90472L70.5684 9.64539Z" fill="#B6E234"/>
<path d="M85.1543 28.9804L86.2465 57.8625L94.2016 60.9872L92.6543 25.933L85.1543 28.9804Z" fill="#9CCF19"/>
<path d="M86.2467 57.8625L78.6147 72.8084L84.5811 78.5529L94.2019 60.9872L86.2467 57.8625Z" fill="#7AB300"/>
<path d="M60.9023 79.8265L63.4099 86.831L84.5811 78.553L78.6148 72.8084L60.9023 79.8265Z" fill="#6CA80C"/>
<path d="M60.902 79.8265L63.4096 86.831L17.3628 82.4554L23.0333 75.8967L60.902 79.8265Z" fill="#4C9409"/>
<path d="M23.0337 75.8967L12.7394 60.7279L4.85254 64.4439L17.3632 82.4554L23.0337 75.8967Z" fill="#6CA80C"/>
<path d="M12.7389 60.728L11.3145 33.9154L3.35938 31.6549L4.8521 64.444L12.7389 60.728Z" fill="#9CCF19"/>
<path d="M75.3514 2.90472L72.6436 9.64539L85.1542 28.9804L70.5684 9.64539L75.3514 2.90472Z" fill="white"/>
<path d="M85.1541 28.9804L70.5682 9.64539L26.005 10.8552L11.3145 33.9154L12.7389 60.7325L23.0332 75.9012L60.8974 79.8265L78.6098 72.8084L86.2418 57.867L85.1496 28.985L85.1541 28.9804ZM77.3446 71.5576L60.9019 77.2976L24.9992 72.6855L15.4695 59.318L12.9574 34.3702L27.9483 14.7805L69.4032 12.1197L82.8195 29.8901L85.1541 57.3667L77.3446 71.5576Z" fill="#D2F456"/>
</svg>
