<?xml version="1.0" encoding="utf-8"?>
<!-- Generator: Adobe Illustrator 28.3.0, SVG Export Plug-In . SVG Version: 6.00 Build 0)  -->
<svg version="1.1" id="Layer_1" xmlns="http://www.w3.org/2000/svg" xmlns:xlink="http://www.w3.org/1999/xlink" x="0px" y="0px"
	 viewBox="0 0 1600 323.7" style="enable-background:new 0 0 1600 323.7;" xml:space="preserve">
<style type="text/css">
	.st0{fill-opacity:0.2;}
</style>
<g>
	<g>
		<path class="st0" d="M857.6,26.7c0.7,0,1.1-0.4,1.2-1c0.2-0.5,0.3-1.1,0.4-1.7c1.6-6.2,9.4-11.3,16.1-9.5
			c8.9,2.3,14.3,8.4,16.4,17.2c1.5,6.1-0.9,10.6-6.4,13.4c-3.6,1.8-7.1,1.5-10.2-1c-3.5-2.8-5.4-6.4-4.1-11.1
			c0.9-3.3,4.1-5.1,7.3-4.3c2.6,0.7,3.7,3.2,2.4,5.6c-0.4,0.8-1.1,1.5-1.6,2.3c-0.7,1.1-1.7,2-1.9,3.3c0.4,0.4,0.8,0.4,1.1,0.3
			c2.6-0.9,4.7-2.5,6.3-4.7c1-1.3,1.2-2.8,0.9-4.4c-0.5-3.7-3.3-6.3-7-6.9c-5.9-0.9-10.6,3.4-11.7,7.8c-1.8,7,2.8,14.9,9.6,17.4
			c8,2.8,17.4-4.3,18.9-10.3c1.2-5.1,0.4-9.8-1.8-14.4c-2.2-4.7-5.8-8.2-10-11.1c-7.8-5.5-18.8-4.6-25.6,4.4c-1.1,1.5-1.7,3.2-2,5
			c-0.1,0.8-0.2,1.7,0.1,2.5C856.6,26.2,857,26.6,857.6,26.7L857.6,26.7z"/>
		<path class="st0" d="M373.3,243.3c-0.4,0.2-0.8,0.3-1.1,0.5c-0.9,0.5-1.4,1.3-1.1,2.3c0.2,1,1,1.6,2,1.7c1.3,0.2,2.5-0.1,3.6-0.7
			c3-1.6,4.4-4.9,3.9-8.7c-0.5-3.8-2.5-6.4-6-7.1c-7-1.4-15.7,3.2-16,11.9c-0.3,8.2,3.1,13.6,10.6,16.8c2.5,1.1,5,1.3,7.6,0.6
			c3.6-1,7.1-2.4,9.9-4.9c4.9-4.3,7.8-9.8,7.8-16.5c0-3.1-0.8-6.1-1.3-9.2c-1.3-7-11-13.9-18.2-13.1c-2,0.2-4.1,0.4-6.2,0.7
			c-1.6,0.3-3.2,0.8-4.6,1.7c-0.7,0.5-1.3,1.2-0.9,2.1c0.4,1.1,1.3,0.7,2.1,0.4c2.5-1,5.2-1.3,7.5-1.2c9.4-0.4,15.5,4.7,16.7,13.7
			c0.1,0.8,0.2,1.6,0.3,2.5c0.5,3.1-0.2,5.9-1.4,8.7c-2.3,5-6.1,8.1-11.2,10c-2.8,1.1-5.3,0.9-8-0.4c-4.5-2.1-6-5.8-6.4-10.4
			c-0.6-6,5.3-9.9,10.5-9.3c1.3,0.2,2.1,0.8,2.5,2C376.6,239.9,375.8,242,373.3,243.3L373.3,243.3z"/>
		<path class="st0" d="M4.1,163.5c1.1,1.1,2,2.4,2.6,3.8c0.4,1,0.8,1.9,1.3,2.8c0.4,0.9,1,1.6,2.1,1.4c1.1-0.2,1.4-1.1,1.4-2.1
			c0-0.7,0-1.4,0-2.2c0-2.2,0.1-4.3,0.6-6.5c0.5-2.5,1.8-4.3,3.9-5.7c1.3-0.9,2.5-0.9,3.5,0.4c1.1,1.5,2.2,3,3.3,4.5
			c0.6,0.7,1.1,1.5,1.8,2.1c0.6,0.6,1.4,0.6,2,0.2c0.6-0.4,0.6-1.1,0.5-1.7c-0.2-0.6-0.4-1.2-0.7-1.7c-1.4-2.5-3.1-4.6-5.2-6.5
			c-1.8-1.6-3.6-1.7-5.7-0.6c-3,1.6-5,3.9-5.8,7.2c-0.3,1.4-0.6,2.7-0.9,4.1c-1.2-0.3-1.5-1.3-2.1-1.9c-2.3-2.3-4.2-2.9-6.6-1.9v3.7
			c0.1,0,0.2-0.1,0.2-0.1C1.7,162.1,3,162.3,4.1,163.5L4.1,163.5z"/>
		<path class="st0" d="M212.3,214.1c0.1,2.2,1.4,3.8,3.2,3.8c1.7,0,2.9-1.3,2.9-3c0-2.1-1.7-4.1-3.5-4
			C213.3,211,212.2,212.2,212.3,214.1z"/>
		<path class="st0" d="M228.4,237.3c1.3,0,2.4-1.2,2.3-2.7c-0.1-2-1.7-3.5-3.6-3.3c-1.6,0.1-2.7,1.3-2.6,2.8
			C224.6,235.7,226.5,237.3,228.4,237.3L228.4,237.3z"/>
		<path class="st0" d="M197.3,232.9c-0.1,1.6,2,3.5,3.7,3.5c1.4,0,2.5-1.2,2.5-2.6c0-1.8-1.6-3.5-3.3-3.5
			C198.7,230.2,197.3,231.4,197.3,232.9L197.3,232.9z"/>
		<path class="st0" d="M840.7,138.8c0-2.1-1.9-4.3-3.6-4.3c-1.5,0-3.8,3.1-3.8,5c0,1.6,1.5,3,3.3,3
			C838.8,142.5,840.7,140.8,840.7,138.8z"/>
		<path class="st0" d="M865,129.6c1.4,0,2.6-1.3,2.6-2.9c0-1.6-1.4-3.1-2.8-3.1c-1.5,0-2.6,1.2-2.5,2.9
			C862.3,128.3,863.5,129.6,865,129.6z"/>
		<path class="st0" d="M859.6,149.5c-1.4,0.1-2.4,1.3-2.3,2.8c0.1,1.6,1.4,2.8,2.8,2.7c1.3-0.1,2.4-1.4,2.3-2.8
			C862.3,150.7,861,149.4,859.6,149.5z"/>
		<path class="st0" d="M20.1,129.1c0.6,0.1,1.2,0.2,1.7,0.3c5.4,0.8,10.8,1.6,16.2,2.4c2.5,0.2,4.8-0.3,6.7-2
			c5.1-4.5,11.1-7.9,16.5-12.1c9.9-7.9,19.7-15.8,29.5-23.6c1.7-1.3,2.3-2.9,1.7-4.9c-0.3-1.1-0.6-2.2-1-3.3
			c-0.7-1.8-1.3-3.7-1.8-5.5c-1.3-4.2-2.4-8.5-3.4-12.7c-0.9-3.8-1.7-7.6-2.6-11.4c-2.2-9.2-5.1-18.1-8.8-26.7c-0.4-1-1-1.7-2-2.2
			c-1.3-0.7-2.6-1.3-4-1.5c-5.2-0.7-10.3-2.3-15.4-3.5c-4.8-1.2-9.8-1.7-14.6-2.6c-9.1-1.8-18.3-3.3-27.4-4.9
			c-3-0.5-5.5,0.1-7.8,1.9c-1.2,0.9-2.4,1.8-3.6,2.7v3c2-1.4,4-2.8,6-4.2c1.3-0.9,2.4-1.2,4-0.9c9.8,1.9,19.6,4,29.5,5.2
			c8,1,15.7,3.2,23.5,4.9c1.4,0.3,2.9,0.6,4.4,0.9c0.8,0.1,1.6,0.5,2.7,0.8c-1,1.4-2.1,2-3.1,2.6c-9.6,5.8-18.3,12.7-26.7,20.1
			c-4.6,4.1-10.1,7.3-14.1,12.1c-0.8,1-1.8,0.7-2.8,0.6C15.6,63,7.8,61.6,0,60.3V64c2.7,0.4,5.4,0.7,8.1,1.1
			c4.5,0.6,8.9,1.8,13.5,2.1c1.5,0.1,2.9,0.4,3.3,2.5c3,12.7,6.2,25.2,9.1,37.9c1.4,6.4,3.1,12.6,5.3,18.7c0.2,0.6,0.6,1.3,0.2,2.2
			c-3.5,0.3-6.9-0.6-10.3-1.1c-9.8-1.3-19.5-3.3-29.1-5.1v3.3c3.8,0.7,7.7,1.4,11.5,2.1C14.4,128.2,17.2,128.7,20.1,129.1
			L20.1,129.1z M38.6,111.6c-2.2-9.9-4.8-19.6-7.3-29.4c-1.2-4.6-2.4-9.2-3.9-13.7c-0.4-1.1-0.3-1.9,0.7-2.7
			c12.5-10.6,24.5-21.9,38.5-30.6c1.9-1.2,3.7-2.5,5.9-3.9c1.2,3.7,2.4,7.1,3.4,10.5c2.9,9.1,5.1,18.5,7.2,27.9
			c1.4,6.4,3.4,12.8,5.5,19c0.6,1.7,0.2,2.6-1.2,3.6c-9.8,7.8-19.5,15.6-29.3,23.4c-4.7,3.8-10.1,6.7-14.8,11
			C41.2,121.6,39.7,116.6,38.6,111.6L38.6,111.6z"/>
		<path class="st0" d="M21,109.4c-1.5,0-2.7,1.2-2.6,2.8c0,1.6,1.1,2.6,2.7,2.7c1.7,0,2.8-1,2.9-2.5C23.9,110.8,22.5,109.4,21,109.4
			L21,109.4z"/>
		<path class="st0" d="M2.8,93.8c0-1.4-1.4-2.9-2.8-3v5.5C1.6,96.4,2.8,95.2,2.8,93.8L2.8,93.8z"/>
		<path class="st0" d="M66.7,53.5c1.2,0,2.1-1.1,2.1-2.5c0-1.6-1.1-3-2.3-3.1c-1.3-0.1-2.4,1.1-2.5,2.6C63.9,52,65.3,53.5,66.7,53.5
			z"/>
		<path class="st0" d="M45.4,68.4c0-1.4-1.4-3-2.6-3c-1.2,0-2.1,1-2.2,2.5c-0.1,1.6,0.7,2.8,2.1,2.9C44.1,70.9,45.4,69.8,45.4,68.4
			L45.4,68.4z"/>
		<path class="st0" d="M70.8,70.3c1.3,0,2.1-1.1,2.1-2.5c0-1.6-1.1-3.1-2.4-3.1c-1.2,0-2.1,1.1-2.1,2.6C68.5,69,69.5,70.3,70.8,70.3
			z"/>
		<path class="st0" d="M53.1,103.7c1.2-0.1,1.9-1.1,1.9-2.4c0-1.3-1.1-2.5-2.2-2.6c-1.2,0-2.3,1.2-2.2,2.5
			C50.5,102.7,51.7,103.9,53.1,103.7z"/>
		<path class="st0" d="M47.9,86C49,86,50,85,50,83.8c0-1.3-1-2.5-2.2-2.5c-1.2-0.1-2.2,0.9-2.2,2.1C45.7,84.6,46.8,85.9,47.9,86z"/>
		<path class="st0" d="M77,88.5c1.2,0.2,2.2-1,2.2-2.4c0-1.5-0.8-2.5-2.1-2.5c-1.2,0-2.3,1.2-2.1,2.5C75.1,87.4,75.7,88.3,77,88.5z"
			/>
		<path class="st0" d="M829.7,190.6c-0.3,0.1-0.5,0.3-0.8,0.4c-0.1,0.1-0.2,0.1-0.4,0.2c-9.5,6.1-18.6,12.7-27.6,19.4
			c-3.9,2.9-7.7,5.8-11.6,8.8c-2,1.5-2.6,3.3-2,5.7c0.8,2.9,1.6,5.8,2.6,8.6c3,8.5,6.6,16.7,9.3,25.3c1.4,4.5,3.2,8.9,5.1,13.3
			c1.4,3,3.5,4.4,6.5,5c13.9,2.6,27.9,4.4,41.7,7.5c3,0.7,5-0.2,7.1-2.4c6.9-7.2,14.1-14.3,21.1-21.4c2.7-2.7,5.3-5.5,7.6-8.5
			c0.8-1,1.4-2,1.3-3.7c0-0.3-0.1-0.9-0.2-1.5c-1.1-6.5-2.2-13-3.2-19.5c-1.3-8.6-2.5-17.2-3.8-25.7c-0.7-4.8-1.5-5.5-6.2-6
			c-0.9-0.1-1.9-0.2-2.8-0.3c-1-0.1-1.9-0.2-2.9-0.3c-11.7-1.4-23.4-3-35-5.4C833.4,189.4,831.6,189.7,829.7,190.6L829.7,190.6z
			 M845.5,280.5c-9.2-2.2-18.7-3.2-28-5.1c-2.1-0.4-4.2-0.8-6.4-1.3c-2.3-0.4-4-1.5-4.7-3.9c-0.7-2.4-1.8-4.6-2.6-6.9
			c-3.8-11-7.6-22-11.3-33.1c-0.7-1.9-1.1-3.9-1.7-6.1c3.1-0.4,5.8,0.3,8.5,0.6c8.9,0.9,17.9,1.9,26.8,2.9c3.6,0.4,7.1,1.1,10.7,1.6
			c1.2,0.2,1.7,0.7,2,1.9c1.8,6.8,3.9,13.6,6,20.3c0.2,0.6,0.4,1.2,0.5,1.8c2.1,6.7,4.1,13.3,5.9,20.1c0.4,1.5,1,3,1.5,4.6
			c0.1,0.3,0.2,0.7,0.4,1c0.1,0.2,0.1,0.4,0.2,0.5c0.3,0.8,0.6,1.5,0.6,2.5C850.8,281.8,848.2,281.1,845.5,280.5L845.5,280.5z
			 M877.2,202.3c0.2-0.1,0.3-0.2,0.5-0.4c0.4-0.3,0.8-0.7,1.6-0.7c0,0.1,0,0.2,0.1,0.3c0.2,1.1,0.4,2.3,0.6,3.5
			c1.4,10.6,2.5,21.3,4.4,31.9c0.6,3.4,1.2,6.7,1.8,10.1c0.3,1.8,0.1,3.3-1.2,4.8c-8.7,9.9-18.2,19.2-27.5,28.5
			c-0.1,0.1-0.4,0.2-0.8,0.3c-3.1-8.2-5.5-16.4-7.6-24.7c-1.5-5.9-3.3-11.7-5.2-17.5c-0.8-2.4-1.4-5-2.1-7.4c-0.3-1-0.2-1.8,0.1-2.5
			c0.2-0.3,0.4-0.6,0.7-0.9c0.1-0.1,0.3-0.2,0.4-0.4c6.2-4.6,12.3-9.4,18.5-14C866.7,209.7,872,206,877.2,202.3z M835.4,192.9
			c12.7,2.8,25.6,4.5,38.5,6.2c0.1,0,0.2,0,0.3,0c0.3,0,0.5,0.2,1.4,0.4c-1.3,0.8-2.5,1.6-3.6,2.5c-2.1,1.6-4.1,3.1-6.1,4.6
			c-0.8,0.5-1.6,1.1-2.3,1.6c-4,2.8-7.8,5.7-11.7,8.6c-0.8,0.6-1.6,1.2-2.4,1.8c-2.9,2.2-5.8,4.4-8.8,6.5c-1.3,0.9-2.3,1.3-3.9,1.1
			c-13.7-2-27.4-3.5-41.1-4.8c0,0,0,0-0.1,0c-0.8-0.1-1.7,0-2.7-0.7c3.2-2.7,6.6-4.8,9.9-7.2c9.2-6.6,18.3-13.5,27.9-19.6
			C832.1,192.9,833.5,192.5,835.4,192.9L835.4,192.9z"/>
		<path class="st0" d="M805.5,234.5c-1.6-0.1-2.9,1.2-2.9,2.9c0,1.6,1.1,2.9,2.5,2.9c1.5,0,2.9-1.3,2.9-3
			C808.1,235.8,807,234.5,805.5,234.5L805.5,234.5z"/>
		<path class="st0" d="M867.2,239.5c1.7,0.1,3.3-1.3,3.3-3c0-1.5-1.2-2.7-2.7-2.8c-1.7-0.1-3.1,1.3-3.1,3.1
			C864.7,238.5,865.7,239.5,867.2,239.5L867.2,239.5z"/>
		<path class="st0" d="M809.4,214.4c-1.4,0-2.7,1.3-2.6,2.8c0,1.3,1,2.4,2.3,2.4c1.4,0,2.7-1.4,2.7-2.8
			C811.8,215.4,810.7,214.4,809.4,214.4L809.4,214.4z"/>
		<path class="st0" d="M836.6,207.3c-1.4-0.1-2.8,1.1-2.9,2.5c-0.1,1.3,0.8,2.3,2.2,2.4c1.5,0.1,2.8-1,2.9-2.5
			C838.9,208.5,837.9,207.4,836.6,207.3L836.6,207.3z"/>
		<path class="st0" d="M856.2,201.9c-0.2,1.1,0.6,2.1,2,2.3c1.5,0.2,2.9-0.6,3.1-1.8c0.1-1-0.6-1.9-1.8-2.2c-0.1,0-0.1,0-0.2-0.1
			c-0.1,0-0.2,0-0.3,0C857.6,199.9,856.4,200.7,856.2,201.9z"/>
		<path class="st0" d="M736.1,305.1c3.3,0.1,6.6-0.3,9.9-0.6c5.7-0.4,9.9-3.1,12.4-8.3c0.9-1.9,1.5-3.9,2.3-5.7
			c1.4-3.2,0.9-6.3-0.6-9.2c-3-5.7-6.4-11.1-11.2-15.4c-8.3-7.4-17.4-13.7-27.9-17.8c-0.1,0-0.1,0-0.2-0.1c-2.7-1.1-5.4-2.1-8.1-3
			c-2.8-1-5.7-1.9-8.5-2.9c-10.6-3.5-21.4-4.4-32.4-2.1c-4.2,0.9-8.2,2.5-10,6.4c-2.1,4.6-4.3,9.3-4.8,14.6
			c-0.2,2.4,0.2,4.3,1.5,6.1c6.3,8.4,13.4,15.9,22.7,21.2c6.9,4,14,7.4,21.4,10.3C713.4,302.7,724.6,304.5,736.1,305.1L736.1,305.1z
			 M669.6,244.5c4.9-1.6,10.1-2.3,16.4-2.1c4.5-0.1,10,0.9,15.4,2.5c11.3,3.2,22.5,7,32.4,13.5c4.2,2.8,8.3,5.8,12.2,9.1
			c4.9,4.2,8.5,9.5,11.4,15.3c0,0.1,0.1,0.2,0.1,0.3c0.4,0.7,0.6,1.5,0.8,2.3c0.6,2.1,0,3.6-1.9,4.7c-1.2,0.8-2.6,1.2-4.1,1.4
			c-8.1,1.4-16,0.8-24-0.9c-9.5-2-18.2-6-26.8-10.3c-10.2-5.1-19.9-11-28.6-18.3c-2.8-2.4-4.9-5.3-6.7-8.4c-0.5-0.8-0.8-1.6-1-2.4
			C664.5,248.1,666,245.7,669.6,244.5L669.6,244.5z M664.6,271.1C664.6,271.1,664.5,271.1,664.6,271.1c-1.5-1.7-2.6-3.1-3.4-4.3
			c-1.2-1.8-1.7-3.3-1.5-5.2c0.1-0.6,0.2-1.2,0.4-1.9c0.5-1.7,1.3-3.7,2.5-6.4c1.7,3.4,3.9,6.3,6.4,8.8c1,1,2.1,2,3.2,2.9
			c2,1.6,4,3.2,6.1,4.7c11.3,8.3,23.9,14.4,36.7,19.9c6.2,2.7,12.9,3.6,19.5,4.9c6.7,1.3,13.4,0.6,20-0.3c0.4-0.1,0.8-0.2,1.2,0
			c-0.8,2.5-2.1,4.4-3.8,5.7c-1.3,0.9-2.8,1.6-4.7,2c-0.4,0.1-0.8,0.1-1.2,0.2c-5.4,0.8-10.8,0.6-16.2,0.1c-1.5-0.2-3-0.3-4.5-0.6
			c-1.1-0.2-2.2-0.3-3.3-0.5c-11.9-2.1-23.1-6.5-33.8-12C679.2,284.5,671.2,278.7,664.6,271.1L664.6,271.1z"/>
		<path class="st0" d="M263.9,49.4c5.3,4.7,11.3,7.9,17.9,10.3c7.3,2.6,14.7,4.9,22.2,6.8c5.4,1.4,10.9,2.2,16.5,2.6
			c5.9,0.4,11.7-0.2,17.5-1.4c6.8-1.5,11-5.2,12.1-12.3c0.6-3.8,0.2-7.3-2.1-10.6c-4.1-6.1-9.7-10.3-16.4-13.2
			c-15.7-6.7-32.1-8.9-49.1-7.7c-3.4,0.2-6.8,0.8-10,2c-1.2,0.5-2.5,1-3.7,1.6c-2.8,1.3-5.1,3.3-6.1,6.3c-1.2,3.6-1.7,7.2-1.3,11
			C261.7,46.7,262.5,48.2,263.9,49.4L263.9,49.4z M268.5,31.6c1.6-0.9,3.3-1.7,4.9-2.4c5.9-1.8,11.8-2.6,17.9-2.6
			c12.2,0,24.1,1.7,35.4,6.2c2.1,0.8,4.2,1.8,6.3,2.8c4.7,2.4,8.6,5.6,11.8,9.8c0.6,0.7,1.1,1.5,1.4,2.4c0.8,2.6,0.4,3.7-1.8,5.3
			c-1.7,1.3-3.6,2-5.6,2.5c-0.8,0.2-1.6,0.3-2.4,0.4c-0.6,0.1-1.3,0.1-2,0.2c-4.7,0.3-9.5,0.2-14.2-0.4c-1.1-0.1-2.2-0.3-3.4-0.4
			c-2.3-0.3-4.6-0.6-6.9-0.9c-8.5-1.2-16.8-2.9-24.9-5.9c-5.5-2.1-10.9-4.4-15.6-8.1c-0.3-0.2-0.5-0.4-0.8-0.6
			c-0.4-0.3-0.7-0.6-1.1-0.9C264.9,36.1,265.2,33.5,268.5,31.6L268.5,31.6z M264.5,40c1,0.7,1.9,1.4,2.9,2.1c1.5,1.1,3,2.1,4.6,3
			c9.6,5.4,19.9,8.6,30.6,10.6c8.7,1.6,17.4,3.4,26.3,3.5c6.4,0.1,12.6,0,18.3-4.2c-0.3,4.2-2.2,6.7-5.7,8.1c-3.1,1.3-6.3,2-9.6,2.4
			c-6.1,0.7-12.2,0.6-18.2-0.4c-12-2-23.6-5.2-34.8-9.9c-4-1.7-7.6-4.2-11.2-6.6c-1.6-1.1-2.7-2.3-3.2-3.7
			C264.1,43.6,264.1,41.9,264.5,40z"/>
		<path class="st0" d="M286,33.1c-0.8,0.3-1.5,0.9-1.6,1.8c-0.1,0.9,0.6,1.2,1.3,1.6c0.9,0.5,1.8,0.9,2.8,1.4
			c10.2,4.4,20.9,6.2,31.9,7.1c0.8,0.1,1.6,0.3,2.4-0.6c-12.6-2.1-25.3-3.2-37.1-9.3c1.6-1.2,2.8-1.2,4.1-1.2
			c5.6-0.1,11.2,0.2,16.6,1.5c6.7,1.6,13.4,3.5,19.9,5.9c2.8,1,5.6,2.2,8.2,3.7c1,0.6,1.9,1.3,2.7,2c0.8,0.7,0.8,1.5-0.3,1.9
			c-0.8,0.3-1.6,0.6-2.4,0.6c-5.3,0.2-10.7,1.2-16,0.4c-10.6-1.4-20.8-4.3-31-7.6c-4.9-1.6-9.7-3.7-14-7c-0.3,1.8,0.9,2.2,1.8,2.8
			c2.6,1.6,5.2,2.9,8,4.1c6.8,2.9,14,4.4,21,6.3c9.4,2.6,19,3.8,28.8,2.6c1.7-0.2,3.5-0.1,5.1-1.2c1.5-1,1.6-2,0.5-3.3
			c-0.6-0.7-1.3-1.3-2.1-1.8c-2.4-1.6-5-2.9-7.7-4c-7-2.6-14.1-4.7-21.3-6.5c-5.7-1.4-11.4-1.5-17.2-1.7
			C288.9,32.4,287.4,32.5,286,33.1L286,33.1z"/>
		<path class="st0" d="M74.5,189.3c1.3-1.7,2.3-3.6,3-5.7c0.6-1.9,0.4-3.7-0.6-5.4c-0.1-0.2-0.2-0.3-0.3-0.5c-1-1.6-2-3.2-3.2-4.7
			c-0.8-1-1.6-1.9-2.5-2.7c-3-2.7-6.5-4.3-10.7-3.8c-3.1,0.4-6.1,1-9,2.1c-13,5.1-23.6,13.3-32.1,24.4c-1.9,2.5-3.2,5.2-4.1,8.3
			c-0.7,2.6-0.5,5.1,0.8,7.5c1.3,2.4,3,4.4,4.6,6.6c1.6,2.2,3.6,3,5.9,2.9c0.6,0,1.3,0,1.9,0c1.3-0.1,2.6-0.5,3.8-0.9
			c0.8-0.3,1.5-0.5,2.3-0.8c12.4-4.6,23.7-11.2,33.6-20C70.3,194.4,72.5,192,74.5,189.3L74.5,189.3z M19.9,207.3
			c-1.8-1-2.2-2.9-1.3-5.8c0.5-1.8,1.3-3.5,2.4-5c8.7-11.9,20-20.4,33.8-25.6c3.3-1.2,6.6-1.5,10-0.4c0.8,0.3,1.5,0.6,2,1
			c2.1,1.4,2.8,3.5,2.1,6.4c-0.6,2.7-1.9,5-3.8,7c-5.5,6.1-11.7,11.3-18.9,15.4c-6.3,3.6-12.9,6.5-20.1,7.6
			c-0.7,0.1-1.4,0.2-1.9,0.3c-0.5,0-0.8,0-1.1-0.1C21.7,208.1,20.7,207.8,19.9,207.3L19.9,207.3z M47.2,207.4
			c-5.1,2.8-10.1,5.7-15.8,7c-1.1,0.3-2.2,0.6-3.3,0.7c-3.5,0.4-5.3-0.5-7.6-4.1c5.8,0.7,11-0.7,16.1-2.6
			c11.7-4.4,21.6-11.6,30.4-20.3c2.8-2.7,4.4-6.2,5.4-10c2.5,2.1,2.9,3.5,1.9,6.2c-1,2.6-2.8,4.6-4.7,6.5
			C63,197.5,55.4,202.9,47.2,207.4L47.2,207.4z"/>
		<path class="st0" d="M54.5,173.7c-9.2,3.5-17.3,8.7-24.7,15.1c-2.5,2.2-4.3,5-5.9,7.9c-0.7,1.3-1,2.8-0.9,4.2c0,0.1,0,0.2,0,0.2
			c0.1,1.4,0.8,2.2,2.3,2.4c1.9,0.2,3.7-0.4,5.4-1.1c5.1-2.1,9.7-5,14.4-7.8c4.4-2.5,8.7-5.1,12.7-8.3c1-0.9,2.1-1.7,2.8-2.9
			c0.8-1.3,1-2.8,0.3-4.1c-0.7-1.4-2.1-1.4-3.5-1.5c-1.2,0-2.3,0.3-3.3,0.7c-5.5,2.2-10.8,4.6-15.7,7.9c-1.9,1.3-3.7,2.7-5,4.6
			c-0.5,0.7-1.2,1.4-0.4,2.7c2.1-2.7,4.5-4.9,7.4-6.7c4.5-2.8,9.3-5,14.1-7c0.8-0.4,1.8-0.6,2.7-0.7c0.9-0.1,2-0.4,2.5,0.6
			c0.5,1.1,0.4,2.2-0.5,3.2c-0.6,0.6-1.2,1.1-1.8,1.7c-3.7,3.1-7.7,5.6-11.8,8c-5.3,3.1-10.6,6.4-16.4,8.7c-1.3,0.5-3,1.3-4.1,0.2
			c-0.9-0.9-0.7-2.1-0.2-3.2c0.2-0.4,0.4-0.7,0.5-1.1c1.6-2.9,3.5-5.7,6-7.9c6.5-5.7,13.6-10.3,21.6-13.8c1.4-0.6,2.9-1.2,4.4-1.5
			c1-0.1,2.1-0.1,3.2,0.2c-0.2-0.5-0.4-0.9-0.6-1.1c-0.5-0.5-1.1-0.5-1.6-0.6C57,172.8,55.8,173.2,54.5,173.7L54.5,173.7z"/>
		<path class="st0" d="M405.6,275c-0.7,1.1-0.8,2.1-0.3,3.2c1.1,2.8,2.2,5.6,3.3,8.4c0.7,1.9,2.1,3,3.9,3.7c2.6,1,5.2,2.1,7.7,3.2
			c6.1,2.5,12.4,4.7,18.4,7.4c9.4,4.3,19.2,7.6,28.8,11.3c10.6,4,21.4,7.7,32.2,11c4.1,1.3,5.1,1,7.1-2.9c2.2-4.2,4.3-8.5,6.6-12.6
			c6.3-11.7,13.8-22.8,20.6-34.3c5.5-9.3,11.1-18.6,16.7-27.9c0.5-0.8,1.1-1.6,0.9-2.6c-0.7-4-1.1-8-2.3-11.8
			c-0.8-2.5-2.2-4.2-4.7-5.3c-4.3-1.7-8.6-3.5-12.9-5.3c-5.8-2.4-11.7-4.7-17.6-6.7c-3.9-1.4-7.8-2.8-11.7-4.3
			c-8.2-3.1-16.4-6.2-24.7-8.8c-3.7-1.2-7.4-2.5-10.6-2.9c-2.6-0.3-4,0.6-5.2,1.8c-2.2,2.1-4.1,4.4-6,6.7
			c-13,15.7-24.4,32.6-36.5,48.9C414.5,261.6,409.9,268.2,405.6,275z M500.9,319.8c-9.4-2.4-18.3-5.7-27.3-8.9
			c-18.5-6.7-36.6-14.6-54.9-21.7c-0.1,0-0.2-0.1-0.3-0.1c-2.1-1-5-1-6.4-2.8c-1.5-1.9-2.3-4.4-3.2-6.7c-0.1-0.2-0.2-0.5-0.3-0.7
			c0.5-0.6,1-0.5,1.5-0.3c0.1,0,0.1,0.1,0.2,0.1c12.3,4.5,24.7,8.8,36.9,13.5c15.2,5.9,30.4,11.7,45.8,16.8c3.3,1.1,5.4,2.6,6.6,5.3
			c0.3,0.7,0.5,1.4,0.7,2.2c0.1,0.4,0.2,0.8,0.4,1.2C500.8,318.4,501,319,500.9,319.8z M546.4,235.6c0.5,2,1,4,1.5,6.1
			c0.2,1-0.2,1.8-0.7,2.6c-0.1,0.1-0.1,0.2-0.2,0.3c0,0.3,0,0.6,0,1c-0.1-0.2-0.1-0.4-0.2-0.6c-0.9,1.5-1.8,3.1-2.7,4.6
			c0.2,0.6,0.4,1.2,0.6,1.9c-0.3-0.4-0.6-0.8-0.9-1.3c-1.1,1.9-2.3,3.9-3.4,5.8c0.1,0.6,0.2,1.1,0.3,1.8c-0.2-0.4-0.5-0.7-0.7-1.1
			c-1.2,2-2.3,3.9-3.5,5.9c0.2,0.9,0.5,1.7,0.7,2.6c-0.4-0.6-0.8-1.2-1.1-1.9c-1,1.8-2.1,3.5-3.1,5.3c0.3,1.2,0.5,2.4,0.5,3.4
			c-0.4-0.7-0.8-1.5-1.2-2.2c-1,1.7-2,3.4-3,5c0.4,1.3,0.6,2.6,0.7,3.6c-0.5-0.8-1-1.6-1.4-2.5c-0.9,1.6-1.9,3.2-2.8,4.8
			c0.4,1.3,0.6,2.6,0.7,3.9c-0.5-0.9-1-1.8-1.4-2.7c-0.8,1.3-1.6,2.7-2.4,4c0.2,0.8,0.5,1.5,0.8,2.3c-0.4-0.4-0.8-0.9-1.3-1.5
			c-1.1,1.9-2.2,3.7-3.3,5.6c0.2,1,0.3,1.8,0.3,2.5c-0.3-0.5-0.6-1-0.9-1.5c-0.9,1.5-1.7,3-2.6,4.5c0.1,0.3,0.1,0.6,0.2,0.9
			c-0.2-0.2-0.3-0.4-0.4-0.6c-0.2,0.4-0.4,0.7-0.7,1.1c-0.7,1.1-1.3,2.2-2,3.4c0.4,1,0.7,2.1,1.1,3.1c-0.6-0.5-1.1-1.2-1.7-2.1
			c-0.9,1.5-1.7,2.9-2.5,4.4c0.3,0.7,0.6,1.4,0.9,2.1c-0.4-0.3-0.9-0.8-1.3-1.3c-0.8,1.5-1.6,3-2.4,4.6c0,0.2,0.1,0.4,0.1,0.6
			c-0.1-0.1-0.2-0.2-0.3-0.3c-0.3,0.7-0.6,1.3-0.9,2c-0.4,0.8-0.9,1.6-1.6,2.8c-1.1-2.5-2-4.6-3-6.6c-0.5-1-0.3-1.8,0.3-2.8
			c0.6-0.9,1.1-1.8,1.7-2.8c-0.2-0.7-0.4-1.3-0.6-2c0.4,0.4,0.7,0.9,1,1.4c0.8-1.3,1.6-2.7,2.5-4c-0.1-0.7-0.2-1.3-0.2-1.9
			c0.2,0.4,0.4,0.9,0.6,1.3c0.9-1.5,1.9-3,2.8-4.5c-0.2-1.1-0.3-2.1-0.2-2.9c0.3,0.6,0.6,1.3,0.8,1.9c0.9-1.4,1.8-2.8,2.7-4.2
			c-0.1-0.3-0.1-0.5-0.2-0.8c0.1,0.2,0.2,0.3,0.3,0.5c0.9-1.4,1.8-2.8,2.6-4.2c-0.2-0.7-0.3-1.3-0.3-1.8c0.3,0.2,0.6,0.5,0.8,0.9
			c1.1-1.8,2.3-3.6,3.4-5.4c-0.2-0.9-0.3-1.7-0.4-2.4c0.3,0.5,0.6,1,0.9,1.5c0.8-1.3,1.6-2.6,2.4-3.9c-0.3-0.7-0.5-1.4-0.8-2.2
			c0.5,0.3,0.9,0.8,1.3,1.3c1.1-1.8,2.2-3.6,3.3-5.4c-0.1-0.3-0.1-0.5-0.2-0.8c0.1,0.1,0.3,0.3,0.4,0.4c1.1-1.8,2.1-3.6,3.2-5.4
			c-0.3-0.7-0.5-1.4-0.8-2c0.4,0.2,0.9,0.6,1.3,1.2c0-0.1,0.1-0.2,0.1-0.2c1.1-1.9,2.3-3.8,3.4-5.7c-0.1-0.6-0.2-1.2-0.3-1.8
			c0.2,0.4,0.4,0.8,0.7,1.2c1.1-1.9,2.2-3.7,3.3-5.6c-0.1-0.3-0.2-0.7-0.3-1c0.2,0.2,0.4,0.4,0.6,0.6c1.1-1.9,2.2-3.9,3.3-5.8
			c-0.1-0.5-0.2-1.1-0.3-1.6c0.2,0.3,0.5,0.6,0.7,1c1-1.8,2-3.6,2.9-5.4c-0.1-0.4-0.3-0.7-0.4-1.1c0.2,0.2,0.4,0.4,0.6,0.6
			c0.2-0.4,0.4-0.8,0.7-1.3C545.5,236.2,545.7,235.8,546.4,235.6L546.4,235.6z M456.9,210.3c2.2-2.8,4.7-5.4,6.9-8.3c0,0,0,0,0-0.1
			c1.2-1.6,2.5-1.8,4.3-1.2c5.9,1.7,11.9,3.4,17.7,5.7c17.6,7.1,35.8,12.8,53.2,20.4c1.6,0.7,3.2,1.5,4.8,2c0.6,0.2,0.9,0.4,1.1,0.7
			c0.3,0.5,0.2,1.1-0.2,1.9c-2.4,4.7-4.8,9.4-7.5,13.9c-3.6,5.8-7.1,11.7-10.6,17.6c-2.9,4.8-5.9,9.6-8.9,14.4
			c-5,7.9-10,15.7-14.8,23.7c-1,1.6-1.9,3.2-2.9,4.8c-1.3,2.3-1.3,2.3-3.9,1.4c-15.1-5.2-30.1-10.7-45-16.6
			c-12.6-5-25.3-9.5-38.1-14c-0.3-0.1-0.6-0.2-0.8-0.3c-0.9-0.3-1.8-0.7-2.9-1.2c1.2-2.5,2.7-4.5,4.2-6.5
			c9.4-12.7,18.6-25.5,28-38.2C446.5,223.6,451.6,216.9,456.9,210.3z"/>
		<path class="st0" d="M494.7,228.6c-4.4-3.3-9.1-6-14.7-6.8c-2.5-0.4-4.3,0.3-5.7,2.5c-4.2,6.4-8.8,12.4-13.5,18.5
			c-4.7,6-9,12.4-13.1,18.8c-1.6,2.5-0.9,4.4,1.9,5.2c7.1,1.8,14,4.1,21.3,5.3c5.3,0.9,10.6,1.2,15.7-1.4c6.8-3.5,9-12.1,4.3-18.1
			c-1.4-1.8-3.1-3.3-5.1-4.5c-1.6-0.9-3.1-1.9-5.3-3.3c3.8-1,7-1.2,10.1-2.1c2.4-0.8,4.5-2,6.2-3.9c0.8-0.9,1.4-1.9,1.2-3.1
			C497.6,233,497.1,230.3,494.7,228.6L494.7,228.6z M486.8,252.6c5.6,4.6,4.6,11.5-1.7,15c-3,1.6-6,2-9.3,1.7
			c-6.2-0.6-12.1-2.7-18.1-4.2c-1.9-0.5-3.8-1-6-1.6c1.8-3.5,4-6.3,5.9-9.2c1.9-2.9,3.9-5.6,5.8-8.5c0.9-1.4,2-1.7,3.6-1.7
			C474.7,244.5,481,247.9,486.8,252.6L486.8,252.6z M491.6,238.8c-0.1,0-0.2,0.1-0.3,0.1c-7.8,2.2-15.6,3.3-23.7,1.6
			c-0.1-1.1,0.6-1.7,1.1-2.4c2.7-4,5.4-8,8.1-12.1c0.7-1.1,1.5-1.4,2.8-1.1c4.8,1.1,9.1,3.3,13.1,6.1
			C495.9,233.4,495.2,237.2,491.6,238.8L491.6,238.8z"/>
		<path class="st0" d="M518.1,262.3c1.2,0.2,1.3-0.6,1.6-1.1c1.1-2.1,2.2-4.2,3.4-6.3c4-7.1,8.2-14.1,12.9-20.7
			c0.5-0.7,1.4-1.5,0.9-3.1C529.6,241.2,523.3,251.3,518.1,262.3L518.1,262.3z"/>
		<path class="st0" d="M529.2,230.4c-3.4,3.1-7.4,10.1-7.7,13.2C524.2,238.9,526.7,234.7,529.2,230.4z"/>
		<path class="st0" d="M518.1,235.4c1.7-3.1,3.7-5.9,5.7-9.3C521,228.2,518.4,232.4,518.1,235.4z"/>
		<path class="st0" d="M544,237.2c0.1,0.4,0.3,0.7,0.4,1.1c0.8,2.2,1.6,4.4,2.4,6.6c0.1,0.2,0.1,0.4,0.2,0.6c0-0.3,0-0.6,0-1
			c0-2.7-0.8-5.1-2.3-6.7C544.5,237.6,544.3,237.4,544,237.2L544,237.2z"/>
		<path class="st0" d="M90.2,244c-1.1,0.1-1.9,1.1-2.4,2.3c-0.5,1.4-1.2,2.7-1.5,4.1c-0.6,3-2.2,4.1-5.3,4.2
			c-3.8,0.1-7.6,1.1-10.9,3c-4.4,2.6-5.4,6.7-2.8,11.1c1.1,1.9,2.6,3.4,4.3,4.8c2.3,1.9,4.8,3.6,7.4,5c4.5,2.5,9.2,4.6,14.1,6.5
			c16.1,6.1,32.6,9.6,49.8,10.1c1.3,0,2.7,0.1,4,0c5.2-0.4,10.3-0.8,15-3.4c5.1-2.9,6.1-7.5,2.6-12.2c-2.3-3-5-5.6-8.2-7.4
			c-1.4-0.8-1.8-1.7-1.3-3.3c0.9-2.9,1-5.9-0.9-8.3c-1.2-1.5-0.9-2.7-0.5-4.2c2-6.3,4.4-12.5,5.8-18.9c2.8-12.1,6.4-23.9,9.8-35.8
			c1.7-5.8,3.6-11.4,4.9-17.3c1.4-5.8,0.6-11.3-3.4-16.1c-1-1.2-1.7-2.6-2.6-3.9c-3.9-6-2.2-13,1.9-17.4c3.3-3.6,7.5-5.8,11.7-7.9
			c3.6-1.8,6.8-4,8.2-8c1.2-3.5,2.3-7.1,3.2-10.7c2.7-10.5,5.4-21,8-31.5c2.3-8.8,4.5-17.6,6.8-26.4c0.4-1.5,0.8-3,2.5-3.6
			c1.1-0.4,1.4-1.4,1.7-2.5c0.5-2.1,1.1-4.2,1.4-6.3c0.3-2.8,0.4-2.9,3.3-3.5c2.2-0.4,4.1-1.4,5.9-2.7c1.9-1.3,2.5-3.2,2-5.4
			c-0.3-1.5-1-2.7-2.1-3.7c-2.8-2.7-5.9-4.8-9.3-6.6c-1.3-0.6-2.6-1.3-3.9-1.9c-5.2-2.5-10.4-4.7-15.8-6.7c-3.1-1.2-6.3-2.2-9.5-3.2
			c-3-0.9-6-1.7-9-2.4c-0.6-0.1-1.2-0.3-1.8-0.4c-6.9-1.5-13.8-2.9-20.9-2.5c-4,0.2-7.8,0.9-11,3.5c-2.6,2.2-3.1,4.4-1.3,7.3
			c0.6,1,1.3,2.1,2.1,3c0.5,0.6,1,1.1,1.6,1.5c1.1,0.8,1.5,1.7,1.4,2.7c0,0.5-0.2,1-0.4,1.6c-0.9,2.3-1.9,4.6-2.3,7.1
			c-0.2,1-0.3,1.9,0.3,2.7c1.1,1.7,0.8,3.2,0.2,4.9c-0.5,1.5-0.7,3-1.1,4.5c-3,11.5-6.7,22.8-9.3,34.4c-2.3,10.3-4.6,20.6-7.7,30.6
			c-1.6,5.1-0.4,9.8,1.9,14.3c0.7,1.3,1.5,2.5,2.2,3.7c1,1.7,2.1,3.3,3,5.1c3.6,6.8,1.9,13.9-4.4,18.1c-2.6,1.7-5.3,3.3-8,4.7
			c-2.9,1.5-4.7,4-5.8,7c-4.1,10.7-7,21.8-10,32.9c-3.5,12.9-7.1,25.9-10.1,39C93.4,241.8,93.1,243.8,90.2,244z M153.2,274.6
			c0.5,0.3,0.9,0.6,1.4,0.9c1.6,1.1,3.1,2.1,4.4,3.3c0.3,0.3,0.6,0.6,0.9,0.9c0.7,0.6,1.2,1.4,1.7,2.2c1,1.8,1,3.3,0.1,4.5
			c-0.4,0.5-0.9,0.9-1.5,1.3c-0.8,0.5-1.6,0.9-2.5,1.2c-2,0.8-4.2,1.2-6.4,1.4c-7,0.9-14,0.7-20.9-0.1c-2.6-0.3-5.2-0.7-7.7-1.1
			c-0.1,0-0.2,0-0.4-0.1c-12.4-2.1-24.4-5.3-35.8-10.6c-4.5-2.1-8.8-4.5-12.6-7.8c-1.4-1.2-2.8-2.5-3.6-4.2c-1.2-2.2-0.8-4,1.3-5.4
			c2.3-1.5,4.8-2.3,7.5-2.7c1.2-0.2,2.5-0.3,3.7-0.4c0.2,0,0.3,0,0.5,0c0.6,0.1,0.8,0.6,0.8,1.3c0,0.4,0,0.8,0.1,1.2
			c0.3,1.4,1.1,2.5,2,3.6c1.3,1.7,2.6,3.2,4.3,4.4c15.1,11.5,32.1,16.1,50.9,14c1.7-0.2,3.5-0.4,5.2-0.8c2.1-0.6,3.8-1.6,5-3.2
			c0.4-0.6,0.8-1.3,1-2C152.5,275.8,152.8,275.4,153.2,274.6L153.2,274.6z M210.9,50.6c-0.4,1.6-1.1,3.2-1.5,4.8
			c-0.3,1.2-1.3,1.5-2.3,1.7c-4.4,1.2-8.9,1.9-13.5,1.8c-5.6-0.1-11.2,0.4-16.6-1.3c-9.3-2.8-17.9-6.8-25.8-12.5
			c-1.7-1.2-3.1-2.7-4.6-4.1c-1.1-1.1-1.4-2.2-1-3.6c0.5-1.6,1-3.2,1.5-4.8c0.3-0.8,0.5-1.7,0.8-2.5c19.8,10.6,40.6,17.1,63.4,17.7
			C211.3,48.9,211.1,49.8,210.9,50.6L210.9,50.6z M147.5,15.5c4.3-1.3,8.7-1.4,13.2-0.9c12,1.3,23.5,4.6,34.7,8.7
			c7,2.6,14.1,5.3,20.7,9c1.3,0.8,2.6,1.6,3.8,2.6c0.8,0.7,1.5,1.5,2.1,2.4c0.6,0.9,0.8,1.6,0.8,2.3c0,0.4-0.2,0.8-0.4,1.2
			c-0.3,0.4-0.7,0.8-1.3,1.3c-2.2,1.6-4.6,2.3-7.2,2.5c-0.4,0-0.8,0.1-1.3,0.1c-0.1,0-0.1,0-0.2,0c-1.8,0.1-3.6,0-5.4,0
			c-11-0.1-21.7-2.4-32.1-6c-5.6-1.9-11.1-3.8-16.5-6.2c-4.6-2-8.7-4.8-12.4-8.1c-0.1-0.1-0.3-0.2-0.4-0.4
			C140.7,19.9,141.3,17.3,147.5,15.5L147.5,15.5z M94.6,248.7c0.9-3.4,1.6-6.8,2.7-10.2c4.3-13.3,7.2-26.9,10.9-40.3
			c1.9-6.9,3.7-13.7,5.6-20.6c0.1-0.3,0.2-0.6,0.3-0.9c2.9-9.8,3.7-10.9,12.6-15.9c1.4-0.8,2.6-1.6,4-2.4c8.4-5.1,8.4-15.5,4.9-21.6
			c-1.1-1.9-2.4-3.6-3.6-5.4c-0.8-1.2-1.6-2.4-2.3-3.7c-2.1-3.8-3-7.8-1.7-12.2c3.1-10.3,5.3-20.8,7.9-31.2
			c3.2-12.6,7.5-24.9,10.5-37.6c0.1-0.3,0.3-0.6,0.5-1.1c8.3,6,17,11.3,26.9,14.2c10,3,20.1,2.6,30.2,1.6c0.4,0.9,0.1,1.5,0,2
			c-4.3,15.2-8.1,30.5-11.5,46c-1.4,6.3-3.3,12.6-4.9,18.9c-0.8,3.1-2.7,5.2-5.5,6.7c-3.9,2.2-7.6,4.6-11.4,6.9
			c-4.9,3.1-6.7,7.9-7.9,13.1c-1.3,5.9,1.4,10.4,4.6,14.9c0.8,1.1,1.6,2.2,2.3,3.3c1.7,2.9,2.2,5.9,1.3,9.2
			c-2.1,8.6-4.8,17.1-7.3,25.6c-4.3,14.6-8.1,29.2-12.2,43.9c-1.1,3.9-2.5,7.7-3,11.7c-0.1,1.2-0.8,1.6-1.8,1.7
			c-1,0.1-2,0.2-3.4,0.3c0.2-2.6,1-4.6,1.6-6.7c3.2-10.1,6.3-20.3,8.9-30.6c1.2-4.8,1.1-9.6,0.1-14.4c-0.2-0.7-0.4-1.4-0.6-2.1
			c-1.1-3-2.3-4.3-4.2-4.3c-0.2,0-0.3,0-0.5,0.1c-0.9,0.1-2,0.6-3.3,1.2c-7.3,3.7-14.8,6.9-22.5,9.6c-2.5,0.9-5,1.9-7.4,3.1
			c-3.6,1.8-6.1,4.6-7.3,8.4c-2.3,7.5-4.5,15-6.8,22.5c-0.2,0.7-0.4,1.4-0.7,2.4c-2.1-0.8-3.8-2.1-5.5-3.3
			C94.1,250.8,94.4,249.8,94.6,248.7L94.6,248.7z M142.5,254.8c-1,2.9-2,5.9-2.7,8.9c-0.6,2.5-0.6,2.6-3.3,2.3
			c-6-0.5-11.8-1.8-17.6-3.4c-4.7-1.3-9.2-3.2-13.6-5.2c-1.4-0.6-1.7-1.4-1.3-2.9c1-3.7,2.1-7.4,3.3-11.1c1.1-3.3,2.2-6.6,3.3-9.8
			c1.4-4.3,4-7.4,8.2-9.1c2.6-1,5.1-2.2,7.7-3.2c7.6-3,15-6.2,22.2-10.4c1.5,2.1,2.1,4.4,2.2,6.8c0.2,4.1,0,8.2-1,12.3
			c-0.2,0.6-0.3,1.3-0.5,1.9c-0.6,2.2-1.2,4.4-1.8,6.6c-0.3,1-0.6,1.9-0.9,2.9C145.4,245.8,144,250.3,142.5,254.8L142.5,254.8z
			 M103.3,259.6c1.3,0.6,2.6,1.2,3.9,1.8c7.6,3.3,15.7,5.6,24.1,7.1c2.2,0.4,4.3,0.6,6.5,0.7c0.5,0,1.1,0,1.6,0
			c4.3,0,8.5-0.7,12.9-2c0,0,0.1,0,0.1,0c0,0,0,0.1,0,0.1c-0.3,3.4-1.7,6.2-2.9,9.1c-0.3,0.9-1.5,1.1-2.3,1.4
			c-3.3,1.3-6.9,1.4-10.4,1.7c-16.9,1.7-31.8-3.6-45.2-13.5c-2.2-1.6-4.9-3.6-5.2-6.3c-0.3-3,1.4-5.9,3-8.5c0.2-0.3,1.1,0.5,1.5,0.8
			C94.9,255,99,257.5,103.3,259.6L103.3,259.6z"/>
		<path class="st0" d="M144.5,138.1c3.3,2.7,7,5,9.7,8.5c1.7,2.2,3.4,2.1,5.6,0.2c2.1-1.7,3.7-3.9,5.3-6c1.3-1.9,2.9-3.4,4.9-4.6
			c2.2-1.4,4.2-3.1,6-4.9c3.1-3.1,4.4-7.1,5.1-10.7c0-5.6-2.3-8.7-7.1-9.9c-2.5-0.6-4.9-0.2-7.2,0.9c-2.2,1-4.4,1.9-6.4,3
			c-4.7,2.6-9.8,3.1-15,2.7c-2.2-0.2-4.3-0.6-6.4-0.7c-2.6-0.2-3.8,1.1-3.9,3.7c0,0.6,0.1,1.2,0.2,1.8
			C136.3,128.6,139.4,133.9,144.5,138.1L144.5,138.1z M137.6,120.8C137.6,120.8,137.6,120.7,137.6,120.8c0-0.2,0.1-0.3,0.1-0.4
			c0.1-0.1,0.2-0.1,0.3-0.2c0.8-0.4,1.6,0,2.4,0.1c7.5,1.3,14.8,0.7,21.6-3.1c1.7-0.9,3.5-1.7,5.3-2.6c0.3-0.2,0.6-0.3,1-0.5
			c0.4-0.2,0.9-0.4,1.3-0.5c2.4-0.7,4.8-0.6,6.6,1.1c0.1,0.1,0.2,0.2,0.3,0.3c1.9,2,2,4.7,1.1,7.2c-0.3,0.9-0.7,1.7-1.1,2.5
			c-1.7,3-4.1,5.4-7.1,7.3c-3.1,2-5.7,4.4-7.8,7.3c-0.2,0.3-0.5,0.7-0.7,1c-0.8,1.2-1.7,2.4-3.4,3.4c-0.1,0-0.1,0.1-0.2,0.1
			c-0.1-0.2-0.3-0.4-0.4-0.6c-2.4-3.5-6-5.4-9.3-7.6c-5.2-3.5-8.2-8.3-9.8-14.2C137.6,121.3,137.6,121,137.6,120.8L137.6,120.8z"/>
		<path class="st0" d="M147,223.8c-1.8,6.2-3.6,12.4-5.5,18.5c-1.9,6.1-3.9,12.2-6.1,18.2c-0.1,0.3-0.4,0.8,0.1,1.1
			c1.6-2,5.4-12.6,8.4-22.4c2.1-7.1,3.8-13.7,3.9-16.3C147.3,223.1,147.1,223.5,147,223.8L147,223.8z"/>
		<path class="st0" d="M204.9,51.5c2.6-0.2,2.7-0.3,3.7-1.9c-2.7,0.6-5.4,0.5-7.9,1.6C202.1,51.9,203.5,51.6,204.9,51.5z"/>
		<path class="st0" d="M174.4,115.9c-0.9,3.4-1.7,6.8-2.4,10.2C173.7,122.9,175.2,119.7,174.4,115.9z"/>
		<path class="st0" d="M169.6,120.2c0-0.2-0.3-0.6-0.5-0.7c-0.5-0.1-0.7,0.2-0.8,0.7c-0.5,2.2-1,4.5-1.5,6.7
			C168.5,125,169.2,122.7,169.6,120.2z"/>
		<path class="st0" d="M208,52.5c-2.6,0.7-5,0.6-7.4,1.9C204.5,54.7,206.5,54.3,208,52.5z"/>
		<path class="st0" d="M458.6,157.6c0.3,1.2,1.1,1.9,2.1,2.6c2.4,1.6,5.1,2.4,7.8,2.9c4.1,0.7,8.2,1.3,12.4,1.7
			c3.1,0.3,6.3,0.4,9.5,0.4c3.4-0.1,6.9-0.3,10.5-0.6c4.5-0.4,9.2-1,13.7-1.8c3-0.5,5.9-1.1,8.7-1.7c0.1,0,0.2-0.1,0.3-0.1
			c7.9-1.8,15.4-4.5,22.7-7.9c3.1-1.5,4.6-3.9,4.7-7.2c0-0.2,0-0.4,0-0.5c0-0.6,0-1.3-0.1-1.9c-0.1-1.9-0.3-3.9-0.2-5.8
			c0.3-3.7-1.3-6.3-4-8.5c-0.7-0.6-1.4-1.2-2.2-1.7c-2.9-1.9-5.2-4.3-7.4-6.9c-5.4-6.4-10.5-13-14.8-20.2c-5-8.3-7.8-17.3-9.6-26.6
			c-0.6-2.8-0.7-5.7-0.7-8.6c0-2.6,0.5-5.1,2.2-7.2c0.9-1,1.3-2.3,1.7-3.6c3.1-9.5-1.8-23.4-14.1-27.1c-3.9-1.2-8-1.7-11.9-0.2
			c-10.4,4.2-16.2,13.5-16,24.6c0.1,4,1.6,7.5,4.5,10.2c1.1,1,1.9,2.2,2.3,3.5c1.6,4.8,2.6,9.8,2.7,14.9c0,1.6,0,3.3-0.1,4.9
			c-0.5,6.9-2.3,13.6-4.6,20.3c-3.4,10.1-9,18.8-15.4,27.2c-0.5,0.7-1.1,1.4-1.7,2.1c-1.2,1.5-2.2,3-2.8,4.8
			c-0.2,0.5-0.3,0.9-0.4,1.4c-0.8,2.6-1.1,5.3-1.1,7.9C457.3,151.6,457.7,154.6,458.6,157.6L458.6,157.6z M483.1,60.2
			c-0.5-0.3-1-0.6-1.5-1c-1.8-1.4-3.1-3.2-3.6-5.2c-0.2-0.6-0.2-1.2-0.3-1.9c-0.3-7.7,2-14.4,8.7-19.1c7.1-4.9,16.9-3.6,22.1,3.4
			c0.3,0.3,0.5,0.7,0.7,1.1c1.3,1.9,2.3,3.9,2.9,6.1c0.8,2.8,0.9,5.8,0.1,8.9c-0.5,1.9-1.3,3.5-2.8,4.7c-4.4,3.9-9.5,6.1-15.4,6.2
			C490,63.4,486.4,62.3,483.1,60.2z M462.3,139.2c1.6-2.4,3.4-4.6,5.2-6.9c7.3-9.7,13-20.1,16.2-31.8c1.7-6.3,3-12.7,3-19.2
			c0-3.5-0.4-7-1.1-10.5c-0.2-1.1-0.5-2.2-0.9-3.3c-0.1-0.4-0.5-0.9,0-1.7c8.2,2.6,16.1,1.9,23.9-3c-0.1,1.8-0.2,3.6-0.1,5.3
			c0.1,2.8,0.4,5.5,1,8.2c2.1,9.2,5,18.1,10.1,26.2c4,6.4,8.2,12.7,12.9,18.5c3.2,4,6.5,7.8,10.9,10.4c0.5,0.3,1,0.7,1.5,1.1
			c1.3,1.1,1.4,1.8,0.2,3c-0.9,1-2.1,1.6-3.3,2.2c-2.9,1.5-5.8,2.7-8.9,3.6c-15.5,4.6-31.3,7.3-47.6,7.5c-7.2,0.1-14.1-1.7-21-3.7
			C461,144.1,460.4,142.2,462.3,139.2L462.3,139.2z M461.3,147.2c3.3,0.8,6.7,1.6,10,2.4c5.3,1.3,10.8,1.8,16.3,1.6
			c14.8-0.3,29.4-2.3,43.7-6.3c5.5-1.5,10.7-3.6,15.9-7.1c0.2,2.6,0.3,4.9,0.5,7c0,0.2,0,0.4,0.1,0.5c0.2,1.9-0.7,3.2-2.1,4.2
			c-0.8,0.6-1.7,1.1-2.7,1.5c-8.6,3.3-17.1,6.6-26.3,7.9c-9.1,1.4-18.2,2.7-27.4,3c-2.6,0.1-5.3,0.1-7.9-0.1
			c-1.3-0.1-2.6-0.2-3.8-0.3c-2.4-0.3-4.7-0.6-7-1.1c-2.6-0.6-5-1.8-7.4-3c-1.2-0.6-1.8-1.5-2-2.9c-0.1-0.5-0.1-1-0.2-1.5
			C460.7,151.3,460.7,149.3,461.3,147.2L461.3,147.2z"/>
		<path class="st0" d="M540.9,134.2c-10.8-6.3-17.8-15.9-24.2-26.2C519.4,117.8,534.3,133.7,540.9,134.2z"/>
		<path class="st0" d="M506.9,42.2c-0.7-2.1-1.5-4.3-3.5-5.7c-0.5-0.4-1-0.8-1.8,0.2c2.5,2.2,3.5,5,4.1,8.2c0.6,3.2-0.6,6.1-1.5,9.1
			c-0.1,0.2-0.1,0.4-0.2,0.6c1-0.5,1.8-1.3,2.4-2.3C508,49.6,507.9,45.3,506.9,42.2L506.9,42.2z"/>
		<path class="st0" d="M525.9,153.8c-1.4,0.3-1.4,0.4-2.6,1.3c7.2-0.3,20.5-5.6,23.2-9.3c-0.7-0.2-1.2,0.1-1.7,0.5
			c-2.1,1.6-4.4,2.6-6.8,3.6C534,151.6,530,152.8,525.9,153.8L525.9,153.8z"/>
		<path class="st0" d="M534.8,136.5c-3.2-2.4-5.8-5-8.6-7.3C528.2,133.1,532,136.3,534.8,136.5z"/>
		<path class="st0" d="M545.5,142.6c-0.1-0.2-0.3-0.5-0.4-0.7c-3,1.6-6,3.1-9.1,4.7c0.1,0.2,0.2,0.4,0.3,0.6
			C539.6,145.9,542.9,144.9,545.5,142.6L545.5,142.6z"/>
		<path class="st0" d="M501.8,50.4c1.5-2.8,1.3-4.7-0.7-5.6C501.2,46.7,502,48.5,501.8,50.4z"/>
		<path class="st0" d="M243,186c1.1,1.6,2.2,3.1,3.4,4.7c1.7,2.3,3.3,4.5,5,6.8c7.9,10.5,15.2,21.4,22.4,32.4c2,3,4.4,3.6,8,2.5
			c0.7-0.2,1.3-0.6,2-0.9c8.9-4.9,18.3-8.6,27.4-13c2.8-1.3,5.6-2.7,8.5-4c0.9-0.4,1.7-0.8,2.6-1.2c5-2.3,10-4.6,15-7
			c0.5-0.2,1-0.5,1.5-0.7c3.3-1.6,6.6-3.3,9.9-5c1.8-1,3.7-1.7,5.6-2.5c12.3-5.2,24.5-10.4,36.5-16.2c5.6-2.8,11.3-5.5,17.2-7.9
			c6.7-2.7,13.1-6.1,19.6-9.3c1.3-0.7,2.5-1.4,3.1-2.9c1.4-4.1,2.1-8.4,2.8-12.7c0.2-2-0.7-3.6-1.9-5.1c-7.4-9-13.8-18.8-20.4-28.5
			c-7.8-11.3-15.3-22.8-23.4-33.9c-0.9-1.2-1.7-2.3-2.8-3.3c-1.5-1.3-3-1.7-4.9-0.9c-1.6,0.7-3.3,1.3-4.9,1.9
			c-15.6,6.4-30.8,13.5-46.3,20c-19.4,8.1-38.5,17.1-57.7,25.7c-11.1,5-21.8,10.8-33.2,15.2c-1.3,0.5-2.5,1.4-3.8,2.1
			c-0.9,0.6-1.6,1.3-1.8,2.4c-0.7,2.7-1.5,5.4-2.1,8.1c-2.1,10.1-2,10.4,3.5,19.2C236.7,176.8,239.8,181.4,243,186L243,186z
			 M430,149.6c0,0.1,0,0.1,0,0.2c-0.6,3.6-1.8,6.9-2.8,10.1c-0.4,1.2-1.4,1.8-2.4,2.2c-4.9,2.3-9.5,5.1-14.5,7.2
			c0,0.1,0,0.3-0.1,0.4c0-0.1,0-0.2,0-0.4c-1,0.4-1.9,0.8-2.9,1.2c-2.9,1.1-5.8,2.3-8.6,3.6v1c-0.2,0-0.4,0-0.7,0
			c-0.1-0.2-0.1-0.4-0.2-0.6c-2.2,1-4.4,2.1-6.5,3.2c-0.1,0.9-0.1,1.8-0.2,2.7c-0.2-0.5-0.3-1.4-0.5-2.4c-0.2,0.1-0.4,0.2-0.6,0.3
			c-1.9,0.9-3.9,1.9-5.8,2.8c-0.1,0.4-0.2,0.8-0.3,1.1c0-0.3-0.1-0.6-0.1-0.9c-1.9,0.9-3.7,1.7-5.6,2.6c0,0.3,0,0.7-0.1,1
			c-0.1-0.2-0.2-0.5-0.3-0.8c-1.7,0.8-3.4,1.5-5.1,2.3c0,0.4,0,0.7,0.1,1.1c-0.2-0.3-0.3-0.6-0.4-0.9c-1.5,0.7-3,1.3-4.6,2
			c0,0.3-0.1,0.7-0.1,1c-0.1-0.3-0.1-0.6-0.1-0.9c-1.8,0.8-3.6,1.6-5.5,2.4c0,0.5,0,1.1,0,1.6c-0.2-0.3-0.4-0.8-0.5-1.4
			c-2.1,0.9-4.3,1.9-6.4,2.8c-0.1,0.8-0.3,1.6-0.5,2.4c-0.2-0.6-0.3-1.3-0.4-2c-0.6,0.3-1.2,0.5-1.9,0.8c-1.4,0.6-2.8,1.2-4.1,1.8
			c-0.2,0.6-0.5,1.3-0.9,1.9c0-0.5,0-1,0.1-1.5c-0.1,0.1-0.3,0.1-0.4,0.2c-1.8,1-3.7,1.9-5.6,2.8c-0.1,0.3-0.1,0.5-0.2,0.8
			c0-0.2,0-0.5,0-0.7c-1.9,0.9-3.8,1.9-5.7,2.8c0,0.1,0,0.2-0.1,0.3c0-0.1,0-0.2-0.1-0.2c-1.8,0.9-3.6,1.8-5.4,2.6
			c0,0.1-0.1,0.2-0.1,0.4c0-0.1,0-0.2,0-0.3c-1.7,0.8-3.5,1.7-5.2,2.5c-0.2,0.5-0.3,1.1-0.5,1.6c-0.3,0-0.6-0.1-0.8-0.1
			c0-0.3,0.1-0.6,0.1-0.9c-2.3,1.1-4.7,2.2-7,3.3c0,0.1-0.1,0.2-0.1,0.3c0-0.1,0-0.2,0-0.3c-1.9,0.9-3.8,1.8-5.7,2.6
			c-0.1,0.3-0.1,0.5-0.2,0.8c-0.1-0.2-0.2-0.4-0.3-0.6c-2.1,1-4.2,1.9-6.3,2.9c-0.1,0.6-0.2,1.2-0.4,1.8c-0.1-0.4-0.2-0.9-0.2-1.5
			c-1.9,0.9-3.9,1.8-5.8,2.6c0,0,0,0.1,0,0.1c0,0,0-0.1,0-0.1c-1,0.5-2,0.9-3.1,1.4c-1.3,0.6-2.5,1.2-3.8,1.8c0,0.2-0.1,0.4-0.1,0.7
			c-0.2,0-0.4-0.1-0.7-0.1c0-0.1,0-0.1,0-0.2c-1.8,0.9-3.5,1.8-5.2,2.8c-0.1,0.3-0.1,0.5-0.2,0.8c-0.2,0-0.4,0-0.6,0
			c0-0.1,0-0.2-0.1-0.3c-0.1,0.1-0.3,0.1-0.4,0.2c-1,0.5-1.9,1.3-3.4,1.2c0.9-3.1,0.7-6.2,0.8-9.3c0-1.2,0.6-1.9,1.8-2.6
			c1-0.6,2-1.1,3-1.6c0.1-0.6,0.2-1.2,0.4-1.8c0.1-0.4,0.3-0.8,0.8-0.8c0.5,0,0.7,0.4,0.6,0.9c-0.1,0.3-0.1,0.5-0.2,0.7
			c1.3-0.7,2.6-1.4,4-2.1c0.1-0.4,0.2-0.9,0.3-1.3c0.3,0.1,0.7,0.1,1.1,0.2c0,0.2-0.1,0.4-0.1,0.5c2.3-1.2,4.6-2.3,6.9-3.5
			c0.2-0.3,0.4-0.6,0.7-0.9c0,0.2-0.1,0.4-0.1,0.6c1.8-0.9,3.7-1.8,5.5-2.7c0.2-0.5,0.4-0.9,0.6-1.2c0.3,0.3,0.4,0.5,0.4,0.7
			c1.6-0.8,3.2-1.6,4.9-2.3c0.1-0.3,0.1-0.7,0.2-1c0.1-0.9,0.3-1.9,1.7-1.6c-0.2,0.6-0.3,1.3-0.4,1.9c2-0.9,4-1.9,6-2.8
			c0.1-0.3,0.3-0.7,0.4-1c0,0.3-0.1,0.6-0.1,0.9c2.2-1,4.3-2,6.5-3c0.1-0.5,0.2-1,0.2-1.5c0.1-0.7,0.5-1.3,1.6-1.5
			c-0.2,0.8-0.4,1.6-0.5,2.4c1.5-0.7,3.1-1.4,4.7-2.2c0.2-0.7,0.4-1.3,0.7-1.9c0,0.6,0,1.1-0.1,1.7c0.1,0,0.1-0.1,0.2-0.1
			c1.8-0.9,3.7-1.7,5.6-2.5c0.2-0.3,0.4-0.6,0.7-0.7c0,0.2-0.1,0.3-0.1,0.5c1.5-0.6,3-1.2,4.5-1.9c0.1-0.6,0.2-1.2,0.3-1.7
			c0.1,0.5,0.1,1,0.1,1.6c1.7-0.7,3.4-1.4,5.1-2.1c0.2-0.7,0.3-1.4,0.6-2.1c0.2,0.6,0.4,1.1,0.4,1.7c2.2-0.9,4.5-1.9,6.7-2.9
			c0.1-0.2,0.2-0.4,0.4-0.5c0,0.1,0,0.3-0.1,0.4c0,0,0.1,0,0.1,0c1.7-0.8,3.5-1.6,5.2-2.4c0.2-0.8,0.4-1.6,0.6-2.2
			c0,0.6,0,1.3,0,1.9c1.7-0.8,3.4-1.5,5.1-2.3c0.1-0.7,0.3-1.3,0.4-2c0.3,0,0.6,0.1,0.9,0.1c0,0.4-0.1,0.9-0.1,1.3
			c1.1-0.5,2.2-1,3.2-1.5c0.1-0.4,0.2-0.8,0.4-1.2c0.1,0.3,0.1,0.6,0.1,1c1.7-0.8,3.4-1.5,5-2.3c0.1-0.7,0.3-1.3,0.5-1.9
			c0.3,0.5,0.4,0.9,0.5,1.4c1.8-0.8,3.5-1.6,5.3-2.4c0.1-0.5,0.1-1,0.2-1.5c0.1,0.3,0.2,0.7,0.3,1.3c2-0.9,3.9-1.8,5.8-2.7
			c0.1-1.3,0.3-2.4,0.5-2.9c0.1,0.8,0.2,1.7,0.3,2.5c2.3-1.1,4.7-2.2,7-3.3c0.1-0.6,0.3-1.2,0.4-1.9v1.6c1.7-0.8,3.3-1.6,5-2.4
			c0-0.5,0.1-0.9,0.1-1.4c0.1,0.3,0.2,0.7,0.3,1.2c1.1-0.5,2.2-1.1,3.3-1.6c0.9-0.4,1.8-0.9,2.7-1.3c0.1-0.7,0.3-1.3,0.4-1.7
			c0.1,0.4,0.2,0.8,0.3,1.4c2.1-1,4.3-2,6.4-3c0-0.5,0.1-1.1,0.1-1.6c0.2,0,0.4,0,0.7,0c0.1,0.3,0.1,0.7,0.2,1.2
			c1.4-0.6,2.8-1.3,4.2-1.9c0.1-0.6,0.1-1.2,0.2-1.9c0.2,0.4,0.3,0.9,0.4,1.6c1.4-0.7,2.9-1.3,4.3-2c0.7-0.3,1.4-0.8,2.6-0.7
			C429.9,149.6,429.9,149.6,430,149.6L430,149.6z M239.3,142.9c5.2-2.1,10.3-4.3,15.3-6.8c10.2-5,20.5-9.9,30.9-14.6
			c7-3.2,14.1-6.3,21.2-9.4c8.3-3.6,16.6-7.2,24.9-10.8c12.9-5.6,25.8-11.1,38.8-16.5c2.3-0.9,4.5-2,6.7-3c1-0.5,2.1-0.9,3.2-1.3
			c0.9-0.3,1.6-0.4,2.2-0.1c0.4,0.2,0.8,0.6,1.2,1.1c0.5,0.7,0.9,1.3,1.4,2c2.6,3.6,5.3,7.2,7.8,10.8c10.3,14.7,20.5,29.5,30.7,44.3
			c1.4,2.1,3,4,4.6,6c0.4,0.5,0.8,0.9,1.2,1.4c-0.2,0.1-0.3,0.1-0.4,0.2c-13.8,6.5-27.4,13-41,19.4c-0.3,0.2-0.7,0.3-1,0.5
			c-7.7,3.6-15.4,7.2-23.1,10.8c-2.9,1.4-5.8,2.6-8.8,3.9c-1.7,0.7-3.4,1.5-5.2,2.2c-2.8,1.2-5.7,2.4-8.6,3.5
			c-10.7,4.3-21.1,9.4-31.5,14.5c-5.9,2.9-12.2,5.2-17.9,8.5c-3.2,1.9-6.5,3.6-9.7,5.4c-1.3,0.7-2.2,0.8-3-0.7
			c-6.1-11.4-14.6-21.2-21.6-32c-0.1-0.1-0.2-0.2-0.2-0.4c-0.4-0.6-0.8-1.2-1.2-1.8c-6.6-10.2-12.9-20.5-19.1-30.9
			c-0.6-1-1.1-1.8-1.4-2.5C235,144.8,235.8,144.3,239.3,142.9L239.3,142.9z M232.3,160.5c0.2-3.4,0.4-6.8,1.6-10
			c1.1,0.1,1.3,1,1.7,1.7c10.6,17.6,21.8,34.8,33.6,51.7c3.1,4.4,5.8,9.1,8.7,13.6c0.6,0.9,0.5,1.7,0.4,2.6
			c-0.4,2.7-0.8,5.5-1.3,8.6c0,0,0,0,0,0.1c-1.1-0.6-1.6-1.4-2.1-2.2c-0.1-0.2-0.2-0.3-0.3-0.5c-8.7-12.5-17.1-25.1-26.1-37.4
			c-5.3-7.4-10.3-15-14.8-22.9C232.6,164.1,232.2,162.4,232.3,160.5L232.3,160.5z"/>
		<path class="st0" d="M348.4,170.5c-1.3-2.2-2.7-4.4-4.1-6.5c-9.9-14.6-19.8-29.2-29.7-43.8c-0.4-0.5-0.7-1-1.1-1.5
			c-0.6-0.6-1.3-1.1-2.2-0.5c-0.7,0.5-0.7,1.2-0.4,2c0.6,1.4,1.4,2.7,2.3,4c3.3,4.8,6.5,9.5,9.8,14.3c7.5,11,15,22,22.5,33
			c0.6,0.8,1.3,1.6,2,2.4c0.4,0.4,0.9,0.4,1.4,0.1c0.3-0.3,0.5-0.7,0.4-1.3C349.1,172,348.8,171.2,348.4,170.5L348.4,170.5z"/>
		<path class="st0" d="M288.5,156.8c-1.8,0.5-3,2.3-2.6,4.3c0.1,0.6,0.3,1.2,0.6,1.7c0.8,2,1.8,2.6,3.8,2.2c1.9-0.4,3-1.8,3-4
			c-0.1-0.4-0.2-1.1-0.5-1.8C291.9,157.1,290.4,156.3,288.5,156.8L288.5,156.8z"/>
		<path class="st0" d="M335.7,120.6c1.6,0,2.7-1.1,2.7-2.7c0-2.5-1.6-4.4-3.5-4.3c-1.7,0.1-2.7,1.4-2.6,3.5
			C332.4,119.3,333.6,120.6,335.7,120.6L335.7,120.6z"/>
		<path class="st0" d="M371.5,126.4c-1.6-0.1-2.9,1-3.1,2.7c-0.2,1.8,1.3,4,2.9,4.1c1.5,0.2,2.9-1.2,3.1-3.1
			C374.6,128.4,373.2,126.6,371.5,126.4z"/>
		<path class="st0" d="M407,143.7c1.5,0.1,2.7-1.2,2.7-3c0-1.8-0.9-3-2.3-3.1c-1.6-0.1-3,1.4-3,3.1
			C404.4,142.3,405.6,143.6,407,143.7z"/>
		<path class="st0" d="M381.4,91.8c-9,1.5-37.3,11.6-40.2,14.2C354.4,100.7,368,96.6,381.4,91.8z"/>
		<path class="st0" d="M327.6,193.3c-1.1,0.2-1.5,0.8-1.6,1.5c-0.1,0.5-0.2,1-0.2,1.5c-0.7,4.3-1.4,8.6-2.1,12.9
			c0,0.3-0.1,0.6-0.1,0.9c0.3,0,0.6,0.1,0.8,0.1c0.2-0.5,0.4-1.1,0.5-1.6c1.2-4.2,1.4-8.6,2.2-13C327.2,195,327.4,194.2,327.6,193.3
			L327.6,193.3z"/>
		<path class="st0" d="M287.6,214.4c0.1-0.4-0.1-0.8-0.6-0.9c-0.5,0-0.7,0.3-0.8,0.8c-0.1,0.6-0.2,1.2-0.4,1.8
			c-0.5,2.1-0.9,4.2-1.3,6.4c-0.3,1.9-1.1,3.8-0.6,5.8c0,0.1,0,0.2,0.1,0.3c0.2,0,0.4,0,0.6,0c0.1-0.3,0.1-0.5,0.2-0.8
			c0.9-4.2,1.8-8.4,2.6-12.6C287.5,214.8,287.5,214.6,287.6,214.4L287.6,214.4z"/>
		<path class="st0" d="M313.4,200.4c-1.4-0.3-1.6,0.7-1.7,1.6c-0.1,0.3-0.1,0.7-0.2,1c-0.6,4-1.1,8.1-1.2,12.2c0,0.1,0,0.2,0,0.3
			c0.1,0.2,0.2,0.4,0.3,0.6c0.1-0.3,0.1-0.5,0.2-0.8c1.1-4.3,1.3-8.6,2.1-12.9C313.1,201.7,313.2,201.1,313.4,200.4L313.4,200.4z"/>
		<path class="st0" d="M349.7,186c-0.1-0.6-0.2-1.1-0.4-1.7c-0.2,0.7-0.4,1.4-0.6,2.1c-0.9,3.6-1.1,7.4-1.2,11.1c0,0.5,0,1-0.1,1.5
			c0.4-0.6,0.7-1.2,0.9-1.9c0.6-1.7,0.6-3.6,0.8-5.4C349.3,189.8,349.9,187.9,349.7,186L349.7,186z"/>
		<path class="st0" d="M306.7,205.4c0-0.2-0.1-0.5-0.4-0.7c-0.2,0.3-0.4,0.7-0.6,1.2c-1.3,3.1-2.4,9.4-2.2,12.8
			c0,0.6,0.1,1.1,0.2,1.5c0.1-0.6,0.2-1.2,0.4-1.8c0.9-4.3,1.7-8.4,2.5-12.4C306.6,205.8,306.7,205.6,306.7,205.4z"/>
		<path class="st0" d="M319.4,198.6c-0.2,0.3-0.3,0.7-0.4,1c-1.7,4.2-2.1,8.6-2.4,13.1c0,0.1,0,0.2,0,0.3c0-0.1,0.1-0.2,0.1-0.3
			c1.6-4.3,2.1-8.7,2.7-13.2C319.3,199.1,319.3,198.8,319.4,198.6L319.4,198.6z"/>
		<path class="st0" d="M338.8,190.1c-0.2,0.2-0.4,0.4-0.7,0.7c-1.8,2.6-3.3,9.4-2.6,12.8c0,0.1,0,0.2,0.1,0.2c0-0.1,0-0.2,0.1-0.3
			c1-4.3,2-8.6,3-13C338.7,190.4,338.7,190.2,338.8,190.1L338.8,190.1z"/>
		<path class="st0" d="M391.1,167.4c-0.1-0.8-0.2-1.7-0.3-2.5c-0.2,0.5-0.4,1.5-0.5,2.9c-0.2,3-0.1,7.4,0.2,10.4
			c0.1,1,0.3,1.9,0.5,2.4c0.1-0.9,0.1-1.8,0.2-2.7C391.5,174.4,391.5,170.9,391.1,167.4L391.1,167.4z"/>
		<path class="st0" d="M332.4,191.7c-0.3,0.6-0.5,1.3-0.7,1.9c-1.3,4.1-1.5,8.3-1.6,12.6c0,0.1,0,0.2,0,0.3c0-0.1,0.1-0.2,0.1-0.4
			c1.2-4.2,1.9-8.5,2.2-12.9C332.4,192.8,332.4,192.2,332.4,191.7L332.4,191.7z"/>
		<path class="st0" d="M356.7,182.7c-0.1,0.2-0.2,0.3-0.4,0.5c-1.5,2.5-2.4,7.7-2.1,11.3c0.1,0.8,0.2,1.4,0.4,2
			c0.2-0.8,0.3-1.6,0.5-2.4c0.7-3.7,1-7.2,1.5-11.1C356.7,182.9,356.7,182.8,356.7,182.7L356.7,182.7z"/>
		<path class="st0" d="M343.6,188.5c0-0.5,0-1-0.1-1.6c-0.1,0.6-0.2,1.2-0.3,1.7c-0.8,4-1.9,7.9-1.8,12c0,0.2,0,0.5,0,0.7
			c0.1-0.3,0.1-0.5,0.2-0.8C342.5,196.6,343.7,192.6,343.6,188.5L343.6,188.5z"/>
		<path class="st0" d="M300.2,208c-0.2,0.2-0.4,0.5-0.7,0.9c-1.7,2.8-2.8,8.8-2,12.4c0,0,0,0.1,0,0.1c0,0,0-0.1,0-0.1
			c0.8-4.1,1.6-8.2,2.5-12.7C300.1,208.4,300.2,208.2,300.2,208L300.2,208z"/>
		<path class="st0" d="M398.6,162.3c-0.2,0.6-0.3,1.2-0.4,1.9c-0.8,3.5-1.2,7.1-0.4,10.6c0,0.2,0.1,0.4,0.2,0.6c0.2,0,0.4,0,0.7,0
			V162.3L398.6,162.3z"/>
		<path class="st0" d="M387.3,97.8c-4.9,2.1-9.8,4-14.7,6.2C377.9,102.8,382.8,100.9,387.3,97.8z"/>
		<path class="st0" d="M292.7,211.8c-0.3-0.1-0.7-0.1-1.1-0.2c-0.1,0.4-0.2,0.9-0.3,1.3c-0.9,3.9-1.5,7.8-1.4,11.9
			c0,0.1,0,0.1,0,0.2c0.2,0,0.4,0.1,0.7,0.1c0-0.2,0.1-0.4,0.1-0.7c0.6-4.1,1.3-8.1,1.9-12.2C292.7,212.2,292.7,212,292.7,211.8
			L292.7,211.8z"/>
		<path class="st0" d="M362.6,178.4c-0.2,0.7-0.4,1.4-0.6,2.2c-0.8,3.5-0.9,8.1-0.4,10.7c0.1,0.6,0.3,1.1,0.5,1.4c0-0.6,0-1.1,0-1.6
			c0-3.7,0.5-7.2,0.5-10.7C362.6,179.7,362.6,179.1,362.6,178.4z"/>
		<path class="st0" d="M369,176.2c-0.3,0-0.6-0.1-0.9-0.1c-0.2,0.7-0.3,1.3-0.4,2c-0.6,3.5-0.8,7.1-0.2,10.7c0,0.3,0.1,0.6,0.1,0.9
			c0-0.3,0.1-0.7,0.1-1c0.4-3.7,0.8-7.4,1.1-11.1C368.9,177.1,369,176.6,369,176.2L369,176.2z"/>
		<path class="st0" d="M410.8,158c-0.1-0.5-0.2-1-0.3-1.4c-0.2,0.4-0.3,1-0.4,1.7c-0.4,2.7-0.5,7.3,0.1,11.1c0,0.1,0,0.2,0,0.4
			c0-0.1,0-0.3,0.1-0.4C411,165.2,411.2,160.7,410.8,158L410.8,158z"/>
		<path class="st0" d="M372.6,175.9c0-0.3-0.1-0.6-0.1-1c-0.1,0.4-0.2,0.8-0.4,1.2c-0.9,3.5-0.9,7.8,0.2,10.6
			c0.1,0.3,0.3,0.7,0.4,0.9c0-0.4,0-0.7-0.1-1.1C372.6,182.7,373,179.3,372.6,175.9L372.6,175.9z"/>
		<path class="st0" d="M378.4,178.4c-0.1-1.7,0.7-3.4,0.3-5.2c-0.1-0.5-0.2-0.9-0.5-1.4c-0.2,0.5-0.4,1.2-0.5,1.9
			c-0.7,3.3-0.6,8.1,0.2,10.6c0.1,0.3,0.2,0.6,0.3,0.8c0-0.3,0-0.7,0.1-1C378.3,182,378.5,180.2,378.4,178.4L378.4,178.4z"/>
		<path class="st0" d="M384.5,170.5c-0.1-0.5-0.2-1-0.3-1.3c-0.1,0.5-0.2,1-0.2,1.5c-0.5,3.6-0.4,7.1-0.1,10.7
			c0,0.3,0.1,0.6,0.1,0.9c0.1-0.3,0.2-0.7,0.3-1.1C384.7,178.4,384.9,173.1,384.5,170.5L384.5,170.5z"/>
		<path class="st0" d="M418.1,154.6c0-0.5-0.1-0.9-0.2-1.2c-0.2,0-0.4,0-0.7,0c0,0.5-0.1,1.1-0.1,1.6c-0.2,3.3-0.4,6.6-0.6,10
			C417.7,163.1,418.3,157.4,418.1,154.6z"/>
		<path class="st0" d="M422.3,161.8c0.7-2.8,0.9-6.9,0.6-9.4c-0.1-0.7-0.2-1.2-0.4-1.6c-0.1,0.6-0.2,1.3-0.2,1.9
			C422,155.9,421.9,158.8,422.3,161.8z"/>
		<path class="st0" d="M403.7,171.8c0.7-2.4,0.7-7.7,0.3-10.5c-0.1-0.5-0.2-0.9-0.3-1.2c-0.1,0.5-0.1,0.9-0.1,1.4
			C403.3,165,403.4,168.4,403.7,171.8z"/>
		<path class="st0" d="M387.5,109.3c2.1-1,4.4-1.7,6.4-3.6C391.1,106.3,389,107.4,387.5,109.3z"/>
		<path class="st0" d="M565.2,41.1c3.1,15.3,5.7,30.7,8.7,46c3,15.2,5.7,30.5,8.2,45.7c2,12.4,4.6,24.8,6.5,37.2
			c2,12.6,2.9,25.5,5.8,38c2.2,9.2,3.8,18.6,5.3,28c1.2,7.8,2.3,15.5,4.2,23.1c2.3,8.7,7.6,14,16.3,16c1.5,0.3,2,1.1,2.3,2.4
			c0.3,1.5,0.7,3,1.1,4.5c0.3,0.9,0.9,1.4,1.8,1.3c1-0.2,1.4-0.9,1.3-1.8c-0.2-1.7-0.3-3.5-0.8-5.2c-0.4-1.5-0.1-2.5,1.1-3.4
			c3-2.4,4.9-5.6,5.7-9.3c0.9-4,1.2-8,0.6-12c-1.5-9.3-2.9-18.6-4.7-27.8c-1.9-10.1-4.2-20.2-6.4-30.3c-3.3-15.2-5.9-30.6-8.6-45.9
			c-0.8-4.3-1.6-8.6-2.4-12.9c-0.2-1.2-0.5-2.4-0.7-3.6c-3.5-17.7-6.1-35.6-9.4-53.4c-2.9-15.7-5.7-31.5-7.6-47.4
			c-0.3-2.1,0.3-3.6,1.7-5c1-1,2.2-1.8,3.6-2.4c3.4-1.4,5.8-0.6,7.6,2.6c2.6,4.6,3.5,9.6,3.1,14.9c-0.8,9.5-2.6,18.8-3.6,28.3
			c-1.1,10.2-1.4,20.4,0.9,30.5c0.6,2.6,1.3,5.2,2.6,7.6c1.3,2.3,3,4.2,5.7,5c1.7,0.5,3.2,0.2,4.6-1c3.2-2.9,2.8-9.9-0.9-12.3
			c-0.8-0.5-1.6-0.9-2.6-0.6c-1.2,0.3-1.4,1-0.5,1.9c1.9,1.7,2.7,3.9,2.8,6.3c0,1-0.2,2.2-1.1,2.7c-1.1,0.6-1.9-0.3-2.7-0.9
			c-1-0.9-1.8-2-2.3-3.2c-0.9-1.9-1.4-3.9-1.8-5.9c-2.2-10.3-1.7-20.8-0.8-31.2c0.8-9.1,2.5-18,3.1-27.1c0.4-6.1-0.8-11.9-4.1-17.2
			c-1.9-3.1-4.7-4.1-8.2-3.6c-3,0.4-5.4,1.9-7.6,4.1c-1.1-2.1-2-4.4-4.3-5.2c-1.6-0.6-2.3-1.6-2.6-3.1c-0.4-1.5-0.9-3-1.3-4.4
			c-0.8-3-2.4-5.7-4.3-8.2c-2.4-3.1-5.6-3.5-8.7-1.2c-2,1.4-3.3,3.3-4,5.7c-1.1,3.9-0.9,7.8-0.3,11.7c0.1,0.9,0.5,1.8-0.5,2.5
			c-3.4,2.4-3.7,6-3.4,9.7C563.5,34.5,564.5,37.8,565.2,41.1L565.2,41.1z M610.8,154.7c1.1,1.5,0.9,3,1.2,4.4
			c2.6,14.9,5.7,29.6,8.9,44.4c2.2,10.2,3.7,20.5,5.7,30.8c1,5.3,2.1,10.5,2.9,15.8c0.7,4.3,0.6,8.6-0.3,12.9
			c-0.3,1.3-0.7,2.6-1.4,3.7c-2.6,4.3-5.3,5.5-9.2,4c-0.6-0.2-1.2-0.5-1.9-0.9c-5.3-2.8-8.4-7.4-9.9-13.2c-1.9-7.6-2.6-15.5-4-23.2
			c-2.1-12.1-4.5-24.2-6.6-36.3c-1-6-1.5-12.1-2.4-18.1c-0.9-6.2-2-12.4-2.9-18.7c-0.1-0.5-0.1-1-0.1-1.9c5,1.5,9.7,2.4,13.9,0.9
			C606.8,158.6,608.9,157.1,610.8,154.7z M608.7,152.5c-1.3,1.5-3,2.7-4.8,3.5c-4.1,1.7-9,1.5-12.8-1c-1.9-1.3-1.5-3.2-1.9-5.3
			c5.8,2.5,9.6,3.6,13.7,1.4c2-1.1,4.1-3,6.4-5.9C610.6,147.8,610.8,150.1,608.7,152.5L608.7,152.5z M569.7,7.7
			c0.5-1.8,1.5-3.1,3-4.2c2.2-1.5,4.3-1.1,5.9,1.1c0.1,0.2,0.2,0.3,0.3,0.5c0.8,1.2,1.5,2.5,2,3.9c0.8,2.8,1.6,5.6,2.4,8.4
			c0.1,0.3,0.2,0.6,0.2,0.8c0.3,1.1,0.2,2-0.9,2.6c-3.2,1.6-6.6,2.4-10.2,1.6c-1.6-0.4-2.7-1.1-2.8-2.9c0-0.1,0-0.1,0-0.1
			c0-0.4,0-0.8-0.1-1.3c-0.1-1.7-0.4-3.5-0.6-5.2C568.9,11.1,569.2,9.4,569.7,7.7L569.7,7.7z M566.7,25.5c0.7-1,1.2-1.6,2.7-0.9
			c5.3,2.3,10.4,1.3,15.1-1.8c0,0,0.1,0,0.1-0.1c0.5-0.3,0.8-1,1.3-1.3c0.3-0.2,0.7-0.2,1.2,0.1c1.2,0.7,2,1.7,2.2,3.2
			c0.1,0.9,0.2,1.8,0.3,2.7c0.1,0.6,0.2,1.3,0.2,1.9c2,19,5.6,37.8,9,56.6c2.7,14.9,5.2,29.9,7.8,44.9c0.4,2,0.6,4.1,1.3,6.1
			c1.2,3.7-0.3,6.7-2.5,9.1c-1.1,1.2-2.1,2.1-3.2,2.7c-2.6,1.7-5.2,1.8-8.4,0.3c-0.8-0.3-1.5-0.6-2.3-0.9c-2.3-1-3.6-2.6-4.1-5.3
			c-2.7-15.5-5.5-30.9-8.3-46.4c-3.4-18.5-6.8-37-10.2-55.4c-0.8-4.4-2.4-8.6-2.4-12.5C566.4,27,566.2,26.2,566.7,25.5L566.7,25.5z"
			/>
		<path class="st0" d="M587.5,39.1c1.3,7.6,2.2,15.3,3.2,23c0.3,2.4,0.5,4.9,2.2,6.8c-2.4-13.9-2.7-28.1-6.8-42.3
			c-1,1.6-0.6,2.9-0.4,4C586.3,33.5,587,36.3,587.5,39.1L587.5,39.1z"/>
		<path class="st0" d="M625.1,267.2c1.2-0.5,1.6-1.4,1.6-2.3c0.2-3.4,0.9-6.8,0.5-10.2c-0.7-5.6-1.3-11.2-2.6-16.8
			c-0.6-2.4-0.8-5-2.1-7.3c0.2,6.1,1.8,11.9,2.6,17.9C626,254.7,625.7,260.8,625.1,267.2L625.1,267.2z"/>
		<path class="st0" d="M651.2,138c-0.8,1.4-1.3,2.9-1.6,4.2c-0.1,1.3,0.3,2.2,1,2.8c1,0.9,2,2,3.1,2.7c4.4,2.8,8.5,5.9,12.7,9
			c15.2,11,31,21.1,46.2,32c2.3,1.7,4.9,3,7.1,4.8c5.7,4.5,12.2,8,18,12.4c0.2,0.1,0.3,0.2,0.5,0.3c1.2,0.7,2.2,0.5,3.1-0.6
			c0.9-1.1,1.8-2.1,2.6-3.2c4.3-5.3,8.3-10.7,12.6-16c15.2-18.8,31-37,48.1-54.1c11.2-11.2,22.4-22.3,34-32.9
			c7.6-7,14.8-14.5,23.5-20.4c1.4-0.9,1.5-1.9,0.7-3.2c-1-1.5-1.9-3.1-3-4.5c-5.9-7.5-12.1-14.7-19.1-21.3
			c-7-6.6-14.3-12.9-22.2-18.5c-11-7.8-22.9-14.2-34.6-20.8c-3-1.7-6.2-3.3-9.5-4.5c-2.4-0.9-4.4-0.6-6.5,1
			C752.9,19,739.1,32,726.5,46.2c-13.1,14.7-26.1,29.5-38.8,44.6c-10.5,12.5-20.9,25-30.6,38.2C655,131.9,652.9,134.8,651.2,138
			L651.2,138z M698.1,84.5c11.1-12.8,22.2-25.6,33.5-38.3c6.9-7.7,14.3-14.9,22-21.8c2.6-2.4,5.3-4.7,7.9-7c0.5-0.4,1-0.9,1.5-1.3
			c2.5-2.2,5.4-4.1,8-6.3c1.2-1,2.2-0.9,3.4-0.3c2.7,1.4,5.5,2.8,8.1,4.3c11.3,6.3,22.6,12.6,33.1,20.1
			c11.3,8.1,21.7,17.2,31.2,27.5c3.9,4.3,7.7,8.8,11.2,13.4c1.5,2,1.5,2-0.5,3.4c-4.3,2.9-8.1,6.5-11.9,10
			c-6,5.5-12.3,10.7-18.1,16.4c-8.7,8.7-17.6,17.2-26.1,26c-13,13.4-25.6,27.2-37.2,41.7c-5,6.3-10.2,12.5-14.9,19
			c-2.7,3.8-5.9,7.2-8.5,11.1c-0.3,0.4-0.6,0.9-1.4,0.9c-0.5-0.3-1.1-0.7-1.7-1.2c-5.6-4.4-11.6-8.1-17.2-12.5
			c-7.4-5.7-15.1-10.9-22.9-16c-11.3-7.4-22.2-15.6-33.3-23.3c-2.5-1.8-5.1-3.4-7.6-5.2c-0.8-0.5-1.6-1.1-2.3-1.8
			c-1.7-1.6-1.7-1.7-0.4-3.7c3.8-6,8.3-11.5,12.5-17.2C676.4,109.4,687.4,97,698.1,84.5L698.1,84.5z"/>
		<path class="st0" d="M740.8,122.9c7.6-2.6,15.1-5.6,22.2-9.5c1.5-0.8,2.4-2,2.9-3.6c1-3.1,2.1-6.2,2.7-9.4
			c0.8-3.9,1.7-7.9,2.6-11.8c0.3-1.3,0.8-2.6,1.1-4c0.5-2.1-0.5-3-2.6-2.5c-0.7,0.2-1.4,0.4-2.1,0.7c-1.7,0.6-3.5,1.3-5.2,1.9
			c-0.4,0.1-0.7,0.3-1.1,0.4c-1,0.4-2,0.7-3,1.1c-4,1.6-8.1,3.2-12.1,4.9c-1.8,0.8-3.4,1.7-3.6,4c-0.9,7.4-3.1,14.5-4.6,21.7
			c-0.2,1.1-0.7,2.2-0.7,3.2C737.3,122.7,738.6,123.7,740.8,122.9L740.8,122.9z M743.4,110.3c1-4.7,1.8-9.4,2.1-14.1
			c0.1-1.3,0.4-2.2,1.7-2.6c1-0.3,2-0.8,3-1.1c5.9-2.2,11.9-4.4,17.7-6.5c0.5,0.5,0.3,0.9,0.2,1.3c-1.5,4.3-2.5,8.8-3.4,13.2
			c-0.7,3.2-2.5,6.1-2.6,9.4c0,0.7-0.7,1-1.3,1.3c-6.1,2.9-12.3,5.7-19.2,8C742.3,115.8,742.8,113,743.4,110.3L743.4,110.3z"/>
		<path class="st0" d="M728.5,183.8c1.3-1,2.6-2.1,4-3.2c0.6-0.5,1.3-1.3,2.2-0.8c1.1,0.6,2.1,1.3,3.2,2c0.1,0.1,0.1,0.4,0.1,0.7
			c-0.3,0.6-0.5,1.3-0.8,2c-0.7,1.4-1.2,2.9-1.5,4.5c-0.2,0.8,0.2,1.5,1,1.7c0.8,0.3,1.4-0.2,1.8-0.9c0.1-0.3,0.2-0.6,0.3-0.9
			c0.8-2.9,2.1-5.5,3.4-8.2c1.3-2.7,2.8-5.4,4.2-8.2c0.4-0.9,1-1.8,0.2-2.6c-0.8-0.8-1.8-0.4-2.7,0c-6.2,3.1-11.7,7.2-16.6,12
			c-0.1,0.1-0.1,0.2-0.2,0.2c-0.3,0.4-0.6,0.9-0.2,1.4C727.3,184.3,727.9,184.2,728.5,183.8L728.5,183.8z M741.9,173.9
			c-0.1,1.6-0.7,2.3-1.2,3.1c-1.4,2.3-1.4,2.3-4.2,0.6C738.1,176.2,739.9,175.3,741.9,173.9L741.9,173.9z"/>
		<path class="st0" d="M835.9,87.4c4.5-4,8.9-8.1,13.4-12.2c0.6-0.5,1.3-1,1.2-2.3c-7.3,6.6-14.5,12.8-21.1,19.6
			c0.1,0.2,0.3,0.3,0.4,0.4C832.1,91.4,833.8,89.2,835.9,87.4L835.9,87.4z"/>
		<path class="st0" d="M666.6,132.9c3.1-4,6.3-7.9,9.4-11.9c0.4-0.5,1.1-1,0.2-1.9c-5.4,7-11,13.5-15.8,20.8
			c0.2,0.2,0.4,0.3,0.5,0.5C662.8,137.9,664.7,135.3,666.6,132.9L666.6,132.9z"/>
		<path class="st0" d="M746.1,115.2c1.8-7.4,3.4-14.3,3.9-21.5C748.7,96.3,745.7,112.9,746.1,115.2z"/>
		<path class="st0" d="M753.5,110.3c0.6-2,0.5-4.2,0.9-6.2c0.4-2,0.7-4,0.8-6c0.1-1.9,1.4-3.9,0-6.6
			C754.2,98.2,752.8,104.1,753.5,110.3L753.5,110.3z"/>
		<path class="st0" d="M845.5,66.4c-4.2,3.6-7.6,6.9-10.8,10.5C837.2,75.7,844.1,69,845.5,66.4z"/>
		<path class="st0" d="M668.9,142.1c2.7-2.4,6.5-8,6.7-9.9C673.3,134.4,669.6,139.8,668.9,142.1z"/>
		<path class="st0" d="M761.1,99.1c1.3-2.9,1.1-6.1,1.5-9.1C761.1,92.9,761.5,96.1,761.1,99.1z"/>
		<path class="st0" d="M829.8,92.9c-0.1-0.2-0.3-0.3-0.4-0.4c-1.8,1.1-3,2.9-4.5,4.4C826.9,96.1,828.3,94.5,829.8,92.9L829.8,92.9z"
			/>
		<path class="st0" d="M675,147.9c1.4-1.5,2.2-3.1,2.5-4.6C676.1,144.4,675.1,145.8,675,147.9z"/>
		<path class="st0" d="M839.7,60c-0.2-0.2-0.4-0.3-0.5-0.5c-1.1,1.2-2.1,2.4-3.2,3.6c0.2,0.2,0.3,0.4,0.5,0.5
			C837.7,62.5,839.1,61.6,839.7,60L839.7,60z"/>
		<path class="st0" d="M636.7,43.1c2.4,2.1,4.8,4.2,7.4,6.2c1.3,1,1.4,2,0.4,3.3c-2.3,3.3-3.4,7.1-4.7,10.8
			c-0.7,2.1,0.3,3.3,2.5,2.7c1.1-0.3,2.1-0.8,3.2-1.3c2-1,4.1-2,6-3.1c1.2-0.7,2-0.6,2.9,0.4c2.3,2.5,5.1,4.6,8,6.3
			c1.3,0.7,2.5,1.6,4,0.6c1.6-1.2,1-2.7,0.6-4.2c-0.5-1.9-1.1-3.8-1.6-5.7c-1-3.5-1-3.5,2.4-5c3.3-1.4,6.7-2.7,10-4.1
			c1.1-0.5,2.5-0.8,2.5-2.3c0-1.4-1.4-1.6-2.3-2.2c-0.6-0.4-1.3-0.6-2-0.9c-3-1.2-5.9-2.6-9-3.2c-1.9-0.4-2.5-1.5-2.6-3.2
			c-0.1-2-0.2-3.9-0.3-5.5c0-1,0-1.6,0-2.2c0-0.7,0-1.4,0-2.2c0-1.4,0-2.7-0.5-4c-0.8-2-2.4-2.3-3.9-0.8c-0.3,0.3-0.5,0.6-0.8,1
			c-2.3,3.3-4.6,6.6-6.8,10c-2.2,3.6-2.2,3.6-6.3,3.2c-1-0.1-2-0.3-3-0.6c-1.2-0.3-2.5-0.4-3.7-0.3c-1.7,0.2-3.7,0-4.6,1.9
			C633.7,40.7,635.4,41.9,636.7,43.1L636.7,43.1z M642.9,40.8c1.3,0.3,2.7,0.3,4,0.3c3.3-0.2,6-0.9,7.5-4.6c1.1-2.8,3.2-5.3,4.9-7.9
			c0.4-0.6,0.7-1.2,1.7-1.5c0,1.7,0,3.2,0,4.7c0,0.2,0,0.3,0,0.5c0.2-0.1,0.4-0.2,0.6-0.3c-0.2,0.3-0.4,0.6-0.6,0.8
			c0,1.5,0.1,3.1,0.1,4.6c0.3-0.2,0.6-0.3,0.9-0.5c-0.2,0.5-0.5,0.9-0.9,1.2c0,0.8,0,1.5,0.1,2.3c0,0.6,0,1.1,0.1,1.4
			c0.4-0.2,0.8-0.4,1.1-0.7c0.1,0.2,0.3,0.3,0.4,0.5c-0.4,0.3-0.8,0.7-1.3,1c0.3,0.4,0.9,0.6,2,0.9c2.5,0.7,5,1.3,7.5,2
			c1.2,0.4,2.6,0.6,4,1.6c-2.1,1.2-4.3,1.6-6.3,2.4c-1.5,0.6-3.1,1.1-4.6,1.8c-2.7,1.3-3.3,2.4-2.8,5.4c0.4,2.3,1.3,4.5,1.5,7.2
			c-2.8-1.4-5-3.3-7-5.3c-1.6-1.5-3.1-1.7-5-0.8c-2,1-4,2-6.2,3.1c-0.3-1.5,0.5-2.5,1-3.6c0.9-2,1.8-3.9,2.8-5.8
			c0.8-1.5,0.5-2.6-0.8-3.8c-2.6-2.4-5.4-4.4-8.4-6.9C640.7,40.2,641.8,40.5,642.9,40.8L642.9,40.8z"/>
		<path class="st0" d="M916.2,55c5-1.7,10.2-3.1,15.4-4.2c1.5-0.3,2.2,0.1,2.9,1.3c1.9,3.1,3.9,6.1,5.9,9.2c1.3,1.9,2.7,3.8,4.3,5.5
			c0.6,0.6,1.3,1.1,2.2,0.7c0.9-0.4,1.3-1.1,1.2-2c-0.1-2.3,0.4-4.5,0.6-6.7c0.4-3.8,0.8-7.6,1.2-11.4c0.2-2.3,1.1-3.8,3.5-4.7
			c4.8-1.6,9.4-3.6,14-5.5c0.9-0.4,1.9-0.8,2.8-1.2c0.8-0.4,1.5-0.9,1.4-1.9c-0.1-1-0.9-1.4-1.7-1.6c-1.1-0.2-2.2-0.4-3.3-0.6
			c-4.8-0.6-9.6-1.3-14.5-1.9c0-0.5-0.1-0.8,0-1.1c1-4.2,2-8.3,3-12.5c0.2-0.7,0.4-1.5,0.4-2.2c0-1.6-0.8-2.2-2.3-1.8
			c-1.1,0.3-2,0.9-2.9,1.6c-4.2,3.3-8.4,6.6-12.1,10.3c-1.1,1.1-2.2,1.5-3.7,1.3c-3.6-0.6-7.2-1.3-10.7-1.9
			c-2.7-0.5-5.3-0.9-8.1-0.8c-1.7,0.1-2.3,1.3-1.3,2.7c0.6,0.8,1.4,1.5,2.1,2.2c3.3,3,6.2,6.4,9.3,9.8c-2.4,3.1-5.1,5.9-7.7,8.6
			c-1.6,1.7-3.3,3.3-4.5,5.4c-0.5,1-1.6,2.1-0.6,3.3C913.9,56.2,915.1,55.4,916.2,55L916.2,55z M919.7,48.7c2.8-3.1,5.6-6.2,8.1-9.7
			c1.3-1.8,1.4-2.2-0.1-3.9c-2.3-2.6-4.8-5-7.1-7.5c-0.5-0.5-1.3-0.8-1.3-1.8c2.9,0,5.7,0.8,8.5,1.4c3,0.6,6.1,0.6,9.1,1.2
			c1.1,0.2,1.6-0.7,2.3-1.3c4.1-3.6,8.1-7.1,12.2-10.7c0.3-0.2,0.6-0.4,1.4-0.9c0,0,0,0,0,0c0,0,0,0,0,0c-1.1,4.2-1.6,7.8-2.8,11.3
			c-0.3,0.9-0.6,1.8-0.8,2.7c-0.3,2.1,0,2.7,2.2,3.1c3.4,0.6,6.8,1.1,10.2,1.6c1.1,0.2,2.2,0.2,3.4,0.7c-0.5,0.8-1.3,0.9-2,1.2
			c-3.9,1.5-7.9,2.9-11.8,4.3c-2.2,0.8-3.3,1.9-3.6,4.5c-0.6,5.3-1.5,10.5-2.1,15.8c0,0.3,0,0.6-0.6,0.7c-0.7-0.4-1.1-1.3-1.6-2
			c-2.3-3.2-4.7-6.3-6.9-9.5c-1.4-1.9-3-2.5-5.3-2c-3.6,0.8-7.1,1.6-10.6,2.6c-0.7,0.2-1.4,0.6-2.2,0.3
			C918.2,49.9,919.1,49.4,919.7,48.7L919.7,48.7z"/>
		<path class="st0" d="M1397.9,243.3c-0.4,0.2-0.8,0.3-1.1,0.5c-0.9,0.5-1.4,1.3-1.1,2.3c0.2,1,1,1.6,2,1.7c1.3,0.2,2.5-0.1,3.6-0.7
			c3-1.6,4.4-4.9,3.9-8.7c-0.5-3.8-2.6-6.4-6-7.1c-7.1-1.4-15.7,3.2-16,11.9c-0.3,8.2,3.1,13.6,10.6,16.8c2.5,1.1,5,1.3,7.6,0.6
			c3.6-1,7.1-2.4,9.9-4.9c4.9-4.3,7.8-9.8,7.8-16.5c0-3.1-0.8-6.1-1.3-9.2c-1.3-7-11-13.9-18.2-13.1c-2.1,0.2-4.1,0.4-6.2,0.7
			c-1.6,0.3-3.2,0.8-4.6,1.7c-0.7,0.5-1.3,1.2-0.9,2.1c0.4,1.1,1.3,0.7,2.1,0.4c2.5-1,5.2-1.3,7.5-1.2c9.4-0.4,15.5,4.7,16.7,13.7
			c0.1,0.8,0.2,1.6,0.3,2.5c0.5,3.1-0.2,5.9-1.4,8.7c-2.2,5-6.1,8.1-11.2,10c-2.8,1.1-5.3,0.9-8-0.4c-4.5-2.1-6-5.8-6.4-10.4
			c-0.6-6,5.3-9.9,10.5-9.3c1.2,0.2,2.1,0.8,2.5,2C1401.1,239.9,1400.3,242,1397.9,243.3L1397.9,243.3z"/>
		<path class="st0" d="M1011.7,171.1c1.3,1.6,2.3,3.4,3.4,5.2c0.8,1.3,1.4,3,3.4,2.5c1.9-0.6,1.4-2.3,1.4-3.7c0-1.6-0.1-3.3,0.1-4.9
			c0.3-3.2,2.1-5.5,4.9-7.1c1.5-0.8,2.7-0.7,3.9,0.5c1.1,1.1,2,2.4,2.6,3.8c0.4,1,0.8,1.9,1.2,2.8c0.4,0.9,1.1,1.6,2.1,1.4
			c1.1-0.2,1.4-1.1,1.4-2.1c0-0.7,0-1.4,0-2.2c0-2.2,0.1-4.3,0.6-6.5c0.5-2.5,1.8-4.3,3.9-5.7c1.3-0.9,2.5-0.9,3.5,0.4
			c1.1,1.5,2.2,3,3.3,4.5c0.6,0.7,1.1,1.5,1.8,2.1c0.6,0.6,1.3,0.6,2,0.2c0.6-0.4,0.6-1.1,0.5-1.7c-0.2-0.6-0.4-1.2-0.7-1.7
			c-1.3-2.5-3.1-4.6-5.2-6.5c-1.8-1.6-3.7-1.7-5.7-0.6c-3,1.6-5,3.9-5.8,7.2c-0.3,1.4-0.6,2.7-0.9,4.1c-1.2-0.3-1.5-1.3-2.1-1.9
			c-2.9-2.8-5.1-3.1-8.5-0.9c-1,0.6-1.8,1.4-2.6,2.2c-2.1,2.1-3,4.8-3.7,8.4c-1.2-1.4-2-2.4-2.8-3.3c-2.4-2.6-4.5-2.8-7.3-0.6
			c-3.4,2.6-5,11.5-2.7,15.2c0,0.1,0.1,0.2,0.2,0.3c0.4,0.5,0.9,0.9,1.6,0.7c0.7-0.2,1-0.8,0.9-1.4c-0.1-0.7-0.2-1.4-0.3-2.1
			c-0.4-2.8,0.1-5.6,1.3-8.1C1008.4,168.9,1009.9,168.8,1011.7,171.1L1011.7,171.1z"/>
		<path class="st0" d="M1236.8,214.1c0.1,2.2,1.4,3.8,3.2,3.8c1.7,0,2.9-1.3,2.9-3c0-2.1-1.7-4.1-3.5-4
			C1237.8,211,1236.8,212.2,1236.8,214.1L1236.8,214.1z"/>
		<path class="st0" d="M1253,237.3c1.3,0,2.4-1.2,2.3-2.7c-0.1-2-1.7-3.5-3.6-3.3c-1.6,0.1-2.7,1.3-2.6,2.8
			C1249.1,235.7,1251.1,237.3,1253,237.3L1253,237.3z"/>
		<path class="st0" d="M1221.8,232.9c-0.1,1.6,2,3.5,3.7,3.5c1.4,0,2.5-1.2,2.4-2.6c0-1.8-1.6-3.5-3.3-3.5
			C1223.2,230.2,1221.9,231.4,1221.8,232.9L1221.8,232.9z"/>
		<path class="st0" d="M983.1,67c2.2,10.3,5,20.4,7.8,30.6c1.9,7,3.6,14,6.5,20.7c0.7,1.7,1.7,2.5,3.6,2.9
			c11.7,2.2,23.4,4.5,35.1,6.5c2.8,0.5,5.7,1,8.5,1.4c0.6,0.1,1.2,0.2,1.8,0.3c5.4,0.8,10.8,1.6,16.2,2.4c2.5,0.2,4.8-0.3,6.7-2
			c5.1-4.5,11.1-7.9,16.5-12.1c9.9-7.9,19.7-15.8,29.6-23.6c1.7-1.3,2.3-2.9,1.7-4.9c-0.3-1.1-0.6-2.2-1-3.3
			c-0.7-1.8-1.3-3.7-1.8-5.5c-1.3-4.2-2.4-8.5-3.4-12.7c-0.9-3.8-1.7-7.6-2.6-11.4c-2.2-9.2-5.1-18.1-8.8-26.7c-0.4-1-1-1.7-2-2.2
			c-1.3-0.7-2.6-1.3-4-1.5c-5.2-0.7-10.3-2.3-15.4-3.5c-4.8-1.2-9.8-1.7-14.6-2.6c-9.1-1.8-18.3-3.3-27.4-4.9
			c-3-0.5-5.5,0.1-7.8,1.9c-6,4.4-12,8.8-17.7,13.6c-8,6.7-15.5,13.9-23.4,20.8c-6.6,5.7-5.9,3.9-4.5,12.9
			C982.7,65,982.9,66,983.1,67L983.1,67z M1100.4,41.8c2.9,9.1,5.1,18.5,7.2,27.9c1.4,6.4,3.4,12.8,5.5,19c0.6,1.7,0.2,2.6-1.2,3.6
			c-9.8,7.8-19.5,15.6-29.3,23.4c-4.7,3.8-10.1,6.7-14.8,11c-2.2-5.1-3.7-10.1-4.8-15.1c-2.2-9.9-4.8-19.6-7.3-29.4
			c-1.2-4.6-2.4-9.2-3.9-13.7c-0.4-1.1-0.3-1.9,0.7-2.7c12.5-10.6,24.5-21.9,38.5-30.6c1.9-1.2,3.7-2.5,5.9-3.9
			C1098.2,35,1099.4,38.4,1100.4,41.8L1100.4,41.8z M987.7,53.7c13.9-12.3,27.4-25.2,42.9-35.6c1.3-0.9,2.4-1.2,4-0.9
			c9.8,1.9,19.6,4,29.6,5.2c8,1,15.7,3.2,23.5,4.9c1.4,0.3,2.9,0.6,4.4,0.9c0.8,0.1,1.5,0.5,2.7,0.8c-0.9,1.4-2.1,2-3.1,2.6
			c-9.6,5.8-18.3,12.7-26.7,20.1c-4.6,4.1-10.1,7.3-14.1,12.1c-0.8,1-1.8,0.7-2.8,0.6c-8-1.4-16.1-2.8-24.1-4.1
			c-8.8-1.5-17.6-2.2-26.4-3.1c-3.4-0.3-6.7-0.9-10.1-1.4c-0.2,0-0.4-0.1-0.5-0.1C986.4,54.5,987.2,54.1,987.7,53.7L987.7,53.7z
			 M997.7,60.4c11.7,1.5,23.3,3.1,35,4.7c4.5,0.6,8.9,1.8,13.4,2.1c1.5,0.1,2.9,0.4,3.4,2.5c2.9,12.7,6.2,25.2,9.1,37.9
			c1.4,6.4,3.1,12.6,5.3,18.7c0.2,0.6,0.6,1.3,0.2,2.2c-3.5,0.3-6.9-0.6-10.3-1.1c-14-1.8-27.8-5.1-41.8-7.4c-3-0.5-6.1-1.2-9.2-1.5
			c-1.8-0.2-2.7-0.9-3.3-2.6c-2.5-7.2-4.6-14.6-6.5-22c-2.3-9.2-4.5-18.5-6.7-27.7c-0.5-2.3-1.2-4.6-1.2-7.4
			C989.5,59.5,993.6,59.9,997.7,60.4L997.7,60.4z"/>
		<path class="st0" d="M1003,81.1c1.4,0,2.6-1.4,2.5-3c-0.1-1.6-1.3-2.9-2.6-2.9c-1.4,0-2.9,1.7-2.7,3.2
			C1000.3,79.8,1001.7,81.2,1003,81.1L1003,81.1z"/>
		<path class="st0" d="M1045.6,114.8c1.7,0,2.8-1,2.9-2.5c0-1.5-1.4-2.9-3-2.9c-1.5,0-2.7,1.2-2.7,2.8
			C1042.9,113.7,1044,114.8,1045.6,114.8L1045.6,114.8z"/>
		<path class="st0" d="M1024.5,96.3c1.6,0.1,2.8-1.1,2.9-2.6c0-1.5-1.5-3-3-3c-1.3,0.1-2.5,1.4-2.5,2.7
			C1021.8,95,1023,96.3,1024.5,96.3L1024.5,96.3z"/>
		<path class="st0" d="M1088.5,50.4c0,1.6,1.3,3.1,2.7,3.1c1.2,0,2.1-1.1,2.1-2.5c0-1.6-1.1-3-2.3-3.1
			C1089.7,47.7,1088.6,48.9,1088.5,50.4z"/>
		<path class="st0" d="M1067.4,65.4c-1.2,0-2.1,1-2.2,2.5c-0.1,1.6,0.8,2.8,2.1,2.9c1.4,0.1,2.6-1,2.7-2.4
			C1070,67,1068.6,65.4,1067.4,65.4L1067.4,65.4z"/>
		<path class="st0" d="M1095.4,70.3c1.3,0,2.1-1.1,2.1-2.5c0-1.6-1.1-3.1-2.4-3.1c-1.2,0-2.1,1.1-2.1,2.6
			C1093,69,1094,70.3,1095.4,70.3z"/>
		<path class="st0" d="M1077.3,98.7c-1.2,0-2.3,1.2-2.2,2.5c0,1.5,1.2,2.6,2.6,2.5c1.2-0.1,1.9-1.1,1.9-2.4
			C1079.5,100,1078.4,98.8,1077.3,98.7z"/>
		<path class="st0" d="M1072.4,81.3c-1.2-0.1-2.2,0.9-2.2,2.1c0,1.2,1.1,2.5,2.2,2.6c1.1,0.1,2.1-1,2.1-2.2
			C1074.6,82.5,1073.6,81.4,1072.4,81.3z"/>
		<path class="st0" d="M1101.6,88.5c1.2,0.2,2.2-1,2.2-2.4c0-1.5-0.8-2.5-2.1-2.5c-1.2,0-2.2,1.2-2.1,2.5
			C1099.6,87.4,1100.3,88.3,1101.6,88.5z"/>
		<path class="st0" d="M1288.4,49.4c5.2,4.7,11.3,7.9,17.9,10.3c7.3,2.6,14.7,4.9,22.2,6.8c5.4,1.4,10.9,2.2,16.5,2.6
			c5.9,0.4,11.7-0.2,17.5-1.4c6.8-1.5,11-5.2,12.1-12.3c0.6-3.8,0.2-7.3-2.1-10.6c-4.2-6.1-9.7-10.3-16.4-13.2
			c-15.7-6.7-32.1-8.9-49.1-7.7c-3.4,0.2-6.8,0.8-10,2c-1.2,0.5-2.5,1-3.7,1.6c-2.8,1.3-5.1,3.3-6.1,6.3c-1.2,3.6-1.7,7.2-1.3,11
			C1286.2,46.7,1287,48.2,1288.4,49.4L1288.4,49.4z M1293.1,31.6c1.6-0.9,3.3-1.7,4.9-2.4c5.9-1.8,11.8-2.6,17.9-2.6
			c12.2,0,24.1,1.7,35.4,6.2c2.1,0.8,4.2,1.8,6.3,2.8c4.7,2.4,8.6,5.6,11.8,9.8c0.6,0.7,1.1,1.5,1.4,2.4c0.8,2.6,0.4,3.7-1.8,5.3
			c-1.7,1.3-3.6,2-5.6,2.5c-0.8,0.2-1.6,0.3-2.4,0.4c-0.7,0.1-1.3,0.1-2,0.2c-4.8,0.3-9.5,0.2-14.2-0.4c-1.1-0.1-2.2-0.3-3.4-0.4
			c-2.3-0.3-4.6-0.6-6.8-0.9c-8.5-1.2-16.8-2.9-24.9-5.9c-5.5-2.1-10.9-4.4-15.6-8.1c-0.3-0.2-0.6-0.4-0.8-0.6
			c-0.4-0.3-0.7-0.6-1.1-0.9C1289.4,36.1,1289.7,33.5,1293.1,31.6L1293.1,31.6z M1289.1,40c1,0.7,1.9,1.4,2.9,2.1
			c1.5,1.1,3,2.1,4.6,3c9.6,5.4,19.9,8.6,30.6,10.6c8.7,1.6,17.4,3.4,26.4,3.5c6.4,0.1,12.6,0,18.2-4.2c-0.3,4.2-2.2,6.7-5.7,8.1
			c-3.1,1.3-6.3,2-9.6,2.4c-6.1,0.7-12.2,0.6-18.2-0.4c-12-2-23.6-5.2-34.8-9.9c-4-1.7-7.5-4.2-11.2-6.6c-1.6-1.1-2.7-2.3-3.2-3.7
			C1288.7,43.6,1288.6,41.9,1289.1,40z"/>
		<path class="st0" d="M1310.6,33.1c-0.8,0.3-1.5,0.9-1.6,1.8c-0.1,0.9,0.6,1.2,1.2,1.6c0.9,0.5,1.8,0.9,2.8,1.4
			c10.2,4.4,20.9,6.2,31.9,7.1c0.8,0.1,1.6,0.3,2.4-0.6c-12.6-2.1-25.3-3.2-37.1-9.3c1.6-1.2,2.8-1.2,4.1-1.2
			c5.6-0.1,11.2,0.2,16.6,1.5c6.7,1.6,13.4,3.5,19.9,5.9c2.8,1,5.6,2.2,8.2,3.7c1,0.6,1.9,1.3,2.7,2c0.8,0.7,0.8,1.5-0.3,1.9
			c-0.8,0.3-1.6,0.6-2.4,0.6c-5.3,0.2-10.7,1.2-16,0.4c-10.6-1.4-20.8-4.3-31-7.6c-4.9-1.6-9.7-3.7-14-7c-0.3,1.8,0.9,2.2,1.8,2.8
			c2.6,1.6,5.2,2.9,8,4.1c6.8,2.9,14,4.4,21.1,6.3c9.4,2.6,19,3.8,28.8,2.6c1.7-0.2,3.5-0.1,5.1-1.2c1.4-1,1.6-2,0.5-3.3
			c-0.6-0.7-1.3-1.3-2.1-1.8c-2.4-1.6-5-2.9-7.7-4c-7-2.6-14.1-4.7-21.3-6.5c-5.7-1.4-11.5-1.5-17.2-1.7
			C1313.4,32.4,1312,32.5,1310.6,33.1L1310.6,33.1z"/>
		<path class="st0" d="M1113.1,165.5c-3-2.7-6.5-4.3-10.7-3.8c-3.1,0.4-6.1,1-9,2.1c-13,5.1-23.7,13.3-32.1,24.4
			c-1.9,2.5-3.2,5.2-4.1,8.3c-0.7,2.6-0.5,5.1,0.8,7.5c1.3,2.4,3,4.4,4.6,6.6c1.6,2.2,3.6,3,5.9,2.9c0.6,0,1.3,0,1.9,0
			c1.3-0.1,2.6-0.5,3.8-0.9c0.8-0.3,1.5-0.5,2.3-0.8c12.4-4.6,23.7-11.2,33.6-20c2.5-2.2,4.7-4.6,6.7-7.3c1.3-1.7,2.3-3.6,3-5.7
			c0.6-1.9,0.4-3.7-0.6-5.4c-0.1-0.2-0.2-0.3-0.3-0.5c-1-1.6-2-3.2-3.2-4.7C1114.8,167.2,1114,166.3,1113.1,165.5L1113.1,165.5z
			 M1062,202.5c-1.8-1-2.2-2.9-1.3-5.8c0.5-1.8,1.3-3.5,2.4-5c8.7-11.9,20-20.4,33.8-25.6c3.3-1.2,6.6-1.5,10-0.4
			c0.8,0.3,1.5,0.6,2.1,1c2.1,1.4,2.8,3.5,2.1,6.4c-0.7,2.7-1.9,5-3.8,7c-5.5,6.1-11.8,11.3-18.9,15.4c-6.3,3.6-12.9,6.5-20.1,7.6
			c-0.7,0.1-1.4,0.2-1.9,0.3c-0.5,0-0.8,0-1.1-0.1C1063.9,203.2,1062.8,202.9,1062,202.5L1062,202.5z M1116.4,179.5
			c-1,2.6-2.8,4.6-4.7,6.5c-6.6,6.7-14.1,12-22.3,16.5c-5.1,2.8-10.1,5.7-15.8,7c-1.1,0.3-2.2,0.6-3.3,0.7c-3.4,0.4-5.3-0.5-7.6-4.1
			c5.8,0.7,11-0.7,16.1-2.6c11.7-4.4,21.6-11.6,30.4-20.3c2.8-2.7,4.4-6.2,5.4-10C1117.1,175.4,1117.4,176.7,1116.4,179.5
			L1116.4,179.5z"/>
		<path class="st0" d="M1096.7,168.8c-9.2,3.5-17.3,8.7-24.7,15.1c-2.5,2.2-4.3,5-5.9,7.9c-0.7,1.3-1,2.8-0.9,4.2c0,0.1,0,0.2,0,0.2
			c0.1,1.4,0.8,2.2,2.3,2.4c1.9,0.2,3.7-0.4,5.4-1.1c5.1-2.1,9.7-5,14.4-7.8c4.4-2.5,8.7-5.1,12.7-8.3c1-0.9,2.1-1.7,2.8-2.9
			c0.8-1.3,1-2.8,0.3-4.1c-0.7-1.4-2.1-1.4-3.5-1.5c-1.2,0-2.3,0.3-3.3,0.7c-5.5,2.2-10.8,4.6-15.7,7.9c-1.9,1.3-3.7,2.7-5,4.6
			c-0.5,0.7-1.2,1.4-0.5,2.7c2.1-2.7,4.5-4.9,7.4-6.7c4.5-2.8,9.3-5,14.1-7c0.8-0.4,1.8-0.6,2.7-0.7c0.9-0.1,2-0.4,2.5,0.6
			c0.5,1.1,0.4,2.2-0.5,3.2c-0.6,0.6-1.2,1.1-1.8,1.7c-3.7,3.1-7.7,5.6-11.8,8c-5.3,3.1-10.6,6.4-16.4,8.7c-1.3,0.5-3,1.3-4.1,0.2
			c-0.9-0.9-0.7-2.1-0.2-3.2c0.2-0.4,0.4-0.7,0.5-1.1c1.6-2.9,3.5-5.7,6-7.9c6.5-5.7,13.7-10.3,21.5-13.8c1.4-0.6,2.9-1.2,4.5-1.5
			c1-0.1,2.1-0.1,3.2,0.2c-0.2-0.5-0.4-0.9-0.6-1.1c-0.5-0.5-1.1-0.5-1.6-0.6C1099.2,167.9,1097.9,168.3,1096.7,168.8L1096.7,168.8z
			"/>
		<path class="st0" d="M1430.2,275c-0.7,1.1-0.8,2.1-0.3,3.2c1.1,2.8,2.2,5.6,3.3,8.4c0.7,1.9,2.1,3,3.9,3.7c2.6,1,5.2,2.1,7.7,3.2
			c6.1,2.5,12.4,4.7,18.4,7.4c9.4,4.3,19.2,7.6,28.8,11.3c10.6,4,21.4,7.7,32.2,11c4.1,1.3,5.1,1,7.1-2.9c2.2-4.2,4.3-8.5,6.6-12.6
			c6.3-11.7,13.8-22.8,20.6-34.3c5.5-9.3,11.1-18.6,16.7-27.9c0.5-0.8,1.1-1.6,0.9-2.6c-0.7-4-1.1-8-2.3-11.8
			c-0.8-2.5-2.2-4.2-4.7-5.3c-4.3-1.7-8.6-3.5-12.9-5.3c-5.8-2.4-11.7-4.7-17.6-6.7c-3.9-1.4-7.8-2.8-11.7-4.3
			c-8.2-3.1-16.4-6.2-24.7-8.8c-3.7-1.2-7.4-2.5-10.6-2.9c-2.6-0.3-4,0.6-5.2,1.8c-2.2,2.1-4,4.4-6,6.7
			c-13,15.7-24.4,32.6-36.5,48.9C1439,261.6,1434.4,268.2,1430.2,275z M1525.4,319.8c-9.4-2.4-18.3-5.7-27.3-8.9
			c-18.5-6.7-36.6-14.6-54.9-21.7c-0.1,0-0.2-0.1-0.3-0.1c-2.1-1-5-1-6.4-2.8c-1.5-1.9-2.3-4.4-3.2-6.7c-0.1-0.2-0.2-0.5-0.3-0.7
			c0.5-0.6,1-0.5,1.5-0.3c0.1,0,0.1,0.1,0.2,0.1c12.3,4.5,24.7,8.8,36.9,13.5c15.2,5.9,30.4,11.7,45.8,16.8c3.3,1.1,5.4,2.6,6.6,5.3
			c0.3,0.7,0.5,1.4,0.7,2.2c0.1,0.4,0.2,0.8,0.4,1.2C1525.4,318.4,1525.5,319,1525.4,319.8z M1571,235.6c0.5,2,1,4,1.5,6.1
			c0.2,1-0.2,1.8-0.7,2.6c0,0.1-0.1,0.2-0.1,0.3c0,0.3,0,0.6,0,1c-0.1-0.2-0.1-0.4-0.2-0.6c-0.9,1.5-1.8,3.1-2.7,4.6
			c0.2,0.6,0.4,1.2,0.6,1.9c-0.3-0.4-0.6-0.8-0.9-1.3c-1.1,1.9-2.3,3.9-3.4,5.8c0.1,0.6,0.2,1.1,0.3,1.8c-0.2-0.4-0.5-0.7-0.7-1.1
			c-1.2,2-2.3,3.9-3.5,5.9c0.2,0.9,0.5,1.7,0.7,2.6c-0.4-0.6-0.8-1.2-1.1-1.9c-1,1.8-2.1,3.5-3.1,5.3c0.3,1.2,0.5,2.4,0.5,3.4
			c-0.4-0.7-0.8-1.5-1.2-2.2c-1,1.7-2,3.4-3,5c0.4,1.3,0.6,2.6,0.7,3.6c-0.5-0.8-1-1.6-1.4-2.5c-0.9,1.6-1.9,3.2-2.8,4.8
			c0.4,1.3,0.6,2.6,0.7,3.9c-0.5-0.9-1-1.8-1.4-2.7c-0.8,1.3-1.6,2.7-2.4,4c0.2,0.8,0.5,1.5,0.8,2.3c-0.4-0.4-0.8-0.9-1.2-1.5
			c-1.1,1.9-2.2,3.7-3.3,5.6c0.2,1,0.3,1.8,0.3,2.5c-0.3-0.5-0.6-1-0.9-1.5c-0.9,1.5-1.8,3-2.6,4.5c0.1,0.3,0.1,0.6,0.2,0.9
			c-0.2-0.2-0.3-0.4-0.4-0.6c-0.2,0.4-0.4,0.7-0.7,1.1c-0.7,1.1-1.3,2.2-2,3.4c0.4,1,0.7,2.1,1.1,3.1c-0.6-0.5-1.1-1.2-1.7-2.1
			c-0.8,1.5-1.7,2.9-2.5,4.4c0.3,0.7,0.6,1.4,0.9,2.1c-0.4-0.3-0.9-0.8-1.3-1.3c-0.8,1.5-1.6,3-2.4,4.6c0,0.2,0.1,0.4,0.1,0.6
			c-0.1-0.1-0.2-0.2-0.3-0.3c-0.3,0.7-0.7,1.3-1,2c-0.4,0.8-0.9,1.6-1.6,2.8c-1.1-2.5-2-4.6-3-6.6c-0.5-1-0.3-1.8,0.3-2.8
			c0.6-0.9,1.1-1.8,1.7-2.8c-0.2-0.7-0.4-1.3-0.6-2c0.4,0.4,0.7,0.9,1,1.4c0.8-1.3,1.6-2.7,2.5-4c-0.1-0.7-0.2-1.3-0.2-1.9
			c0.2,0.4,0.4,0.9,0.6,1.3c0.9-1.5,1.9-3,2.8-4.5c-0.2-1.1-0.3-2.1-0.2-2.9c0.3,0.6,0.6,1.3,0.8,1.9c0.9-1.4,1.8-2.8,2.7-4.2
			c-0.1-0.3-0.1-0.5-0.2-0.8c0.1,0.2,0.2,0.3,0.3,0.5c0.9-1.4,1.8-2.8,2.7-4.2c-0.2-0.7-0.3-1.3-0.3-1.8c0.3,0.2,0.6,0.5,0.8,0.9
			c1.1-1.8,2.3-3.6,3.4-5.4c-0.2-0.9-0.3-1.7-0.4-2.4c0.3,0.5,0.6,1,0.9,1.5c0.8-1.3,1.6-2.6,2.4-3.9c-0.3-0.7-0.5-1.4-0.8-2.2
			c0.5,0.3,0.9,0.8,1.3,1.3c1.1-1.8,2.2-3.6,3.3-5.4c-0.1-0.3-0.1-0.5-0.2-0.8c0.1,0.1,0.3,0.3,0.4,0.4c1.1-1.8,2.1-3.6,3.2-5.4
			c-0.3-0.7-0.5-1.4-0.8-2c0.4,0.2,0.9,0.6,1.3,1.2c0-0.1,0.1-0.2,0.1-0.2c1.1-1.9,2.3-3.8,3.4-5.7c-0.1-0.6-0.2-1.2-0.3-1.8
			c0.2,0.4,0.4,0.8,0.7,1.2c1.1-1.9,2.2-3.7,3.3-5.6c-0.1-0.3-0.2-0.7-0.3-1c0.2,0.2,0.4,0.4,0.6,0.6c1.1-1.9,2.2-3.9,3.3-5.8
			c-0.1-0.5-0.2-1.1-0.3-1.6c0.2,0.3,0.5,0.6,0.7,1c1-1.8,2-3.6,2.9-5.4c-0.1-0.4-0.3-0.7-0.4-1.1c0.2,0.2,0.4,0.4,0.6,0.6
			c0.2-0.4,0.4-0.8,0.7-1.3C1570.1,236.2,1570.2,235.8,1571,235.6L1571,235.6z M1481.5,210.3c2.2-2.8,4.7-5.4,6.9-8.3c0,0,0,0,0-0.1
			c1.2-1.6,2.5-1.8,4.3-1.2c5.9,1.7,11.9,3.4,17.7,5.7c17.6,7.1,35.8,12.8,53.2,20.4c1.6,0.7,3.2,1.5,4.8,2c0.6,0.2,0.9,0.4,1.1,0.7
			c0.3,0.5,0.2,1.1-0.2,1.9c-2.4,4.7-4.8,9.4-7.5,13.9c-3.6,5.8-7.1,11.7-10.6,17.6c-2.9,4.8-5.9,9.6-8.9,14.4
			c-5,7.9-10,15.7-14.8,23.7c-1,1.6-1.9,3.2-2.9,4.8c-1.3,2.3-1.3,2.3-3.9,1.4c-15.1-5.2-30.2-10.7-45-16.6
			c-12.6-5-25.3-9.5-38.1-14c-0.3-0.1-0.6-0.2-0.8-0.3c-0.9-0.3-1.8-0.7-2.9-1.2c1.2-2.5,2.7-4.5,4.2-6.5
			c9.4-12.7,18.6-25.5,28-38.2C1471,223.6,1476.2,216.9,1481.5,210.3z"/>
		<path class="st0" d="M1519.3,228.6c-4.4-3.3-9.1-6-14.7-6.8c-2.5-0.4-4.3,0.3-5.7,2.5c-4.2,6.4-8.8,12.4-13.5,18.5
			c-4.7,6-9,12.4-13.1,18.8c-1.6,2.5-0.9,4.4,1.9,5.2c7.1,1.8,14,4.1,21.3,5.3c5.3,0.9,10.6,1.2,15.7-1.4c6.8-3.5,9-12.1,4.3-18.1
			c-1.4-1.8-3.1-3.3-5.1-4.5c-1.6-0.9-3.1-1.9-5.3-3.3c3.8-1,7-1.2,10.1-2.1c2.4-0.8,4.5-2,6.2-3.9c0.8-0.9,1.4-1.9,1.2-3.1
			C1522.2,233,1521.6,230.3,1519.3,228.6L1519.3,228.6z M1511.3,252.6c5.6,4.6,4.6,11.5-1.7,15c-3,1.6-6,2-9.3,1.7
			c-6.2-0.6-12.1-2.7-18.1-4.2c-1.9-0.5-3.8-1-6-1.6c1.8-3.5,4-6.3,5.9-9.2c1.9-2.9,3.9-5.6,5.8-8.5c0.9-1.4,2-1.7,3.6-1.7
			C1499.2,244.5,1505.6,247.9,1511.3,252.6L1511.3,252.6z M1516.1,238.8c-0.1,0-0.2,0.1-0.3,0.1c-7.8,2.2-15.6,3.3-23.7,1.6
			c-0.1-1.1,0.6-1.7,1.1-2.4c2.7-4,5.4-8,8.1-12.1c0.7-1.1,1.5-1.4,2.8-1.1c4.8,1.1,9.1,3.3,13.1,6.1
			C1520.5,233.4,1519.8,237.2,1516.1,238.8L1516.1,238.8z"/>
		<path class="st0" d="M1542.6,262.3c1.2,0.2,1.3-0.6,1.6-1.1c1.1-2.1,2.2-4.2,3.4-6.3c4-7.1,8.2-14.1,12.9-20.7
			c0.5-0.7,1.4-1.5,0.9-3.1C1554.2,241.2,1547.8,251.3,1542.6,262.3L1542.6,262.3z"/>
		<path class="st0" d="M1553.8,230.4c-3.4,3.1-7.4,10.1-7.7,13.2C1548.8,238.9,1551.3,234.7,1553.8,230.4z"/>
		<path class="st0" d="M1542.7,235.4c1.7-3.1,3.7-5.9,5.7-9.3C1545.5,228.2,1542.9,232.4,1542.7,235.4z"/>
		<path class="st0" d="M1568.6,237.2c0.1,0.4,0.2,0.7,0.4,1.1c0.8,2.2,1.6,4.4,2.4,6.6c0.1,0.2,0.1,0.4,0.2,0.6c0-0.3,0-0.6,0-1
			c0-2.7-0.8-5.1-2.3-6.7C1569,237.6,1568.8,237.4,1568.6,237.2L1568.6,237.2z"/>
		<path class="st0" d="M1114.8,244c-1.1,0.1-1.9,1.1-2.4,2.3c-0.5,1.4-1.2,2.7-1.5,4.1c-0.6,3-2.2,4.1-5.4,4.2
			c-3.8,0.1-7.6,1.1-10.9,3c-4.4,2.6-5.4,6.7-2.8,11.1c1.2,1.9,2.6,3.4,4.3,4.8c2.3,1.9,4.8,3.6,7.4,5c4.5,2.5,9.2,4.6,14.1,6.5
			c16.1,6.1,32.6,9.6,49.8,10.1c1.3,0,2.7,0.1,4,0c5.2-0.4,10.3-0.8,15-3.4c5.1-2.9,6.1-7.5,2.6-12.2c-2.3-3-5-5.6-8.2-7.4
			c-1.4-0.8-1.8-1.7-1.3-3.3c0.9-2.9,1-5.9-0.9-8.3c-1.2-1.5-0.9-2.7-0.5-4.2c2-6.3,4.4-12.5,5.8-18.9c2.8-12.1,6.4-23.9,9.8-35.8
			c1.7-5.8,3.6-11.4,4.9-17.3c1.4-5.8,0.6-11.3-3.4-16.1c-1-1.2-1.7-2.6-2.6-3.9c-3.9-6-2.2-13,1.8-17.4c3.3-3.6,7.5-5.8,11.7-7.9
			c3.6-1.8,6.8-4,8.2-8c1.2-3.5,2.3-7.1,3.2-10.7c2.7-10.5,5.4-21,8-31.5c2.3-8.8,4.5-17.6,6.8-26.4c0.4-1.5,0.8-3,2.5-3.6
			c1.1-0.4,1.5-1.4,1.7-2.5c0.5-2.1,1.2-4.2,1.4-6.3c0.3-2.8,0.4-2.9,3.3-3.5c2.2-0.4,4.1-1.4,5.9-2.7c1.9-1.3,2.5-3.2,2-5.4
			c-0.3-1.5-1-2.7-2.1-3.7c-2.8-2.7-5.9-4.8-9.4-6.6c-1.3-0.6-2.6-1.3-3.9-1.9c-5.2-2.5-10.4-4.7-15.8-6.7c-3.2-1.2-6.3-2.2-9.5-3.2
			c-3-0.9-6-1.7-9-2.4c-0.6-0.1-1.2-0.3-1.8-0.4c-6.9-1.5-13.8-2.9-20.9-2.5c-4,0.2-7.8,0.9-11,3.5c-2.7,2.2-3.1,4.4-1.3,7.3
			c0.6,1,1.3,2.1,2.1,3c0.5,0.6,1,1.1,1.6,1.5c1.1,0.8,1.5,1.7,1.4,2.7c0,0.5-0.2,1-0.4,1.6c-0.9,2.3-1.8,4.6-2.3,7.1
			c-0.2,1-0.3,1.9,0.3,2.7c1.1,1.7,0.8,3.2,0.2,4.9c-0.5,1.5-0.7,3-1.1,4.5c-3,11.5-6.7,22.8-9.3,34.4c-2.3,10.3-4.6,20.6-7.7,30.6
			c-1.6,5.1-0.4,9.8,1.9,14.3c0.7,1.3,1.5,2.5,2.2,3.7c1,1.7,2.1,3.3,3,5.1c3.7,6.8,1.9,13.9-4.4,18.1c-2.6,1.7-5.3,3.3-8,4.7
			c-2.9,1.5-4.7,4-5.8,7c-4.1,10.7-7,21.8-10,32.9c-3.5,12.9-7.1,25.9-10.1,39C1118,241.8,1117.6,243.8,1114.8,244z M1113.9,251.3
			c0.2-0.3,1.1,0.5,1.5,0.8c4,2.9,8.1,5.4,12.4,7.5c1.3,0.6,2.6,1.2,3.8,1.8c7.6,3.3,15.7,5.6,24.1,7.1c2.2,0.4,4.3,0.6,6.5,0.7
			c0.6,0,1.1,0,1.6,0c4.2,0,8.5-0.7,12.9-2c0,0,0.1,0,0.1,0c0,0,0,0.1,0,0.1c-0.3,3.4-1.7,6.2-2.9,9.1c-0.3,0.9-1.5,1.1-2.3,1.4
			c-3.3,1.3-6.9,1.4-10.4,1.7c-16.9,1.7-31.8-3.6-45.2-13.5c-2.2-1.6-4.9-3.6-5.2-6.3C1110.6,256.8,1112.3,253.9,1113.9,251.3
			L1113.9,251.3z M1128.6,254.5c1-3.7,2.1-7.4,3.3-11.1c1.1-3.3,2.2-6.6,3.3-9.8c1.4-4.3,4-7.4,8.2-9.1c2.6-1,5.1-2.2,7.7-3.2
			c7.5-3,15-6.2,22.2-10.4c1.5,2.1,2.1,4.4,2.2,6.8c0.2,4.1,0,8.2-1,12.3c-0.2,0.6-0.3,1.3-0.5,1.9c-0.6,2.2-1.2,4.4-1.8,6.6
			c-0.3,1-0.6,1.9-0.9,2.9c-1.3,4.5-2.8,9-4.2,13.5c-1,2.9-2,5.9-2.7,8.9c-0.6,2.5-0.6,2.6-3.3,2.3c-6-0.5-11.8-1.8-17.6-3.4
			c-4.7-1.3-9.2-3.2-13.6-5.2C1128.5,256.7,1128.2,256,1128.6,254.5L1128.6,254.5z M1177.8,274.6c0.5,0.3,0.9,0.6,1.4,0.9
			c1.6,1.1,3.1,2.1,4.4,3.3c0.3,0.3,0.6,0.6,0.9,0.9c0.7,0.6,1.2,1.4,1.7,2.2c1,1.8,1,3.3,0.1,4.5c-0.4,0.5-0.9,0.9-1.5,1.3
			c-0.8,0.5-1.6,0.9-2.5,1.2c-2,0.8-4.2,1.2-6.4,1.4c-7,0.9-14,0.7-20.9-0.1c-2.6-0.3-5.2-0.7-7.7-1.1c-0.1,0-0.2,0-0.4-0.1
			c-12.4-2.1-24.4-5.3-35.8-10.6c-4.5-2.1-8.8-4.5-12.6-7.8c-1.4-1.2-2.8-2.5-3.7-4.2c-1.2-2.2-0.8-4,1.3-5.4
			c2.3-1.5,4.8-2.3,7.5-2.7c1.2-0.2,2.5-0.3,3.7-0.4c0.2,0,0.3,0,0.5,0c0.6,0.1,0.8,0.6,0.8,1.3c0,0.4,0,0.8,0.1,1.2
			c0.3,1.4,1.1,2.5,2,3.6c1.2,1.7,2.7,3.2,4.3,4.4c15.1,11.5,32.1,16.1,50.9,14c1.8-0.2,3.5-0.4,5.2-0.8c2.1-0.6,3.8-1.6,5-3.2
			c0.4-0.6,0.8-1.3,1-2C1177.1,275.8,1177.4,275.4,1177.8,274.6L1177.8,274.6z M1235.5,50.6c-0.4,1.6-1.1,3.2-1.5,4.8
			c-0.3,1.2-1.3,1.5-2.4,1.7c-4.4,1.2-8.9,1.9-13.5,1.8c-5.6-0.1-11.2,0.4-16.6-1.3c-9.3-2.8-17.9-6.8-25.8-12.5
			c-1.7-1.2-3.1-2.7-4.6-4.1c-1.1-1.1-1.4-2.2-1-3.6c0.5-1.6,1-3.2,1.5-4.8c0.3-0.8,0.6-1.7,0.8-2.5c19.8,10.6,40.6,17.1,63.4,17.7
			C1235.8,48.9,1235.7,49.8,1235.5,50.6L1235.5,50.6z M1172,15.5c4.3-1.3,8.7-1.4,13.2-0.9c12,1.3,23.5,4.6,34.7,8.7
			c7,2.6,14.1,5.3,20.7,9c1.3,0.8,2.6,1.6,3.8,2.6c0.8,0.7,1.5,1.5,2.1,2.4c0.6,0.9,0.8,1.6,0.8,2.3c0,0.4-0.2,0.8-0.4,1.2
			c-0.3,0.4-0.7,0.8-1.3,1.3c-2.2,1.6-4.6,2.3-7.2,2.5c-0.4,0-0.8,0.1-1.3,0.1c-0.1,0-0.1,0-0.2,0c-1.8,0.1-3.6,0-5.3,0
			c-11-0.1-21.7-2.4-32.1-6c-5.6-1.9-11.1-3.8-16.5-6.2c-4.6-2-8.7-4.8-12.5-8.1c-0.1-0.1-0.3-0.2-0.4-0.4
			C1165.2,19.9,1165.9,17.3,1172,15.5L1172,15.5z M1119.2,248.7c0.9-3.4,1.6-6.8,2.7-10.2c4.3-13.3,7.2-26.9,11-40.3
			c1.9-6.9,3.8-13.7,5.6-20.6c0.1-0.3,0.2-0.6,0.2-0.9c2.9-9.8,3.7-10.9,12.7-15.9c1.3-0.8,2.6-1.6,4-2.4c8.4-5.1,8.4-15.5,4.8-21.6
			c-1.1-1.9-2.4-3.6-3.6-5.4c-0.8-1.2-1.6-2.4-2.3-3.7c-2.1-3.8-3.1-7.8-1.7-12.2c3.1-10.3,5.3-20.8,7.9-31.2
			c3.2-12.6,7.5-24.9,10.5-37.6c0.1-0.3,0.2-0.6,0.5-1.1c8.3,6,17,11.3,26.9,14.2c10,3,20.1,2.6,30.2,1.6c0.4,0.9,0.1,1.5,0,2
			c-4.3,15.2-8.1,30.5-11.5,46c-1.4,6.3-3.3,12.6-4.9,18.9c-0.8,3.1-2.7,5.2-5.5,6.7c-3.9,2.2-7.6,4.6-11.4,6.9
			c-4.9,3.1-6.7,7.9-7.9,13.1c-1.3,5.9,1.4,10.4,4.6,14.9c0.8,1.1,1.6,2.2,2.2,3.3c1.7,2.9,2.2,5.9,1.3,9.2
			c-2.1,8.6-4.8,17.1-7.3,25.6c-4.3,14.6-8.1,29.2-12.2,43.9c-1.1,3.9-2.5,7.7-3,11.7c-0.1,1.2-0.8,1.6-1.8,1.7
			c-1,0.1-2,0.2-3.4,0.3c0.2-2.6,1-4.6,1.6-6.7c3.2-10.1,6.3-20.3,8.8-30.6c1.2-4.8,1.1-9.6,0.1-14.4c-0.1-0.7-0.4-1.4-0.6-2.1
			c-1.1-3-2.3-4.3-4.2-4.3c-0.2,0-0.3,0-0.5,0.1c-0.9,0.1-2,0.6-3.3,1.2c-7.3,3.7-14.8,6.9-22.5,9.6c-2.5,0.9-5,1.9-7.4,3.1
			c-3.6,1.8-6.1,4.6-7.3,8.4c-2.3,7.5-4.5,15-6.8,22.5c-0.2,0.7-0.4,1.4-0.7,2.4c-2.1-0.8-3.8-2.1-5.5-3.3
			C1118.6,250.8,1118.9,249.8,1119.2,248.7L1119.2,248.7z"/>
		<path class="st0" d="M1169,138.1c3.3,2.7,7,5,9.8,8.5c1.7,2.2,3.4,2.1,5.6,0.2c2.1-1.7,3.7-3.9,5.3-6c1.4-1.9,2.9-3.4,4.9-4.6
			c2.2-1.4,4.2-3.1,6-4.9c3.1-3.1,4.4-7.1,5.1-10.7c0-5.6-2.3-8.7-7.1-9.9c-2.5-0.6-4.9-0.2-7.2,0.9c-2.2,1-4.4,1.9-6.4,3
			c-4.7,2.6-9.8,3.1-15,2.7c-2.2-0.2-4.3-0.6-6.4-0.7c-2.6-0.2-3.8,1.1-3.9,3.7c0,0.6,0.1,1.2,0.2,1.8
			C1160.9,128.6,1163.9,133.9,1169,138.1L1169,138.1z M1162.1,120.8C1162.1,120.8,1162.1,120.7,1162.1,120.8c0-0.2,0.1-0.3,0.1-0.4
			c0.1-0.1,0.2-0.1,0.3-0.2c0.8-0.4,1.6,0,2.4,0.1c7.5,1.3,14.8,0.7,21.6-3.1c1.7-0.9,3.5-1.7,5.3-2.6c0.3-0.2,0.6-0.3,0.9-0.5
			c0.4-0.2,0.9-0.4,1.3-0.5c2.4-0.7,4.8-0.6,6.6,1.1c0.1,0.1,0.2,0.2,0.3,0.3c1.9,2,2,4.7,1.1,7.2c-0.3,0.9-0.7,1.7-1.1,2.5
			c-1.7,3-4.1,5.4-7.1,7.3c-3.1,2-5.7,4.4-7.8,7.3c-0.2,0.3-0.5,0.7-0.7,1c-0.8,1.2-1.7,2.4-3.4,3.4c-0.1,0-0.1,0.1-0.2,0.1
			c-0.1-0.2-0.3-0.4-0.4-0.6c-2.4-3.5-6-5.4-9.3-7.6c-5.2-3.5-8.2-8.3-9.8-14.2C1162.2,121.3,1162.2,121,1162.1,120.8L1162.1,120.8z
			"/>
		<path class="st0" d="M1171.5,223.8c-1.8,6.2-3.6,12.4-5.5,18.5c-1.9,6.1-3.9,12.2-6.1,18.2c-0.1,0.3-0.4,0.8,0.1,1.1
			c1.6-2,5.4-12.6,8.4-22.4c2.2-7.1,3.9-13.7,3.9-16.3C1171.8,223.1,1171.6,223.5,1171.5,223.8L1171.5,223.8z"/>
		<path class="st0" d="M1229.5,51.5c2.6-0.2,2.7-0.3,3.8-1.9c-2.7,0.6-5.4,0.5-7.9,1.6C1226.7,51.9,1228.1,51.6,1229.5,51.5z"/>
		<path class="st0" d="M1198.9,115.9c-0.9,3.4-1.7,6.8-2.4,10.2C1198.2,122.9,1199.8,119.7,1198.9,115.9z"/>
		<path class="st0" d="M1194.1,120.2c0-0.2-0.3-0.6-0.5-0.7c-0.5-0.1-0.7,0.2-0.8,0.7c-0.5,2.2-1,4.5-1.5,6.7
			C1193.1,125,1193.7,122.7,1194.1,120.2z"/>
		<path class="st0" d="M1232.5,52.5c-2.6,0.7-5,0.6-7.4,1.9C1229.1,54.7,1231.1,54.3,1232.5,52.5z"/>
		<path class="st0" d="M919.6,155.1c1.9,0.6,2.1,1.6,2.2,3.1c0.7,6.9,1.3,13.8,2.1,20.7c2.1,17,3.4,34.1,5,51.2
			c0.1,1.1-0.1,1.9-0.9,2.8c-1.8,1.8-3,4-3.7,6.4c-2.3,9.2,3.5,18.1,12.9,20.5c3.6,0.9,7.3,1.2,11.6,0.9c8.1,0.1,16.5-1.6,24.7-4.1
			c12-3.6,21.9-10.9,30.7-19.8c2.8-2.8,5.2-5.9,6.9-9.5c2.5-5.1,3.6-10.5,2.3-16.2c-1.2-5.5-5.9-9.5-11.6-9.5
			c-1.5,0-2.5-0.5-3.4-1.7c-2.9-3.6-5.9-7.2-8.8-10.8c-9.5-11.6-19.5-22.7-28.6-34.7c-2.7-3.5-5.1-7.3-8.2-10.5
			c-1.7-1.6-2.2-3-1.2-5.4c3.1-7.8,0.7-14.6-6.1-20.4c0,0-0.1-0.1-0.2-0.1c-1.2-1-2.4-1.8-3.6-2.5c-5.6-3-11.8-2.9-18.1-0.8
			c-7.7,2.5-13.9,6.9-15.7,15.6c-0.6,2.8-1,5.7-0.8,8.6C907.5,146.9,911.9,152.8,919.6,155.1L919.6,155.1z M1002.1,216.1
			c1.7-3.4,2.7-6.8,1.2-10.8c-0.1-0.2-0.1-0.3-0.2-0.5c0.2,0,0.3,0.1,0.5,0.1c3.3,0.8,6.2,3.9,6.9,7.2c0.2,1.1,0.3,2.2,0.4,3.2
			c0,0.6,0,1.2,0,1.7c0,0.8-0.1,1.5-0.3,2.2c0.2,0.9,0.2,1.8,0.1,2.6c-0.1-0.4-0.3-0.8-0.4-1.1c-0.3,1.2-0.7,2.3-1.2,3.4
			c-0.2,0.4-0.4,0.8-0.5,1.2c0.2,1.3,0.4,2.6,0.5,3.7c-0.7-0.7-1.1-1.5-1.3-2.1c-0.5,0.9-1,1.7-1.6,2.6c0.3,1.2,0.6,2.4,0.8,3.6
			c-0.2,0.1-0.4,0.1-0.6,0.2c-0.3-0.9-0.7-1.8-1-2.7c-0.3,0.4-0.6,0.8-1,1.2c-0.7,0.9-1.5,1.7-2.2,2.5c0,0.6,0.1,1.2,0,1.9
			c-0.3-0.4-0.5-0.8-0.7-1.3c-8,7.9-16.9,14.7-27.8,18.1c-0.1,0-0.2,0.1-0.2,0.1c-1,0.3-2,0.6-2.9,0.9c-3.9,1.1-7.7,2-11.7,2.6
			c-5.5,0.9-11.1,1.2-16.8,0.7c-4.7-0.4-8.8-1.9-12-5.5c-3.1-3.4-4.5-10.1-0.8-14.8c5.5,4.7,11.9,7.2,19,7.8
			c13.6,1.2,26.3-1.6,37.8-9.1c4.2-2.8,7.5-6.4,10.5-10.4c1.2-1.7,2.4-3.4,3.4-5.2C1000.6,218.8,1001.4,217.5,1002.1,216.1
			L1002.1,216.1z M952.6,149.3c6.4,8.8,13.4,17.2,20.6,25.4c2.5,2.9,5.1,5.8,7.7,8.8c0.8,0.9,1.5,1.8,2.3,2.7
			c5.5,6.5,10.8,13.2,16.5,19.6c1.8,2,1.9,4,1.1,6.2c-1,2.9-2.3,5.6-3.9,8.1c-1,1.6-2.1,3.1-3.2,4.5c-7.6,9.6-17.8,14.4-29.5,16.7
			c-6.9,1.3-13.7,1.4-20.6,0.1c-3.2-0.6-6.1-2-8.8-3.7c-1.5-0.9-2.3-2.2-2.5-4c0-0.1,0-0.2,0-0.4c-0.1-1.5-0.3-3-0.4-4.5
			c-0.8-8.5-1.6-16.9-2.4-25.4c-0.9-9.7-2-19.3-2.9-29c-0.5-5-0.9-10-1.5-15.1c-0.1-1-0.3-2.1-0.4-3.1c10.1-0.4,18-4.1,24.2-11.7
			C950.2,146.3,951.4,147.8,952.6,149.3L952.6,149.3z M911.4,131.1c0.4-2,1-3.7,2-5.2c2.1-3.2,5.4-5.4,9.1-7.1c0,0,0.1,0,0.1,0
			c2.4-1.1,4.9-1.7,7.1-2c0.7-0.1,1.4-0.2,2-0.2c2.3,0,4.4,0.3,6.3,1c5.3,1.9,9.3,6.2,10.9,11.5c1.3,4.1,0.1,8-1.8,11.6
			c-2.9,5.3-7.5,8.7-13.2,10.7c-4.2,1.5-8.5,1.5-12.8,0.4c-0.9-0.2-1.7-0.5-2.6-0.9c-2.4-1.1-4.5-2.8-6-5.4c-1-1.9-1.7-4.1-1.9-7
			C910.6,136,910.9,133.6,911.4,131.1L911.4,131.1z"/>
		<path class="st0" d="M985,198.7c2.5,3,5.2,5.9,8.1,8.4c0.5,0.4,1,1.1,2,0.1c-9-8.2-16.2-18.1-24.2-28c-0.3,1.4,0,1.7,0.3,2.1
			C975.8,187.1,980.2,193.1,985,198.7L985,198.7z"/>
		<path class="st0" d="M934.3,121.4C934.3,121.4,934.4,121.4,934.3,121.4c1.9,0.5,3.5,1.2,4.7,2.7c1.4,1.9,2.4,4,3,6.3
			c0.3,1.2,0.5,2.4,1.1,3.5c0.7-0.1,0.8-0.4,0.8-0.7c-0.1-4.1-1.3-7.9-4.1-10.9c-1.4-1.5-3.2-2.2-5.2-2.4c-0.4,0-0.9-0.1-1.1,0.3
			c-0.1,0.3-0.1,0.5,0,0.7C933.9,121.2,934.1,121.3,934.3,121.4L934.3,121.4z"/>
		<path class="st0" d="M1006.5,218.8c-0.3-0.5-0.6-1.3-1.3-1.1c-0.8,0.3-0.3,1-0.1,1.6c0.7,2,1.4,4.1,2.1,6.1
			c0.1,0.4,0.2,0.9,0.4,1.4c0,0.1,0,0.2,0.1,0.2c0.2,0.7,0.6,1.4,1.3,2.1c-0.1-1.1-0.2-2.4-0.5-3.7c0-0.1,0-0.1,0-0.2
			C1008,222.7,1007.2,220.1,1006.5,218.8L1006.5,218.8z"/>
		<path class="st0" d="M1005.8,211.9c1.6,3.2,3.3,5.9,4.5,8.9c0.2,0.4,0.3,0.8,0.4,1.1c0.1-0.8,0.1-1.7-0.1-2.6
			C1010,216.3,1008.1,213.1,1005.8,211.9L1005.8,211.9z"/>
		<path class="st0" d="M988.3,209.1c0.6,0.5,1.3,1,1.9,1.5c-2.3-3.5-4.2-5.8-5.8-6.8c-0.5-0.3-0.9-0.5-1.3-0.6
			C984.5,205.4,986.3,207.4,988.3,209.1L988.3,209.1z"/>
		<path class="st0" d="M1003.8,224.1c-0.3,0.1-0.6,0.2-0.9,0.3c0.8,2.1,1.6,4.1,2.4,6.2c0,0,0,0.1,0,0.1c0.3,0.9,0.7,1.8,1,2.7
			c0.2-0.1,0.4-0.1,0.6-0.2c-0.2-1.2-0.5-2.4-0.8-3.6c0-0.1,0-0.1-0.1-0.2C1005.5,227.5,1004.7,225.8,1003.8,224.1z"/>
		<path class="st0" d="M934.6,128.3c2.1,0.7,2.1,3,4,4.7c-0.4-2.3-0.8-3.8-1.9-5.1c-0.4-0.5-0.9-0.9-1.6-0.7
			C934.5,127.4,934.1,128.2,934.6,128.3L934.6,128.3z"/>
		<path class="st0" d="M1001.4,235.1c0.2,0.4,0.5,0.8,0.7,1.3c0-0.7,0-1.3,0-1.9c-0.2-1.9-0.8-3.3-2.3-5.3
			C999.9,231.5,1000.5,233.3,1001.4,235.1z"/>
		<path class="st0" d="M1483.1,157.6c0.3,1.2,1.1,1.9,2.1,2.6c2.4,1.6,5.1,2.4,7.8,2.9c4.1,0.7,8.2,1.3,12.4,1.7
			c3.2,0.3,6.3,0.4,9.5,0.4c3.3-0.1,6.9-0.3,10.5-0.6c4.5-0.4,9.2-1,13.7-1.8c3-0.5,5.9-1.1,8.7-1.7c0.1,0,0.2-0.1,0.3-0.1
			c7.8-1.8,15.4-4.5,22.7-7.9c3.1-1.5,4.6-3.9,4.7-7.2c0-0.2,0-0.4,0-0.5c0-0.6,0-1.3-0.1-1.9c-0.1-1.9-0.3-3.9-0.2-5.8
			c0.3-3.7-1.3-6.3-4-8.5c-0.7-0.6-1.5-1.2-2.2-1.7c-2.9-1.9-5.2-4.3-7.4-6.9c-5.4-6.4-10.5-13-14.8-20.2
			c-5.1-8.3-7.8-17.3-9.6-26.6c-0.6-2.8-0.7-5.7-0.7-8.6c0-2.6,0.5-5.1,2.2-7.2c0.8-1,1.3-2.3,1.7-3.6c3.1-9.5-1.8-23.4-14-27.1
			c-3.9-1.2-8-1.7-11.9-0.2c-10.4,4.2-16.2,13.5-16,24.6c0.1,4,1.6,7.5,4.5,10.2c1.1,1,1.9,2.2,2.3,3.5c1.6,4.8,2.5,9.8,2.7,14.9
			c0,1.6,0,3.3-0.1,4.9c-0.5,6.9-2.3,13.6-4.5,20.3c-3.4,10.1-9,18.8-15.4,27.2c-0.6,0.7-1.1,1.4-1.7,2.1c-1.2,1.5-2.2,3-2.8,4.8
			c-0.2,0.5-0.3,0.9-0.4,1.4c-0.8,2.6-1.1,5.3-1.1,7.9C1481.9,151.6,1482.3,154.6,1483.1,157.6L1483.1,157.6z M1507.7,60.2
			c-0.5-0.3-1-0.6-1.5-1c-1.8-1.4-3.1-3.2-3.6-5.2c-0.2-0.6-0.2-1.2-0.3-1.9c-0.2-7.7,2-14.4,8.7-19.1c7.1-4.9,16.9-3.6,22.1,3.4
			c0.2,0.3,0.5,0.7,0.7,1.1c1.3,1.9,2.3,3.9,2.9,6.1c0.8,2.8,0.9,5.8,0.1,8.9c-0.5,1.9-1.3,3.5-2.8,4.7c-4.4,3.9-9.5,6.1-15.4,6.2
			C1514.6,63.4,1511,62.3,1507.7,60.2L1507.7,60.2z M1486.9,139.2c1.6-2.4,3.5-4.6,5.2-6.9c7.3-9.7,13-20.1,16.2-31.8
			c1.7-6.3,3.1-12.7,3-19.2c0-3.5-0.4-7-1.1-10.5c-0.2-1.1-0.5-2.2-0.9-3.3c-0.1-0.4-0.5-0.9,0-1.7c8.2,2.6,16.1,1.9,23.9-3
			c-0.1,1.8-0.2,3.6-0.1,5.3c0.1,2.8,0.4,5.5,1,8.2c2.1,9.2,5,18.1,10.1,26.2c4,6.4,8.2,12.7,12.9,18.5c3.2,4,6.5,7.8,10.9,10.4
			c0.5,0.3,1,0.7,1.5,1.1c1.3,1.1,1.4,1.8,0.2,3c-0.9,1-2.1,1.6-3.3,2.2c-2.9,1.5-5.8,2.7-8.9,3.6c-15.5,4.6-31.3,7.3-47.6,7.5
			c-7.2,0.1-14.1-1.7-21-3.7C1485.5,144.1,1484.9,142.2,1486.9,139.2L1486.9,139.2z M1485.8,147.2c3.3,0.8,6.7,1.6,10,2.4
			c5.3,1.3,10.8,1.8,16.3,1.6c14.8-0.3,29.4-2.3,43.7-6.3c5.4-1.5,10.7-3.6,15.9-7.1c0.2,2.6,0.2,4.9,0.5,7c0,0.2,0,0.4,0,0.5
			c0.2,1.9-0.7,3.2-2.1,4.2c-0.8,0.6-1.7,1.1-2.7,1.5c-8.6,3.3-17.1,6.6-26.3,7.9c-9.1,1.4-18.2,2.7-27.3,3
			c-2.6,0.1-5.3,0.1-7.9-0.1c-1.3-0.1-2.6-0.2-3.8-0.3c-2.4-0.3-4.7-0.6-7-1.1c-2.7-0.6-5-1.8-7.4-3c-1.2-0.6-1.8-1.5-2-2.9
			c-0.1-0.5-0.1-1-0.2-1.5C1485.2,151.3,1485.2,149.3,1485.8,147.2L1485.8,147.2z"/>
		<path class="st0" d="M1565.4,134.2c-10.8-6.3-17.8-15.9-24.2-26.2C1543.9,117.8,1558.8,133.7,1565.4,134.2z"/>
		<path class="st0" d="M1531.4,42.2c-0.8-2.1-1.5-4.3-3.5-5.7c-0.5-0.4-1-0.8-1.8,0.2c2.4,2.2,3.5,5,4.1,8.2
			c0.6,3.2-0.6,6.1-1.5,9.1c-0.1,0.2-0.1,0.4-0.2,0.6c1-0.5,1.8-1.3,2.4-2.3C1532.5,49.6,1532.5,45.3,1531.4,42.2L1531.4,42.2z"/>
		<path class="st0" d="M1550.4,153.8c-1.4,0.3-1.4,0.4-2.6,1.3c7.2-0.3,20.5-5.6,23.2-9.3c-0.7-0.2-1.2,0.1-1.7,0.5
			c-2.1,1.6-4.4,2.6-6.8,3.6C1558.6,151.6,1554.5,152.8,1550.4,153.8L1550.4,153.8z"/>
		<path class="st0" d="M1559.4,136.5c-3.2-2.4-5.8-5-8.6-7.3C1552.8,133.1,1556.5,136.3,1559.4,136.5z"/>
		<path class="st0" d="M1570.1,142.6c-0.1-0.2-0.3-0.5-0.4-0.7c-3,1.6-6,3.1-9.1,4.7c0.1,0.2,0.2,0.4,0.3,0.6
			C1564.1,145.9,1567.4,144.9,1570.1,142.6L1570.1,142.6z"/>
		<path class="st0" d="M1526.3,50.4c1.5-2.8,1.3-4.7-0.7-5.6C1525.7,46.7,1526.5,48.5,1526.3,50.4z"/>
		<path class="st0" d="M1267.6,186c1.1,1.6,2.2,3.1,3.4,4.7c1.7,2.3,3.3,4.5,5,6.8c7.9,10.5,15.2,21.4,22.4,32.4c2,3,4.4,3.6,8,2.5
			c0.7-0.2,1.3-0.6,2-0.9c8.9-4.9,18.3-8.6,27.4-13c2.8-1.3,5.6-2.7,8.5-4c0.9-0.4,1.8-0.8,2.6-1.2c5-2.3,10-4.6,15-7
			c0.5-0.2,1-0.5,1.5-0.7c3.3-1.6,6.6-3.3,9.9-5c1.8-1,3.8-1.7,5.7-2.5c12.3-5.2,24.5-10.4,36.5-16.2c5.6-2.8,11.3-5.5,17.2-7.9
			c6.7-2.7,13.1-6.1,19.6-9.3c1.3-0.7,2.5-1.4,3.1-2.9c1.4-4.1,2.1-8.4,2.8-12.7c0.2-2-0.7-3.6-1.9-5.1c-7.4-9-13.8-18.8-20.4-28.5
			c-7.8-11.3-15.3-22.8-23.4-33.9c-0.9-1.2-1.7-2.3-2.8-3.3c-1.5-1.3-3-1.7-4.9-0.9c-1.6,0.7-3.3,1.3-4.9,1.9
			c-15.6,6.4-30.8,13.5-46.3,20c-19.4,8.1-38.5,17.1-57.7,25.7c-11.1,5-21.8,10.8-33.2,15.2c-1.3,0.5-2.6,1.4-3.8,2.1
			c-0.9,0.6-1.6,1.3-1.8,2.4c-0.7,2.7-1.5,5.4-2.1,8.1c-2.1,10.1-2,10.4,3.5,19.2C1261.2,176.8,1264.4,181.4,1267.6,186L1267.6,186z
			 M1454.5,149.6c0,0.1,0,0.1,0,0.2c-0.6,3.6-1.8,6.9-2.8,10.1c-0.4,1.2-1.4,1.8-2.4,2.2c-4.9,2.3-9.5,5.1-14.5,7.2
			c0,0.1-0.1,0.3-0.1,0.4c0-0.1,0-0.2,0-0.4c-1,0.4-2,0.8-2.9,1.2c-2.9,1.1-5.8,2.3-8.6,3.6v1c-0.2,0-0.4,0-0.7,0
			c0-0.2-0.1-0.4-0.2-0.6c-2.2,1-4.4,2.1-6.5,3.2c-0.1,0.9-0.1,1.8-0.2,2.7c-0.2-0.5-0.3-1.4-0.5-2.4c-0.2,0.1-0.4,0.2-0.6,0.3
			c-1.9,0.9-3.9,1.9-5.8,2.8c-0.1,0.4-0.2,0.8-0.3,1.1c0-0.3-0.1-0.6-0.1-0.9c-1.9,0.9-3.8,1.7-5.6,2.6c0,0.3,0,0.7-0.1,1
			c-0.1-0.2-0.2-0.5-0.3-0.8c-1.7,0.8-3.4,1.5-5.1,2.3c0,0.4,0,0.7,0.1,1.1c-0.2-0.3-0.3-0.6-0.4-0.9c-1.5,0.7-3,1.3-4.6,2
			c0,0.3-0.1,0.7-0.1,1c-0.1-0.3-0.1-0.6-0.1-0.9c-1.8,0.8-3.6,1.6-5.5,2.4c0,0.5,0,1.1,0,1.6c-0.2-0.3-0.4-0.8-0.5-1.4
			c-2.2,0.9-4.3,1.9-6.4,2.8c-0.1,0.8-0.3,1.6-0.5,2.4c-0.2-0.6-0.3-1.3-0.4-2c-0.6,0.3-1.2,0.5-1.9,0.8c-1.4,0.6-2.8,1.2-4.1,1.8
			c-0.2,0.6-0.5,1.3-0.9,1.9c0-0.5,0-1,0.1-1.5c-0.1,0.1-0.3,0.1-0.4,0.2c-1.8,1-3.7,1.9-5.6,2.8c-0.1,0.3-0.1,0.5-0.2,0.8
			c0-0.2,0-0.5,0-0.7c-1.9,0.9-3.8,1.9-5.7,2.8c0,0.1,0,0.2-0.1,0.3c0-0.1,0-0.2-0.1-0.2c-1.8,0.9-3.6,1.8-5.4,2.6
			c0,0.1-0.1,0.2-0.1,0.4c0-0.1,0-0.2,0-0.3c-1.7,0.8-3.5,1.7-5.2,2.5c-0.2,0.5-0.3,1.1-0.5,1.6c-0.3,0-0.6-0.1-0.8-0.1
			c0-0.3,0.1-0.6,0.1-0.9c-2.4,1.1-4.7,2.2-7,3.3c0,0.1-0.1,0.2-0.1,0.3c0-0.1,0-0.2,0-0.3c-1.9,0.9-3.8,1.8-5.7,2.6
			c-0.1,0.3-0.1,0.5-0.2,0.8c-0.1-0.2-0.2-0.4-0.3-0.6c-2.1,1-4.2,1.9-6.3,2.9c-0.1,0.6-0.2,1.2-0.4,1.8c-0.1-0.4-0.2-0.9-0.2-1.5
			c-1.9,0.9-3.9,1.8-5.8,2.6c0,0,0,0.1,0,0.1c0,0,0-0.1,0-0.1c-1,0.5-2,0.9-3.1,1.4c-1.3,0.6-2.5,1.2-3.8,1.8c0,0.2-0.1,0.4-0.1,0.7
			c-0.2,0-0.4-0.1-0.6-0.1c0-0.1,0-0.1,0-0.2c-1.8,0.9-3.5,1.8-5.2,2.8c-0.1,0.3-0.1,0.5-0.2,0.8c-0.2,0-0.4,0-0.7,0
			c0-0.1,0-0.2-0.1-0.3c-0.1,0.1-0.3,0.1-0.4,0.2c-1,0.5-1.9,1.3-3.4,1.2c0.9-3.1,0.7-6.2,0.8-9.3c0-1.2,0.7-1.9,1.8-2.6
			c1-0.6,2-1.1,3-1.6c0.1-0.6,0.2-1.2,0.4-1.8c0.1-0.4,0.3-0.8,0.8-0.8c0.5,0,0.7,0.4,0.6,0.9c-0.1,0.3-0.1,0.5-0.2,0.7
			c1.3-0.7,2.7-1.4,4-2.1c0.1-0.4,0.2-0.9,0.3-1.3c0.3,0.1,0.7,0.1,1.1,0.2c0,0.2-0.1,0.4-0.1,0.5c2.3-1.2,4.6-2.3,6.9-3.5
			c0.2-0.3,0.4-0.6,0.7-0.9c0,0.2-0.1,0.4-0.1,0.6c1.8-0.9,3.7-1.8,5.5-2.7c0.2-0.5,0.4-0.9,0.6-1.2c0.3,0.3,0.4,0.5,0.4,0.7
			c1.6-0.8,3.2-1.6,4.9-2.3c0-0.3,0.1-0.7,0.1-1c0.2-0.9,0.3-1.9,1.7-1.6c-0.2,0.6-0.3,1.3-0.4,1.9c2-0.9,4-1.9,6-2.8
			c0.1-0.3,0.3-0.7,0.4-1c0,0.3-0.1,0.6-0.1,0.9c2.2-1,4.3-2,6.5-3c0.1-0.5,0.2-1,0.2-1.5c0.1-0.7,0.5-1.3,1.6-1.5
			c-0.2,0.8-0.4,1.6-0.5,2.4c1.6-0.7,3.1-1.4,4.7-2.2c0.2-0.7,0.4-1.3,0.7-1.9c0,0.6,0,1.1-0.1,1.7c0.1,0,0.1-0.1,0.2-0.1
			c1.8-0.9,3.7-1.7,5.6-2.5c0.2-0.3,0.4-0.6,0.7-0.7c0,0.2-0.1,0.3-0.1,0.5c1.5-0.6,3-1.2,4.5-1.9c0.1-0.6,0.2-1.2,0.3-1.7
			c0.1,0.5,0.1,1,0.1,1.6c1.7-0.7,3.4-1.4,5.1-2.1c0.2-0.7,0.3-1.4,0.6-2.1c0.2,0.6,0.4,1.1,0.4,1.7c2.2-0.9,4.5-1.9,6.7-2.9
			c0.1-0.2,0.2-0.4,0.4-0.5c0,0.1,0,0.3-0.1,0.4c0,0,0.1,0,0.1,0c1.7-0.8,3.5-1.6,5.2-2.4c0.2-0.8,0.4-1.6,0.6-2.2
			c0,0.6,0,1.3,0,1.9c1.7-0.8,3.4-1.5,5.1-2.3c0.1-0.7,0.3-1.3,0.4-2c0.3,0,0.6,0.1,0.9,0.1c0,0.4-0.1,0.9-0.1,1.3
			c1.1-0.5,2.2-1,3.2-1.5c0.1-0.4,0.2-0.8,0.4-1.2c0,0.3,0.1,0.6,0.1,1c1.7-0.8,3.4-1.5,5-2.3c0.1-0.7,0.3-1.3,0.5-1.9
			c0.3,0.5,0.4,0.9,0.5,1.4c1.8-0.8,3.5-1.6,5.3-2.4c0.1-0.5,0.2-1,0.2-1.5c0.1,0.3,0.2,0.7,0.3,1.3c1.9-0.9,3.9-1.8,5.8-2.7
			c0.1-1.3,0.3-2.4,0.5-2.9c0.1,0.8,0.2,1.7,0.3,2.5c2.3-1.1,4.7-2.2,7-3.3c0.1-0.6,0.3-1.2,0.4-1.9v1.6c1.7-0.8,3.3-1.6,5-2.4
			c0-0.5,0.1-0.9,0.1-1.4c0.1,0.3,0.2,0.7,0.3,1.2c1.1-0.5,2.2-1.1,3.3-1.6c0.9-0.4,1.8-0.9,2.7-1.3c0.1-0.7,0.3-1.3,0.5-1.7
			c0.1,0.4,0.2,0.8,0.3,1.4c2.1-1,4.3-2,6.4-3c0-0.5,0.1-1.1,0.1-1.6c0.2,0,0.5,0,0.7,0c0.1,0.3,0.1,0.7,0.2,1.2
			c1.4-0.6,2.8-1.3,4.2-1.9c0.1-0.6,0.1-1.2,0.2-1.9c0.2,0.4,0.3,0.9,0.4,1.6c1.4-0.7,2.9-1.3,4.3-2c0.7-0.3,1.4-0.8,2.6-0.7
			C1454.4,149.6,1454.5,149.6,1454.5,149.6L1454.5,149.6z M1263.9,142.9c5.2-2.1,10.3-4.3,15.3-6.8c10.2-5,20.5-9.9,30.8-14.6
			c7-3.2,14.1-6.3,21.2-9.4c8.3-3.6,16.6-7.2,24.9-10.8c12.9-5.6,25.8-11.1,38.8-16.5c2.3-0.9,4.5-2,6.7-3c1-0.5,2.1-0.9,3.2-1.3
			c0.9-0.3,1.6-0.4,2.2-0.1c0.4,0.2,0.8,0.6,1.2,1.1c0.5,0.7,0.9,1.3,1.4,2c2.6,3.6,5.3,7.2,7.8,10.8c10.3,14.7,20.5,29.5,30.7,44.3
			c1.4,2.1,3,4,4.6,6c0.4,0.5,0.8,0.9,1.2,1.4c-0.2,0.1-0.3,0.1-0.5,0.2c-13.8,6.5-27.4,13-41,19.4c-0.4,0.2-0.7,0.3-1.1,0.5
			c-7.7,3.6-15.4,7.2-23.1,10.8c-2.9,1.4-5.8,2.6-8.8,3.9c-1.7,0.7-3.4,1.5-5.2,2.2c-2.8,1.2-5.7,2.4-8.6,3.5
			c-10.8,4.3-21.1,9.4-31.5,14.5c-5.9,2.9-12.2,5.2-17.9,8.5c-3.2,1.9-6.5,3.6-9.7,5.4c-1.3,0.7-2.2,0.8-3-0.7
			c-6.1-11.4-14.6-21.2-21.6-32c-0.1-0.1-0.2-0.2-0.2-0.4c-0.4-0.6-0.8-1.2-1.2-1.8c-6.6-10.2-12.9-20.5-19.1-30.9
			c-0.6-1-1.1-1.8-1.4-2.5C1259.5,144.8,1260.3,144.3,1263.9,142.9L1263.9,142.9z M1256.9,160.5c0.2-3.4,0.4-6.8,1.6-10
			c1.1,0.1,1.3,1,1.7,1.7c10.6,17.6,21.8,34.8,33.6,51.7c3.1,4.4,5.8,9.1,8.7,13.6c0.6,0.9,0.5,1.7,0.4,2.6
			c-0.4,2.7-0.8,5.5-1.3,8.6c0,0,0,0,0,0.1c-1.1-0.6-1.6-1.4-2.1-2.2c-0.1-0.2-0.2-0.3-0.3-0.5c-8.7-12.5-17.1-25.1-26.1-37.4
			c-5.3-7.4-10.3-15-14.8-22.9C1257.2,164.1,1256.8,162.4,1256.9,160.5L1256.9,160.5z"/>
		<path class="st0" d="M1372.9,170.5c-1.3-2.2-2.7-4.4-4.1-6.5c-9.9-14.6-19.8-29.2-29.7-43.8c-0.3-0.5-0.7-1-1.1-1.5
			c-0.6-0.6-1.3-1.1-2.2-0.5c-0.7,0.5-0.7,1.2-0.4,2c0.6,1.4,1.4,2.7,2.3,4c3.3,4.8,6.5,9.5,9.8,14.3c7.5,11,15,22,22.5,33
			c0.6,0.8,1.3,1.6,2,2.4c0.4,0.4,0.9,0.4,1.4,0.1c0.3-0.3,0.5-0.7,0.4-1.3C1373.6,172,1373.4,171.2,1372.9,170.5L1372.9,170.5z"/>
		<path class="st0" d="M1313,156.8c-1.8,0.5-2.9,2.3-2.6,4.3c0.1,0.6,0.3,1.2,0.6,1.7c0.8,2,1.8,2.6,3.8,2.2c1.9-0.4,3-1.8,3-4
			c-0.1-0.4-0.2-1.1-0.4-1.8C1316.5,157.1,1315,156.3,1313,156.8L1313,156.8z"/>
		<path class="st0" d="M1360.3,120.6c1.6,0,2.7-1.1,2.7-2.7c0-2.5-1.5-4.4-3.5-4.3c-1.8,0.1-2.7,1.4-2.7,3.5
			C1356.9,119.3,1358.2,120.6,1360.3,120.6L1360.3,120.6z"/>
		<path class="st0" d="M1396.1,126.4c-1.6-0.1-2.9,1-3.1,2.7c-0.2,1.8,1.4,4,2.9,4.1c1.6,0.2,2.9-1.2,3.1-3.1
			C1399.2,128.4,1397.8,126.6,1396.1,126.4z"/>
		<path class="st0" d="M1431.6,143.7c1.5,0.1,2.7-1.2,2.7-3c0-1.8-0.9-3-2.3-3.1c-1.6-0.1-3,1.4-3,3.1
			C1429,142.3,1430.2,143.6,1431.6,143.7z"/>
		<path class="st0" d="M1406,91.8c-9,1.5-37.2,11.6-40.2,14.2C1379,100.7,1392.6,96.6,1406,91.8z"/>
		<path class="st0" d="M1352.1,193.3c-1.1,0.2-1.5,0.8-1.6,1.5c-0.1,0.5-0.2,1-0.2,1.5c-0.7,4.3-1.4,8.6-2.1,12.9
			c-0.1,0.3-0.1,0.6-0.1,0.9c0.3,0,0.6,0.1,0.8,0.1c0.2-0.5,0.4-1.1,0.5-1.6c1.2-4.2,1.4-8.6,2.2-13
			C1351.8,195,1352,194.2,1352.1,193.3L1352.1,193.3z"/>
		<path class="st0" d="M1312.1,214.4c0.1-0.4-0.1-0.8-0.6-0.9c-0.5,0-0.7,0.3-0.8,0.8c-0.1,0.6-0.2,1.2-0.4,1.8
			c-0.4,2.1-0.9,4.2-1.3,6.4c-0.3,1.9-1.1,3.8-0.6,5.8c0,0.1,0,0.2,0.1,0.3c0.2,0,0.4,0,0.6,0c0.1-0.3,0.1-0.5,0.2-0.8
			c0.9-4.2,1.8-8.4,2.6-12.6C1312,214.8,1312.1,214.6,1312.1,214.4L1312.1,214.4z"/>
		<path class="st0" d="M1337.9,200.4c-1.4-0.3-1.6,0.7-1.7,1.6c0,0.3-0.1,0.7-0.2,1c-0.6,4-1.1,8.1-1.2,12.2c0,0.1,0,0.2,0.1,0.3
			c0.1,0.2,0.2,0.4,0.3,0.6c0.1-0.3,0.2-0.5,0.2-0.8c1.1-4.3,1.3-8.6,2.2-12.9C1337.6,201.7,1337.8,201.1,1337.9,200.4L1337.9,200.4
			z"/>
		<path class="st0" d="M1374.2,186c0-0.6-0.2-1.1-0.4-1.7c-0.2,0.7-0.4,1.4-0.6,2.1c-0.9,3.6-1.1,7.4-1.2,11.1c0,0.5,0,1-0.1,1.5
			c0.4-0.6,0.7-1.2,0.9-1.9c0.6-1.7,0.6-3.6,0.8-5.4C1373.8,189.8,1374.4,187.9,1374.2,186L1374.2,186z"/>
		<path class="st0" d="M1331.2,205.4c0-0.2-0.1-0.5-0.4-0.7c-0.2,0.3-0.4,0.7-0.6,1.2c-1.3,3.1-2.4,9.4-2.2,12.8
			c0,0.6,0.1,1.1,0.2,1.5c0.1-0.6,0.2-1.2,0.4-1.8c0.9-4.3,1.7-8.4,2.5-12.4C1331.2,205.8,1331.2,205.6,1331.2,205.4z"/>
		<path class="st0" d="M1343.9,198.6c-0.2,0.3-0.3,0.7-0.4,1c-1.7,4.2-2.1,8.6-2.4,13.1c0,0.1,0,0.2,0,0.3c0-0.1,0.1-0.2,0.1-0.3
			c1.6-4.3,2.1-8.7,2.7-13.2C1343.9,199.1,1343.9,198.8,1343.9,198.6L1343.9,198.6z"/>
		<path class="st0" d="M1363.3,190.1c-0.2,0.2-0.5,0.4-0.7,0.7c-1.8,2.6-3.3,9.4-2.6,12.8c0,0.1,0,0.2,0.1,0.2c0-0.1,0-0.2,0.1-0.3
			c1-4.3,2-8.6,3-13C1363.2,190.4,1363.3,190.2,1363.3,190.1L1363.3,190.1z"/>
		<path class="st0" d="M1415.7,167.4c-0.1-0.8-0.2-1.7-0.3-2.5c-0.2,0.5-0.4,1.5-0.5,2.9c-0.2,3-0.1,7.4,0.2,10.4
			c0.1,1,0.3,1.9,0.5,2.4c0.1-0.9,0.1-1.8,0.2-2.7C1416,174.4,1416,170.9,1415.7,167.4L1415.7,167.4z"/>
		<path class="st0" d="M1357,191.7c-0.3,0.6-0.5,1.3-0.7,1.9c-1.3,4.1-1.5,8.3-1.7,12.6c0,0.1,0,0.2,0,0.3c0-0.1,0.1-0.2,0.1-0.4
			c1.2-4.2,1.9-8.5,2.2-12.9C1356.9,192.8,1357,192.2,1357,191.7L1357,191.7z"/>
		<path class="st0" d="M1381.3,182.7c-0.1,0.2-0.2,0.3-0.4,0.5c-1.5,2.5-2.4,7.7-2.1,11.3c0.1,0.8,0.2,1.4,0.4,2
			c0.2-0.8,0.3-1.6,0.5-2.4c0.7-3.7,1-7.2,1.5-11.1C1381.2,182.9,1381.2,182.8,1381.3,182.7L1381.3,182.7z"/>
		<path class="st0" d="M1368.1,188.5c0-0.5-0.1-1-0.1-1.6c-0.1,0.6-0.2,1.2-0.3,1.7c-0.8,4-1.9,7.9-1.8,12c0,0.2,0,0.5,0,0.7
			c0.1-0.3,0.1-0.5,0.2-0.8C1367,196.6,1368.2,192.6,1368.1,188.5L1368.1,188.5z"/>
		<path class="st0" d="M1324.8,208c-0.2,0.2-0.4,0.5-0.7,0.9c-1.7,2.8-2.8,8.8-2,12.4c0,0,0,0.1,0,0.1c0,0,0-0.1,0-0.1
			c0.8-4.1,1.6-8.2,2.5-12.7C1324.7,208.4,1324.7,208.2,1324.8,208L1324.8,208z"/>
		<path class="st0" d="M1423.2,162.3c-0.2,0.6-0.3,1.2-0.4,1.9c-0.8,3.5-1.2,7.1-0.4,10.6c0,0.2,0.1,0.4,0.2,0.6c0.2,0,0.4,0,0.7,0
			V162.3L1423.2,162.3z"/>
		<path class="st0" d="M1411.8,97.8c-4.9,2.1-9.8,4-14.7,6.2C1402.4,102.8,1407.4,100.9,1411.8,97.8z"/>
		<path class="st0" d="M1317.3,211.8c-0.3-0.1-0.7-0.1-1.1-0.2c-0.1,0.4-0.2,0.9-0.3,1.3c-0.9,3.9-1.5,7.8-1.4,11.9
			c0,0.1,0,0.1,0,0.2c0.2,0,0.4,0.1,0.7,0.1c0-0.2,0.1-0.4,0.1-0.7c0.6-4.1,1.3-8.1,1.9-12.2C1317.2,212.2,1317.3,212,1317.3,211.8
			L1317.3,211.8z"/>
		<path class="st0" d="M1387.1,178.4c-0.2,0.7-0.4,1.4-0.6,2.2c-0.8,3.5-0.9,8.1-0.4,10.7c0.1,0.6,0.3,1.1,0.5,1.4
			c0-0.6,0-1.1,0-1.6c0-3.7,0.5-7.2,0.5-10.7C1387.1,179.7,1387.1,179.1,1387.1,178.4z"/>
		<path class="st0" d="M1393.6,176.2c-0.3,0-0.6-0.1-0.9-0.1c-0.2,0.7-0.3,1.3-0.4,2c-0.6,3.5-0.8,7.1-0.2,10.7
			c0,0.3,0.1,0.6,0.1,0.9c0-0.3,0.1-0.7,0.1-1c0.4-3.7,0.8-7.4,1.1-11.1C1393.5,177.1,1393.5,176.6,1393.6,176.2L1393.6,176.2z"/>
		<path class="st0" d="M1435.4,158c-0.1-0.5-0.2-1-0.3-1.4c-0.2,0.4-0.3,1-0.4,1.7c-0.4,2.7-0.5,7.3,0.1,11.1c0,0.1,0,0.2,0,0.4
			c0-0.1,0.1-0.3,0.1-0.4C1435.5,165.2,1435.7,160.7,1435.4,158L1435.4,158z"/>
		<path class="st0" d="M1397.2,175.9c0-0.3-0.1-0.6-0.1-1c-0.1,0.4-0.2,0.8-0.4,1.2c-0.9,3.5-0.9,7.8,0.2,10.6
			c0.1,0.3,0.3,0.7,0.4,0.9c0-0.4,0-0.7-0.1-1.1C1397.1,182.7,1397.5,179.3,1397.2,175.9L1397.2,175.9z"/>
		<path class="st0" d="M1402.9,178.4c-0.2-1.7,0.7-3.4,0.3-5.2c-0.1-0.5-0.2-0.9-0.5-1.4c-0.2,0.5-0.4,1.2-0.5,1.9
			c-0.7,3.3-0.6,8.1,0.2,10.6c0.1,0.3,0.2,0.6,0.3,0.8c0-0.3,0-0.7,0-1C1402.8,182,1403.1,180.2,1402.9,178.4L1402.9,178.4z"/>
		<path class="st0" d="M1409,170.5c-0.1-0.5-0.2-1-0.3-1.3c-0.1,0.5-0.2,1-0.2,1.5c-0.5,3.6-0.4,7.1-0.1,10.7c0,0.3,0.1,0.6,0.1,0.9
			c0.1-0.3,0.2-0.7,0.3-1.1C1409.3,178.4,1409.5,173.1,1409,170.5L1409,170.5z"/>
		<path class="st0" d="M1442.7,154.6c0-0.5-0.1-0.9-0.2-1.2c-0.2,0-0.4,0-0.7,0c0,0.5,0,1.1-0.1,1.6c-0.2,3.3-0.4,6.6-0.6,10
			C1442.3,163.1,1442.9,157.4,1442.7,154.6z"/>
		<path class="st0" d="M1446.9,161.8c0.7-2.8,0.9-6.9,0.6-9.4c-0.1-0.7-0.2-1.2-0.4-1.6c-0.1,0.6-0.2,1.3-0.2,1.9
			C1446.5,155.9,1446.5,158.8,1446.9,161.8z"/>
		<path class="st0" d="M1428.3,171.8c0.7-2.4,0.7-7.7,0.3-10.5c-0.1-0.5-0.2-0.9-0.3-1.2c0,0.5-0.1,0.9-0.1,1.4
			C1427.9,165,1427.9,168.4,1428.3,171.8z"/>
		<path class="st0" d="M1412,109.3c2.1-1,4.4-1.7,6.4-3.6C1415.6,106.3,1413.6,107.4,1412,109.3z"/>
		<path class="st0" d="M1596.1,1.5c-2,1.4-3.3,3.3-4,5.7c-1.1,3.9-0.9,7.8-0.3,11.7c0.1,0.9,0.5,1.8-0.5,2.5c-3.4,2.4-3.7,6-3.5,9.7
			c0.2,3.4,1.2,6.7,1.9,10c3.1,15.3,5.7,30.7,8.7,46c0.5,2.7,1.1,5.5,1.6,8.2V76c-2.2-11.7-4.3-23.4-6.5-35.1
			c-0.8-4.4-2.4-8.6-2.4-12.5c-0.2-1.4-0.3-2.2,0.2-3c0.7-1,1.2-1.6,2.7-0.9c2.1,0.9,4.1,1.3,6,1.3v-3c-1,0-2-0.1-3-0.3
			c-1.6-0.4-2.7-1.1-2.8-2.9c0-0.1,0-0.1,0-0.1c0-0.4-0.1-0.8-0.1-1.3c-0.1-1.7-0.4-3.5-0.6-5.2c0-1.8,0.3-3.5,0.7-5.2
			c0.5-1.8,1.5-3.1,3-4.2c1-0.6,1.9-0.9,2.8-0.9V0C1598.7,0,1597.4,0.5,1596.1,1.5L1596.1,1.5z"/>
	</g>
</g>
</svg>
